<?xml version="1.0" encoding="utf-8"?><svg version="1.1" id="layer-2" xmlns="http://www.w3.org/2000/svg" xmlns:xlink="http://www.w3.org/1999/xlink" x="0px" y="0px" viewBox="0 0 1077 683" style="enable-background:new 0 0 1077 683;" xml:space="preserve"><style type="text/css">.st0{fill:url(#XMLID_2_);}.st1{opacity:0.15;fill:#FFFFFF;}.st2{fill:url(#XMLID_3_);}.st3{fill:url(#XMLID_4_);}</style><linearGradient id="XMLID_2_" gradientUnits="userSpaceOnUse" x1="835.2001" y1="222" x2="835.2001" y2="119.9805"><stop offset="0" style="stop-color:#FFFFFF;stop-opacity:0"/><stop offset="1" style="stop-color:#FFFFFF"/></linearGradient><path id="XMLID_41_" class="st0" d="M1002,181.1c2.7-19.4-2.5-41-17.6-53.4c-15.2-12.4-41-11.7-52.1,4.5c-5.7,8.2-6.9,18.7-10.7,27.9c-3.8,9.2-12.6,18.2-22.4,16.2c-6.8-1.4-11.4-7.4-16.6-12c-5.2-4.6-13.5-7.8-18.7-3.2c-2.1,1.8-3.2,4.5-4.7,6.8c-4.6,6.8-14.1,9.8-21.8,6.9c-6.2-2.4-12.3-8.1-18.5-5.7c-4,1.6-6,6.2-9.7,8.5c-4.7,3-10.8,1.4-16.3,0.7c-10-1.3-20.1,0.2-30,1.7c-32.2,4.9-64.4,9.9-96.6,14.8c30.9,6.6,63.2-1.9,94.5,2.5c16.6,2.3,32.8,8.3,49.6,8.6c11.9,0.2,23.9-2.5,35.6-0.1c17.3,3.6,32.9,18.2,50.2,14.5c13.6-2.9,24.3-16.9,38.2-15.6c3.9,0.4,7.6,2,11.3,3.5c12.3,5.2,25.9,10,38.9,6.8c13-3.2,23.9-17.8,18.4-30"/><g id="XMLID_44_"><circle id="XMLID_42_" class="st1" cx="589.2" cy="153.7" r="189.3"/><linearGradient id="XMLID_3_" gradientUnits="userSpaceOnUse" x1="589.1821" y1="255.3931" x2="589.1821" y2="36.4803"><stop offset="0" style="stop-color:#FFFFFF;stop-opacity:0"/><stop offset="1" style="stop-color:#FFFFFF"/></linearGradient><circle id="XMLID_241_" class="st2" cx="589.2" cy="153.7" r="113.6"/></g><linearGradient id="XMLID_4_" gradientUnits="userSpaceOnUse" x1="211.1491" y1="200.235" x2="211.1491" y2="120.0743" gradientTransform="matrix(1.0824 7.300000e-03 7.300000e-03 1.0006 -2.5086 -0.6211)"><stop offset="0" style="stop-color:#FFFFFF;stop-opacity:0"/><stop offset="1" style="stop-color:#FFFFFF"/></linearGradient><path id="XMLID_40_" class="st3" d="M87.5,173.9c14.2-2.3,41.4,4.6,50.3-9c1.4-2.2,2.2-4.6,2.9-7.1c1.2-4.1,2.4-8.2,3.6-12.4c3.3-11.4,7.9-24.1,19.5-29.1c26.9-11.4,44.2,15,52.8,33.3c1.1,2.4,2.5,5,5.1,6.1c5.9,2.3,10.3-4.7,15.1-8.5c7.1-5.5,19.7-3.1,24,4.7c1.8,3.2,2.9,7.5,6.6,8.4c4.6,1.1,7.7-3.9,11.8-6.2c8.4-4.6,18.1,3.5,26,9c19.2,13.1,45.1,11.9,68.7,10.1c3,1.8-1,5.6-4.5,6.5c-42.8,10.5-87.7,11.7-132.1,12.9c-47.7,1.3-95.6,2.5-143-2.8c-4.1-0.5-8.3-1.1-11.5-3.4c-3.2-2.4-4.7-7.1-2-10C82.5,174.8,85.1,174.3,87.5,173.9z"/></svg>