<?xml version="1.0" encoding="utf-8"?><svg version="1.1" id="layer-5" xmlns="http://www.w3.org/2000/svg" xmlns:xlink="http://www.w3.org/1999/xlink" x="0px" y="0px" viewBox="0 0 1077 683" style="enable-background:new 0 0 1077 683;" xml:space="preserve"><style type="text/css">.st0{fill:#C9223E;}</style><path id="XMLID_8_" class="st0" d="M978.1,478c1.4-0.1,2.6-0.6,3.3-1.4c1.8-2.3-1.5-4.8-4-6.7c-3.1-2.4-5.4-5.4-6.6-8.6c1.4,1.4,3.1,2.6,5,3.6c1.3,0.7,2.8,0.6,3.3-0.7c0.2-0.6,0.2-1.1,0.1-1.7c-0.2-1.2-0.5-2.5-1.1-3.6c-1.2-2-3.4-3.4-5.3-5.1s-3.4-3.8-2.8-5.9c0.1-0.3,0.3-0.7,0.7-0.8c0.7-0.2,1.4,0.2,1.8,0.6c0.8,1,0.8,1.8,2.6,1.4c1.2-0.3,2.1-1.4,2-2.3c0-0.8-0.6-1.5-1.1-2.1c-2.7-3.5-8.1-6.6-7.2-11.1c0.1-0.3,0.2-0.7,0.5-0.9c0.8-0.5,2,0.2,2.6,0.8c0.6,0.7,1.5,1.5,2.5,1.2c1-0.3,1-1.3,0.7-2c-1.2-3.4-4-6.3-5.9-9.4c-0.5-0.8-0.9-1.7-0.8-2.6c0-0.2,0.1-0.3,0.2-0.5c0.3-0.3,1.1-0.3,1.5,0c0.9,0.6,1,1.9,2.6,2c1.5,0.1,2.6-1.1,2.5-2.3c-0.1-1.1-1.1-2.1-1.9-3c-5.9-6.9-5.8-16.1-9.4-23.7c-0.1-0.3-0.3-0.6-0.6-0.8c-0.7-0.4-1.7,0-2,0.6c-0.3,0.6-0.2,1.2-0.1,1.8c0.8,5.2-0.5,10.5-1.8,15.7c-0.5,2-1,3.9-1.9,5.8c-1.2,2.4-3,4.7-4.3,7.1c-0.7,1.2-0.8,3,0.8,3.4c2.1,0.5,3.6-2,5.8-1.9c3.6,0.1,0.8,3.7,0.1,4.7c-1.6,2.4-4.2,4.6-4.3,7.4c0,0.4,0,0.8,0.3,1.1c1.9,2.2,4.6-1.3,5.4-2.2c0.4-0.4,1.2-0.7,1.7-0.4c0.5,0.3,0.5,0.8,0.5,1.3c-0.8,5.5-8.5,8.9-10.5,14.2c-0.3,0.7-0.4,1.4,0,2c0.9,1.4,3.9,1,5.5-0.1c1.1-0.8,1.7-1.8,2.8-2.6c1.1-0.8,3.1-1.2,2.6,0.6c-0.2,0.6-0.8,1.1-1.4,1.6c-1.7,1.4-3.3,2.7-5.1,4c-0.9,0.6-1.9,1.3-2.7,2c-0.9,0.9-1.4,2.1-1.9,3.2c-0.4,1-0.8,2.2,0.3,2.9c0.7,0.4,1.6,0.4,2.4,0.2c0.8-0.3,1.4-0.7,2-1.2c0.9-0.8,1.7-1.7,2.4-2.6c0.4-0.2,1,0,1.3,0.3c0.2,0.3,0.2,0.7,0.1,1.1c-0.6,3.1-2.6,4.5-5.6,6.4c-3.2,2.1-6.9,4.3-7.3,7.5c-0.1,0.6,0,1.2,0.3,1.7h-30l-21.8,9.3c-0.8-0.7-1.7-1.5-2.6-2.1c-3.1-2.4-5.4-5.4-6.6-8.6c1.4,1.4,3.1,2.6,5,3.6c1.3,0.7,2.8,0.6,3.3-0.7c0.2-0.6,0.2-1.1,0.1-1.7c-0.2-1.2-0.5-2.5-1.1-3.6c-1.2-2-3.4-3.4-5.3-5.1c-1.9-1.6-3.4-3.8-2.8-5.9c0.1-0.3,0.3-0.7,0.7-0.8c0.7-0.2,1.4,0.2,1.8,0.6c0.8,1,0.8,1.8,2.6,1.4c1.2-0.3,2.1-1.4,2-2.3c0-0.8-0.6-1.5-1.1-2.1c-2.7-3.5-8.1-6.6-7.2-11.1c0.1-0.3,0.2-0.7,0.5-0.9c0.8-0.5,2,0.2,2.6,0.8c0.6,0.7,1.5,1.5,2.5,1.2c1-0.3,1-1.3,0.7-2c-1.2-3.4-4-6.3-5.9-9.4c-0.5-0.8-0.9-1.7-0.8-2.6c0-0.2,0.1-0.3,0.2-0.5c0.3-0.3,1.1-0.3,1.5,0c0.9,0.6,1,1.9,2.6,2c1.5,0.1,2.6-1.1,2.5-2.3c-0.1-1.1-1.1-2.1-1.9-3c-5.9-6.9-5.8-16.1-9.4-23.7c-0.1-0.3-0.3-0.6-0.6-0.8c-0.7-0.4-1.7,0-2,0.6c-0.3,0.6-0.2,1.2-0.1,1.8c0.8,5.2-0.5,10.5-1.8,15.7c-0.5,2-1,3.9-1.9,5.8c-1.2,2.4-3,4.7-4.3,7.1c-0.7,1.2-0.8,3,0.8,3.4c2.1,0.5,3.6-2,5.8-1.9c3.6,0.1,0.8,3.7,0.1,4.7c-1.6,2.4-4.2,4.6-4.3,7.4c0,0.4,0,0.8,0.3,1.1c1.9,2.2,4.6-1.3,5.4-2.2c0.4-0.4,1.2-0.7,1.7-0.4c0.5,0.3,0.5,0.8,0.5,1.3c-0.8,5.5-8.5,8.9-10.5,14.2c-0.3,0.7-0.4,1.4,0,2c0.9,1.4,3.9,1,5.5-0.1c1.1-0.8,1.7-1.8,2.8-2.6c1.1-0.8,3.1-1.2,2.6,0.6c-0.2,0.6-0.8,1.1-1.4,1.6c-1.7,1.4-3.3,2.7-5.1,4c-0.9,0.6-1.9,1.3-2.7,2c-0.9,0.9-1.4,2.1-1.9,3.2c-0.4,1-0.8,2.2,0.3,2.9c0.7,0.4,1.6,0.4,2.4,0.2c0.8-0.3,1.4-0.7,2-1.2c0.9-0.8,1.7-1.7,2.4-2.6c0.4-0.2,1,0,1.3,0.3c0.2,0.3,0.2,0.7,0.1,1.1c-0.6,3.1-2.6,4.5-5.6,6.4c-3.2,2.1-6.9,4.3-7.3,7.5c-0.1,0.7,0,1.5,0.7,2c1.9,1.6,5.2-0.3,6.7-2.1c1.5-1.8,4.3-4,6.6-2.7c-0.2,2.5-3.4,4.6-6.1,5.8c-2.8,1.3-4.7,2.6-5.5,4.9l-15.2,6.5H777c-0.3-0.3-0.7-0.6-1-0.9c-0.8-0.7-4.1-5.3-1.6-5.9c0.6-0.1,1.2,0.1,1.7,0.4c0.5,0.3,0.8,0.7,1.2,1.1c1,0.8,2.4,1.3,3.9,1.2c0.4,0,0.7-0.1,1-0.2c0.5-0.3,0.6-0.7,0.7-1.2c0-1.4-1-2.6-2.2-3.8c-1.3-1.2-2.1-2.5-3.2-3.8c-1.2-1.5-2.6-2.7-2.8-4.5c2.2-1.5,4.3,3.4,7.2,2.7c2-0.5,1-2.7-0.2-4c-2.7-3-4.5-6.3-5.5-9.8c-0.5-1.7-0.9-3.5-1.2-5.3c-0.1-0.7,0-4.5-2.2-3.5c-0.6,0.3-0.9,0.9-1,1.5c-0.9,2.9-1.7,5.9-2.8,8.8c-0.8,2.3-1.2,5.5-3.2,7.4c-1.1,1.1-2.4,1.9-2.3,3.4c0,0.1,0,0.2,0.1,0.3c0.1,0.2,0.4,0.2,0.6,0.3c2.3,0.6,3.9-0.7,5.4-1.8c0.2-0.1,0.4-0.3,0.7-0.4c0.3-0.1,0.6-0.1,0.8,0.1c0.5,0.4,0.1,1.5,0,2c-0.3,1.5-1.3,2.9-2.5,4.1c-1.9,2-4.5,3.6-6,5.8c-0.3,0.4-0.6,0.9-0.5,1.4c0.1,1,1.4,1.5,2.5,1.5c1.6,0.1,2.5-0.8,3-1.8c0.4-0.7,0.7-1.4,1.6-1.7c0.2-0.1,0.5-0.1,0.7,0c0.1,0.1,0.1,0.1,0.1,0.2c0.1,1.4-0.3,2.8-1.1,4.1c-0.5,0.9-1.3,1.5-2.2,2.2h-25.4c-0.6-1-1-2.1-1.2-3.2c1.6,1,3.2,2,5.2,2.4c2,0.4,4.4,0,5.5-1.3c1.8-2.3-1.5-4.8-4-6.7c-3.1-2.4-5.4-5.4-6.6-8.6c1.4,1.4,3.1,2.6,5,3.6c1.3,0.7,2.8,0.6,3.3-0.7c0.2-0.6,0.2-1.1,0.1-1.7c-0.2-1.2-0.5-2.5-1.1-3.6c-1.2-2-3.4-3.4-5.3-5.1c-1.9-1.6-3.4-3.8-2.8-5.9c0.1-0.3,0.3-0.7,0.7-0.8c0.7-0.2,1.4,0.2,1.8,0.6c0.8,1,0.8,1.8,2.6,1.4c1.2-0.3,2.1-1.4,2-2.3c0-0.8-0.6-1.5-1.1-2.1c-2.7-3.5-8.1-6.6-7.2-11.1c0.1-0.3,0.2-0.7,0.5-0.9c0.8-0.5,2,0.2,2.6,0.8s1.5,1.5,2.5,1.2c1-0.3,1-1.3,0.7-2c-1.2-3.4-4-6.3-5.9-9.4c-0.5-0.8-0.9-1.7-0.8-2.6c0-0.2,0.1-0.3,0.2-0.5c0.3-0.3,1.1-0.3,1.5,0c0.9,0.6,1,1.9,2.6,2c1.5,0.1,2.6-1.1,2.5-2.3c-0.1-1.1-1.1-2.1-1.9-3c-5.9-6.9-5.8-16.1-9.4-23.7c-0.1-0.3-0.3-0.6-0.6-0.8c-0.7-0.4-1.7,0-2,0.6c-0.3,0.6-0.2,1.2-0.1,1.8c0.8,5.2-0.5,10.5-1.8,15.7c-0.5,2-1,3.9-1.9,5.8c-1.2,2.4-3,4.7-4.3,7.1c-0.7,1.2-0.8,3,0.8,3.4c2.1,0.5,3.6-2,5.8-1.9c3.6,0.1,0.8,3.7,0.1,4.7c-1.6,2.4-4.2,4.6-4.3,7.4c0,0.4,0,0.8,0.3,1.1c1.9,2.2,4.6-1.3,5.4-2.2c0.4-0.4,1.2-0.7,1.7-0.4c0.5,0.3,0.5,0.8,0.5,1.3c-0.8,5.5-8.5,8.9-10.5,14.2c-0.3,0.7-0.4,1.4,0,2c0.9,1.4,3.9,1,5.5-0.1c1.1-0.8,1.7-1.8,2.8-2.6c1.1-0.8,3.1-1.2,2.6,0.6c-0.2,0.6-0.8,1.1-1.4,1.6c-1.7,1.4-3.3,2.7-5.1,4c-0.9,0.6-1.9,1.3-2.7,2c-0.9,0.9-1.4,2.1-1.9,3.2c-0.4,1-0.8,2.2,0.3,2.9c0.7,0.4,1.6,0.4,2.4,0.2c0.8-0.3,1.4-0.7,2-1.2c0.9-0.8,1.7-1.7,2.4-2.6c0.4-0.2,1,0,1.3,0.3c0.2,0.3,0.2,0.7,0.1,1.1c-0.6,3.1-2.6,4.5-5.6,6.4c-3.2,2.1-6.9,4.3-7.3,7.5c-0.1,0.7,0,1.5,0.7,2c0.1,0.1,0.2,0.1,0.3,0.2h-10.6c-1.2-1.1-2.5-2.1-3.6-3.1c-1.1-1.1-2.1-2.2-2.6-3.5c-0.1-0.3-0.7-1.5-0.4-1.8c0.6-0.7,1.6,0.2,1.9,0.6c0.5,0.6,1.1,1.3,1.7,1.9c0.5,0.5,1,0.9,1.6,1.2c0.7,0.3,1.5,0.4,2.2,0.2c0.9-0.3,1.4-1.1,1.4-1.9c0.1-1.2-0.6-2.3-1.5-3.3c-0.9-1-2-1.8-3.1-2.7c-0.8-0.6-1.6-1.3-2.3-2c-0.8-0.7-4.1-5.3-1.6-5.9c0.6-0.1,1.2,0.1,1.7,0.4s0.8,0.7,1.2,1.1c1,0.8,2.4,1.3,3.9,1.2c0.4,0,0.7-0.1,1-0.2c0.5-0.3,0.6-0.7,0.7-1.2c0-1.4-1-2.6-2.2-3.8c-1.3-1.2-2.1-2.5-3.2-3.8c-1.2-1.5-2.6-2.7-2.8-4.5c2.2-1.5,4.3,3.4,7.2,2.7c2-0.5,1-2.7-0.2-4c-2.7-3-4.5-6.3-5.5-9.8c-0.5-1.7-0.9-3.5-1.2-5.3c-0.1-0.7,0-4.5-2.2-3.5c-0.6,0.3-0.9,0.9-1,1.5c-0.9,2.9-1.7,5.9-2.8,8.8c-0.8,2.3-1.2,5.5-3.2,7.4c-1.1,1.1-2.4,1.9-2.3,3.4c0,0.1,0,0.2,0.1,0.3c0.1,0.2,0.4,0.2,0.6,0.3c2.3,0.6,3.9-0.7,5.4-1.8c0.2-0.1,0.4-0.3,0.7-0.4c0.3-0.1,0.6-0.1,0.8,0.1c0.5,0.4,0.1,1.5,0,2c-0.3,1.5-1.3,2.9-2.5,4.1c-1.9,2-4.5,3.6-6,5.8c-0.3,0.4-0.6,0.9-0.5,1.4c0.1,1,1.4,1.5,2.5,1.5c1.6,0.1,2.5-0.8,3-1.8c0.4-0.7,0.7-1.4,1.6-1.7c0.2-0.1,0.5-0.1,0.7,0c0.1,0.1,0.1,0.1,0.1,0.2c0.1,1.4-0.3,2.8-1.1,4.1c-0.8,1.3-2.1,2.2-3.6,3.2c-0.8,0.5-1.5,1.1-2.1,1.8c-0.4,0.5-0.6,1.1-0.5,1.6c0.1,0.6,0.6,1.1,1.3,1.3c1,0.3,2.1-0.1,2.8-0.7c0.4-0.3,2.5-2.8,3.2-1.8c0.3,0.3-0.3,1.7-0.4,2.1c-0.4,1.3-0.9,2.6-1.6,3.9c-0.1,0.1-0.2,0.3-0.2,0.4l-14.3-10.6H580.5c0.5-0.7,0.6-1.6,0.4-2.3c-0.9-2.9-4.1-4.9-6.4-7.1c-1.1-1.1-2.1-2.2-2.6-3.5c-0.1-0.3-0.7-1.5-0.4-1.8c0.6-0.7,1.6,0.2,1.9,0.6c0.5,0.6,1.1,1.3,1.7,1.9c0.5,0.5,1,0.9,1.6,1.2c0.7,0.3,1.5,0.4,2.2,0.2c0.9-0.3,1.4-1.1,1.4-1.9c0.1-1.2-0.6-2.3-1.5-3.3c-0.9-1-2-1.8-3.1-2.7c-0.8-0.6-1.6-1.3-2.3-2c-0.8-0.7-4.1-5.3-1.6-5.9c0.6-0.1,1.2,0.1,1.7,0.4c0.5,0.3,0.8,0.7,1.2,1.1c1,0.8,2.4,1.3,3.9,1.2c0.4,0,0.7-0.1,1-0.2c0.5-0.3,0.6-0.7,0.7-1.2c0-1.4-1-2.6-2.2-3.8c-1.3-1.2-2.1-2.5-3.2-3.8c-1.2-1.5-2.6-2.7-2.8-4.5c2.2-1.5,4.3,3.4,7.2,2.7c2-0.5,1-2.7-0.2-4c-2.7-3-4.5-6.3-5.5-9.8c-0.5-1.7-0.9-3.5-1.2-5.3c-0.1-0.7,0-4.5-2.2-3.5c-0.6,0.3-0.9,0.9-1,1.5c-0.9,2.9-1.7,5.9-2.8,8.8c-0.8,2.3-1.2,5.5-3.2,7.4c-1.1,1.1-2.4,1.9-2.3,3.4c0,0.1,0,0.2,0.1,0.3c0.1,0.2,0.4,0.2,0.6,0.3c2.3,0.6,3.9-0.7,5.4-1.8c0.2-0.1,0.4-0.3,0.7-0.4c0.3-0.1,0.6-0.1,0.8,0.1c0.5,0.4,0.1,1.5,0,2c-0.3,1.5-1.3,2.9-2.5,4.1c-1.9,2-4.5,3.6-6,5.8c-0.3,0.4-0.6,0.9-0.5,1.4c0.1,1,1.4,1.5,2.5,1.5c1.6,0.1,2.5-0.8,3-1.8c0.4-0.7,0.7-1.4,1.6-1.7c0.2-0.1,0.5-0.1,0.7,0c0.1,0.1,0.1,0.1,0.1,0.2c0.1,1.4-0.3,2.8-1.1,4.1c-0.8,1.3-2.1,2.2-3.6,3.2c-0.8,0.5-1.5,1.1-2.1,1.8c-0.4,0.5-0.6,1.1-0.5,1.6c0.1,0.6,0.6,1.1,1.3,1.3c1,0.3,2.1-0.1,2.8-0.7c0.4-0.3,2.5-2.8,3.2-1.8c0.3,0.3-0.3,1.7-0.4,2.1c-0.4,1.3-0.9,2.6-1.6,3.9c-1.4,2.6-3.5,4.9-6.1,6.9c-1.1,0.8-2.4,1.8-2.3,3c0,0.3,0.1,0.5,0.3,0.7h-30.4L493.1,478H352.4l-3,0.4c-1.3-2.3-3.9-4-5.9-5.9c-1.1-1.1-2.1-2.2-2.6-3.5c-0.1-0.3-0.7-1.5-0.4-1.8c0.6-0.7,1.6,0.2,1.9,0.6c0.5,0.6,1.1,1.3,1.7,1.9c0.5,0.5,1,0.9,1.6,1.2c0.7,0.3,1.5,0.4,2.2,0.2c0.9-0.3,1.4-1.1,1.4-1.9c0.1-1.2-0.6-2.3-1.5-3.3c-0.9-1-2-1.8-3.1-2.7c-0.8-0.6-1.6-1.3-2.3-2c-0.8-0.7-4.1-5.3-1.6-5.9c0.6-0.1,1.2,0.1,1.7,0.4c0.5,0.3,0.8,0.7,1.2,1.1c1,0.8,2.4,1.3,3.9,1.2c0.4,0,0.7-0.1,1-0.2c0.5-0.3,0.6-0.7,0.7-1.2c0-1.4-1-2.6-2.2-3.8c-1.3-1.2-2.1-2.5-3.2-3.8c-1.2-1.5-2.6-2.7-2.8-4.5c2.2-1.5,4.3,3.4,7.2,2.7c2-0.5,1-2.7-0.2-4c-2.7-3-4.5-6.3-5.5-9.8c-0.5-1.7-0.9-3.5-1.2-5.3c-0.1-0.7,0-4.5-2.2-3.5c-0.6,0.3-0.9,0.9-1,1.5c-0.9,2.9-1.7,5.9-2.8,8.8c-0.8,2.3-1.2,5.5-3.2,7.4c-1.1,1.1-2.4,1.9-2.3,3.4c0,0.1,0,0.2,0.1,0.3c0.1,0.2,0.4,0.2,0.6,0.3c2.3,0.6,3.9-0.7,5.4-1.8c0.2-0.1,0.4-0.3,0.7-0.4c0.3-0.1,0.6-0.1,0.8,0.1c0.5,0.4,0.1,1.5,0,2c-0.3,1.5-1.3,2.9-2.5,4.1c-1.9,2-4.5,3.6-6,5.8c-0.3,0.4-0.6,0.9-0.5,1.4c0.1,1,1.4,1.5,2.5,1.5c1.6,0.1,2.5-0.8,3-1.8c0.4-0.7,0.7-1.4,1.6-1.7c0.2-0.1,0.5-0.1,0.7,0c0.1,0.1,0.1,0.1,0.1,0.2c0.1,1.4-0.3,2.8-1.1,4.1c-0.8,1.3-2.1,2.2-3.6,3.2c-0.8,0.5-1.5,1.1-2.1,1.8c-0.4,0.5-0.6,1.1-0.5,1.6c0.1,0.6,0.6,1.1,1.3,1.3c1,0.3,2.1-0.1,2.8-0.7c0.4-0.3,2.5-2.8,3.2-1.8c0.3,0.3-0.3,1.7-0.4,2.1c-0.4,1.3-0.9,2.6-1.6,3.9c-1.4,2.6-3.5,4.9-6.1,6.9c-1.1,0.8-2.4,1.8-2.3,3c0,0.2,0.1,0.4,0.2,0.5l-69.3,9.8H0v192.6h1077V478H978.1z M335.5,480.2c0,0.1,0,0.1-0.1,0.2l-2,0.3c0.3-0.4,0.7-0.8,1.2-1c0.1-0.1,0.3-0.1,0.4-0.1C335.5,479.5,335.6,479.9,335.5,480.2z M566.5,489.7c-0.1,0.6-0.3,1.2-0.5,1.7h-2.5c0.7-0.8,1.1-1.7,2.2-2.3c0.1-0.1,0.3-0.1,0.4-0.1C566.6,489.1,566.6,489.5,566.5,489.7z M573.2,491.5c-0.4-0.8-0.5-1.6-0.3-2.4c1.6,0.1,2.5,1.5,3.6,2.4H573.2z M727.3,506.1H722c1.3-0.5,2.5-1.4,3.2-2.3c1.5-1.8,4.3-4,6.6-2.7C731.6,503.1,729.5,504.8,727.3,506.1z M887.9,491.1c0-0.1-0.1-0.3-0.1-0.4c0.1,0.1,0.3,0.2,0.4,0.3L887.9,491.1z M959,478h-5.1c0.8-0.5,1.5-1.1,2-1.7c1.5-1.8,4.3-4,6.6-2.7C962.4,475.3,960.8,476.8,959,478z M971.6,478c-0.4-0.8-0.7-1.7-0.8-2.6c1.6,1,3.2,2,5.2,2.4c0.3,0.1,0.7,0.1,1,0.1H971.6z"/></svg>