<?xml version="1.0" encoding="utf-8"?><svg version="1.1" id="layer-7" xmlns="http://www.w3.org/2000/svg" xmlns:xlink="http://www.w3.org/1999/xlink" x="0px" y="0px" viewBox="0 0 1077 683" style="enable-background:new 0 0 1077 683;" xml:space="preserve"><style type="text/css">.st0{fill:#510130;}</style><path id="XMLID_39_" class="st0" d="M1044.2,569.1c-0.8-1.1-1.2-2.2-0.9-3.5c2.5,0.2,3.2,3.4,5.7,3.3c1.9,0,2.6-1.9,2.2-3.2c-0.9-2.9-4.1-4.9-6.4-7.1c-1.1-1.1-2.1-2.2-2.6-3.5c-0.1-0.3-0.7-1.5-0.4-1.8c0.6-0.7,1.6,0.2,1.9,0.6c0.5,0.6,1.1,1.3,1.7,1.9c0.5,0.5,1,0.9,1.6,1.2c0.7,0.3,1.5,0.4,2.2,0.2c0.9-0.3,1.4-1.1,1.4-1.9c0.1-1.2-0.6-2.3-1.5-3.3c-0.9-1-2-1.8-3.1-2.7c-0.8-0.6-1.6-1.3-2.3-2c-0.8-0.7-4.1-5.3-1.6-5.9c0.6-0.1,1.2,0.1,1.7,0.4c0.5,0.3,0.8,0.7,1.2,1.1c1,0.8,2.4,1.3,3.9,1.2c0.4,0,0.7-0.1,1-0.2c0.5-0.3,0.6-0.7,0.7-1.2c0-1.4-1-2.6-2.2-3.8c-1.3-1.2-2.1-2.5-3.2-3.8c-1.2-1.5-2.6-2.7-2.8-4.5c2.2-1.5,4.3,3.4,7.2,2.7c2-0.5,1-2.7-0.2-4c-2.7-3-4.5-6.3-5.5-9.8c-0.5-1.7-0.9-3.5-1.2-5.3c-0.1-0.7,0-4.5-2.2-3.5c-0.6,0.3-0.9,0.9-1,1.5c-0.9,2.9-1.7,5.9-2.8,8.8c-0.8,2.3-1.2,5.5-3.2,7.4c-1.1,1.1-2.4,1.9-2.3,3.4c0,0.1,0,0.2,0.1,0.3c0.1,0.2,0.4,0.2,0.6,0.3c2.3,0.6,3.9-0.7,5.4-1.8c0.2-0.1,0.4-0.3,0.7-0.4c0.3-0.1,0.6-0.1,0.8,0.1c0.5,0.4,0.1,1.5,0,2c-0.3,1.5-1.3,2.9-2.5,4.1c-1.9,2-4.5,3.6-6,5.8c-0.3,0.4-0.6,0.9-0.5,1.4c0.1,1,1.4,1.5,2.5,1.5c1.6,0.1,2.5-0.8,3-1.8c0.4-0.7,0.7-1.4,1.6-1.7c0.2-0.1,0.5-0.1,0.7,0c0.1,0.1,0.1,0.1,0.1,0.2c0.1,1.4-0.3,2.8-1.1,4.1c-0.8,1.3-2.1,2.2-3.6,3.2c-0.8,0.5-1.5,1.1-2.1,1.8c-0.4,0.5-0.6,1.1-0.5,1.6c0.1,0.6,0.6,1.1,1.3,1.3c1,0.3,2.1-0.1,2.8-0.7c0.4-0.3,2.5-2.8,3.2-1.8c0.3,0.3-0.3,1.7-0.4,2.1c-0.4,1.3-0.9,2.6-1.6,3.9c-1.4,2.6-3.5,4.9-6.1,6.9c-1.1,0.8-2.4,1.8-2.3,3c0,0.1,0,0.2,0.1,0.3l-374.3-33.9c-3-2.3-5.1-5.2-6.2-8.3c1.4,1.4,3.1,2.6,5,3.6c1.3,0.7,2.8,0.6,3.3-0.7c0.2-0.6,0.2-1.1,0.1-1.7c-0.2-1.2-0.5-2.5-1.1-3.6c-1.2-2-3.4-3.4-5.3-5.1c-1.9-1.6-3.4-3.8-2.8-5.9c0.1-0.3,0.3-0.7,0.7-0.8c0.7-0.2,1.4,0.2,1.8,0.6c0.8,1,0.8,1.8,2.6,1.4c1.2-0.3,2.1-1.4,2-2.3c0-0.8-0.6-1.5-1.1-2.1c-2.7-3.5-8.1-6.6-7.2-11.1c0.1-0.3,0.2-0.7,0.5-0.9c0.8-0.5,2,0.2,2.6,0.8c0.6,0.7,1.5,1.5,2.5,1.2c1-0.3,1-1.3,0.7-2c-1.2-3.4-4-6.3-5.9-9.4c-0.5-0.8-0.9-1.7-0.8-2.6c0-0.2,0.1-0.3,0.2-0.5c0.3-0.3,1.1-0.3,1.5,0c0.9,0.6,1,1.9,2.6,2c1.5,0.1,2.6-1.1,2.5-2.3c-0.1-1.1-1.1-2.1-1.9-3c-5.9-6.9-5.8-16.1-9.4-23.7c-0.1-0.3-0.3-0.6-0.6-0.8c-0.7-0.4-1.7,0-2,0.6c-0.3,0.6-0.2,1.2-0.1,1.8c0.8,5.2-0.5,10.5-1.8,15.7c-0.5,2-1,3.9-1.9,5.8c-1.2,2.4-3,4.7-4.3,7.1c-0.7,1.2-0.8,3,0.8,3.4c2.1,0.5,3.6-2,5.8-1.9c3.6,0.1,0.8,3.7,0.1,4.7c-1.6,2.4-4.2,4.6-4.3,7.4c0,0.4,0,0.8,0.3,1.1c1.9,2.2,4.6-1.3,5.4-2.2c0.4-0.4,1.2-0.7,1.7-0.4c0.5,0.3,0.5,0.8,0.5,1.3c-0.8,5.5-8.5,8.9-10.5,14.2c-0.3,0.7-0.4,1.4,0,2c0.9,1.4,3.9,1,5.5-0.1c1.1-0.8,1.7-1.8,2.8-2.6c1.1-0.8,3.1-1.2,2.6,0.6c-0.2,0.6-0.8,1.1-1.4,1.6c-1.7,1.4-3.3,2.7-5.1,4c-0.9,0.6-1.9,1.3-2.7,2c-0.9,0.9-1.4,2.1-1.9,3.2c-0.4,1-0.8,2.2,0.3,2.9c0.7,0.4,1.6,0.4,2.4,0.2c0.8-0.3,1.4-0.7,2-1.2c0.9-0.8,1.7-1.7,2.4-2.6c0.4-0.2,1,0,1.3,0.3c0.2,0.3,0.2,0.7,0.1,1.1c-0.5,2.5-1.9,3.9-4,5.3l-80.3-7.3l-42.6-12.2c-0.2-0.9-0.7-1.8-1.4-2.5c-0.9-1-2-1.8-3.1-2.7c-0.8-0.6-1.6-1.3-2.3-2c-0.8-0.7-4.1-5.3-1.6-5.9c0.6-0.1,1.2,0.1,1.7,0.4c0.5,0.3,0.8,0.7,1.2,1.1c1,0.8,2.4,1.3,3.9,1.2c0.4,0,0.7-0.1,1-0.2c0.5-0.3,0.6-0.7,0.7-1.2c0-1.4-1-2.6-2.2-3.8c-1.3-1.2-2.1-2.5-3.2-3.8c-1.2-1.5-2.6-2.7-2.8-4.5c2.2-1.5,4.3,3.4,7.2,2.7c2-0.5,1-2.7-0.2-4c-2.7-3-4.5-6.3-5.5-9.8c-0.5-1.7-0.9-3.5-1.2-5.3c-0.1-0.7,0-4.5-2.2-3.5c-0.6,0.3-0.9,0.9-1,1.5c-0.9,2.9-1.7,5.9-2.8,8.8c-0.8,2.3-1.2,5.5-3.2,7.4c-1.1,1.1-2.4,1.9-2.3,3.4c0,0.1,0,0.2,0.1,0.3c0.1,0.2,0.4,0.2,0.6,0.3c2.3,0.6,3.9-0.7,5.4-1.8c0.2-0.1,0.4-0.3,0.7-0.4c0.3-0.1,0.6-0.1,0.8,0.1c0.5,0.4,0.1,1.5,0,2c-0.3,1.5-1.3,2.9-2.5,4.1c-1.9,2-4.5,3.6-6,5.8c-0.3,0.4-0.6,0.9-0.5,1.4c0.1,1,1.4,1.5,2.5,1.5c1.6,0.1,2.5-0.8,3-1.8c0.4-0.7,0.7-1.4,1.6-1.7c0.2-0.1,0.5-0.1,0.7,0c0.1,0.1,0.1,0.1,0.1,0.2c0.1,1.4-0.3,2.8-1.1,4.1c-0.8,1.3-2.1,2.2-3.6,3.2c-0.1,0.1-0.2,0.1-0.3,0.2l-19.2-5.5c-0.6-1.6-2.7-3.2-4.4-4.5c-3.1-2.4-5.4-5.4-6.6-8.6c1.4,1.4,3.1,2.6,5,3.6c1.3,0.7,2.8,0.6,3.3-0.7c0.2-0.6,0.2-1.1,0.1-1.7c-0.2-1.2-0.5-2.5-1.1-3.6c-1.2-2-3.4-3.4-5.3-5.1c-1.9-1.6-3.4-3.8-2.8-5.9c0.1-0.3,0.3-0.7,0.7-0.8c0.7-0.2,1.4,0.2,1.8,0.6c0.8,1,0.8,1.8,2.6,1.4c1.2-0.3,2.1-1.4,2-2.3c0-0.8-0.6-1.5-1.1-2.1c-2.7-3.5-8.1-6.6-7.2-11.1c0.1-0.3,0.2-0.7,0.5-0.9c0.8-0.5,2,0.2,2.6,0.8s1.5,1.5,2.5,1.2c1-0.3,1-1.3,0.7-2c-1.2-3.4-4-6.3-5.9-9.4c-0.5-0.8-0.9-1.7-0.8-2.6c0-0.2,0.1-0.3,0.2-0.5c0.3-0.3,1.1-0.3,1.5,0c0.9,0.6,1,1.9,2.6,2c1.5,0.1,2.6-1.1,2.5-2.3c-0.1-1.1-1.1-2.1-1.9-3c-5.9-6.9-5.8-16.1-9.4-23.7c-0.1-0.3-0.3-0.6-0.6-0.8c-0.7-0.4-1.7,0-2,0.6c-0.3,0.6-0.2,1.2-0.1,1.8c0.8,5.2-0.5,10.5-1.8,15.7c-0.5,2-1,3.9-1.9,5.8c-1.2,2.4-3,4.7-4.3,7.1c-0.7,1.2-0.8,3,0.8,3.4c2.1,0.5,3.6-2,5.8-1.9c3.6,0.1,0.8,3.7,0.1,4.7c-1.6,2.4-4.2,4.6-4.3,7.4c0,0.4,0,0.8,0.3,1.1c1.9,2.2,4.6-1.3,5.4-2.2c0.4-0.4,1.2-0.7,1.7-0.4c0.5,0.3,0.5,0.8,0.5,1.3c-0.8,5.5-8.5,8.9-10.5,14.2c-0.3,0.7-0.4,1.4,0,2c0.9,1.4,3.9,1,5.5-0.1c1.1-0.8,1.7-1.8,2.8-2.6c1.1-0.8,3.1-1.2,2.6,0.6c-0.2,0.6-0.8,1.1-1.4,1.6c-1.7,1.4-3.3,2.7-5.1,4c-0.9,0.6-1.9,1.3-2.7,2c-0.9,0.9-1.4,2.1-1.9,3.2c-0.4,1-0.8,2.2,0.3,2.9c0.7,0.4,1.6,0.4,2.4,0.2c0.8-0.3,1.4-0.7,2-1.2c0.9-0.8,1.7-1.7,2.4-2.6c0.4-0.2,1,0,1.3,0.3c0.2,0.3,0.2,0.7,0.1,1.1c-0.5,2.3-1.7,3.7-3.6,5.1l-12.3-3.5h-13.5c-0.9-2-2.4-3.8-4.2-5.4c-1.7-1.5-4.6-3.1-3.7-5.3c0.1-0.3,0.3-0.6,0.6-0.7c0.5-0.3,1.3-0.3,1.9,0s1,0.6,1.5,1c0.6,0.6,3.3,3.8,4.5,2c0.2-0.2,0.2-0.5,0.1-0.8c-0.2-2.5-1.3-5-3.3-7.1c-1.8-1.9-4.2-3.5-5.4-5.7c-0.7-1.3-0.8-3.6,1.6-3.6c2,0,3.5,1.7,5,2.4c1.2,0.5,3.2,0.4,3.6-0.6c0.2-0.4,0-0.8-0.2-1.2c-1-2.3-2.6-4.6-5-6.3c-2.2-1.6-4.1-2.6-5.3-4.9c-0.5-0.9-0.7-2.1,0.3-2.6c0.8-0.4,1.9-0.1,2.7,0.4c0.7,0.5,1.2,1.1,2,1.6c0.7,0.5,1.9,0.8,2.7,0.4c0.7-0.3,0.9-1,0.8-1.5c-0.1-0.6-0.5-1.1-1-1.6c-1.3-1.6-2.8-3.1-4.1-4.8c-1-1.2-2.8-2.8-3.1-4.2c-0.1-0.5,0-1.1,0.7-1.4c0.4-0.2,1,0,1.4,0.2c0.4,0.2,0.7,0.5,1,0.8c0.7,0.5,1.7,0.9,2.7,1c0.7,0.1,1.4,0,1.9-0.4c0.4-0.3,0.4-0.7,0.4-1.2c-0.2-1.7-2-3-3.7-4.1c-1-0.7-6.3-5.5-3.9-6.5c1.9-0.8,4.4,3.6,6.3,1.8c0.5-0.5,0.5-1.2,0.2-1.8c-0.3-0.7-0.9-1.3-1.6-1.7c-0.9-0.6-2-0.9-3-1.3c-1.3-0.6-4.5-3.8-2.1-4.6c1.8-0.6,3.1,1.4,4.4,1.9c0.4,0.2,1.1,0.2,1.4,0c0,0,0,0,0.1-0.1c0.1-0.1,0.1-0.3,0.1-0.4c0.2-2.1-1.3-4-2.8-5.8c-1.5-1.8-3.3-3.5-3.7-5.6c-0.1-0.4-0.1-0.7,0.1-1c0.2-0.3,0.7-0.6,1.1-0.5c0.8,0.1,0.3,1.2,1,1.6c0.6,0.4,1.7,0.3,2.4,0c1-0.5,1.3-1.6,0.9-2.5c-0.3-0.9-1.1-1.6-1.9-2.4c-2.3-2.4-3.8-5.2-4.6-8c-0.8-2.8-0.2-5.5-0.2-8.3c0-0.7,0.2-4.5-1.5-4.4c-1.6,0.1-1.7,3.3-1.8,4.1c-0.5,6.3-1.3,13.1-6.7,18c-0.7,0.6-1.5,1.3-1.7,2.1c-0.1,0.8,0.5,1.6,1.4,2c1,0.4,2.2,0.2,3-0.4c0.5-0.4,1.1-1.4,2-0.7c0.4,0.3,0.5,0.7,0.5,1.1c0.2,2.6-1.4,5.1-3.3,7.3c-1.9,2.2-4,4.3-5.1,6.8c-0.3,0.8-0.6,1.6-0.3,2.4c0.3,0.8,1.2,1.5,2.3,1.6c1.8,0.1,2.1-1.2,3.5-1.7c0.7-0.3,1.6-0.3,2.1,0.2c0.3,0.3,0.4,0.7,0.4,1.1c-0.1,1.9-2.5,3.3-4.3,4.7c-2.2,1.6-3.9,3.6-4.9,5.7c-0.3,0.6-0.6,1.3-0.5,1.9c0,0.7,0.4,1.3,1.2,1.7c1.1,0.6,2.8,0.2,3.8-0.5c1-0.7,1.6-1.7,2.3-2.6c0.4-0.5,0.9-1,1.7-1.2c3.1-0.5,0.9,3.4,0.2,4c-3.7,3.6-8.8,7.1-8.4,11.5c0.1,0.7,0.4,1.5,1.2,1.8c1.3,0.4,2.6-0.5,3.4-1.4c0.5-0.5,4-5.9,4.5-3.1c0.4,2.6-2.3,3.9-4.2,5.6c-2.2,2-3.9,4.3-4.9,6.8c-0.4,1.1-0.5,2.5,0.9,2.9c2.1,0.6,2.9-1.5,4.1-2.2c1.3-0.8,3.2-0.4,3.6,0.9c0.2,0.8-0.2,1.6-0.7,2.3c-2.3,2.9-6.9,4.7-8.5,7.9c-0.4,0.9-0.5,2,0.5,2.6c1.7,0.9,3.3-0.7,4.4-1.4c0.4-0.2,0.8-0.5,1.3-0.5c0.5,0,1,0.4,1.1,0.7c0.1,0.4,0,0.8-0.1,1.2c-1.4,3.3-5.2,4.7-7.9,7.3c-0.9,0.9-1.5,1.8-1.9,2.8h-58.7l-86.7-20.9h-5c-1.6-1.5-2.7-3.2-2.3-5c2.5,0.2,3.2,3.4,5.7,3.3c1.9,0,2.6-1.9,2.2-3.2c-0.9-2.9-4.1-4.9-6.4-7.1c-1.1-1.1-2.1-2.2-2.6-3.5c-0.1-0.3-0.7-1.5-0.4-1.8c0.6-0.7,1.6,0.2,1.9,0.6c0.5,0.6,1.1,1.3,1.7,1.9c0.5,0.5,1,0.9,1.6,1.2c0.7,0.3,1.5,0.4,2.2,0.2c0.9-0.3,1.4-1.1,1.4-1.9c0.1-1.2-0.6-2.3-1.5-3.3c-0.9-1-2-1.8-3.1-2.7c-0.8-0.6-1.6-1.3-2.3-2c-0.8-0.7-4.1-5.3-1.6-5.9c0.6-0.1,1.2,0.1,1.7,0.4c0.5,0.3,0.8,0.7,1.2,1.1c1,0.8,2.4,1.3,3.9,1.2c0.4,0,0.7-0.1,1-0.2c0.5-0.3,0.6-0.7,0.7-1.2c0-1.4-1-2.6-2.2-3.8c-1.3-1.2-2.1-2.5-3.2-3.8c-1.2-1.5-2.6-2.7-2.8-4.5c2.2-1.5,4.3,3.4,7.2,2.7c2-0.5,1-2.7-0.2-4c-2.7-3-4.5-6.3-5.5-9.8c-0.5-1.7-0.9-3.5-1.2-5.3c-0.1-0.7,0-4.5-2.2-3.5c-0.6,0.3-0.9,0.9-1,1.5c-0.9,2.9-1.7,5.9-2.8,8.8c-0.8,2.3-1.2,5.5-3.2,7.4c-1.1,1.1-2.4,1.9-2.3,3.4c0,0.1,0,0.2,0.1,0.3c0.1,0.2,0.4,0.2,0.6,0.3c2.3,0.6,3.9-0.7,5.4-1.8c0.2-0.1,0.4-0.3,0.7-0.4c0.3-0.1,0.6-0.1,0.8,0.1c0.5,0.4,0.1,1.5,0,2c-0.3,1.5-1.3,2.9-2.5,4.1c-1.9,2-4.5,3.6-6,5.8c-0.3,0.4-0.6,0.9-0.5,1.4c0.1,1,1.4,1.5,2.5,1.5c1.6,0.1,2.5-0.8,3-1.8c0.4-0.7,0.7-1.4,1.6-1.7c0.2-0.1,0.5-0.1,0.7,0c0.1,0.1,0.1,0.1,0.1,0.2c0.1,1.4-0.3,2.8-1.1,4.1c-0.8,1.3-2.1,2.2-3.6,3.2c-0.8,0.5-1.5,1.1-2.1,1.8c-0.4,0.5-0.6,1.1-0.5,1.6c0.1,0.6,0.6,1.1,1.3,1.3c1,0.3,2.1-0.1,2.8-0.7c0.4-0.3,2.5-2.8,3.2-1.8c0.3,0.3-0.3,1.7-0.4,2.1c-0.4,1.3-0.9,2.6-1.6,3.9c-1.4,2.6-3.5,4.9-6.1,6.9c-1.1,0.8-2.4,1.8-2.3,3c0.1,1.6,2.8,2.3,4.6,1.9c2.5-0.5,2.4-2.5,4.3-3.5c0.1-0.1,0.3-0.1,0.4-0.1c0.4,0,0.4,0.4,0.4,0.7c-0.3,1.5-1,3-1.8,4.3H222c0-0.2,0-0.4,0-0.6c-0.4-2.2-1.8-4.3-3.8-5.8c-1.1-0.8-2.4-1.5-3.5-2.4c-0.7-0.6-3.7-4.3-0.6-4.2c0.4,0,0.7,0.2,1,0.4c0.7,0.5,1.2,1.2,1.9,1.7s1.8,0.9,2.7,0.6c1.3-0.4,1.2-1.8,0.8-2.8c-0.9-2.1-2.4-3.9-4.3-5.6c-1.7-1.5-4.6-3.1-3.7-5.3c0.1-0.3,0.3-0.6,0.6-0.7c0.5-0.3,1.3-0.3,1.9,0c0.6,0.2,1,0.6,1.5,1c0.6,0.6,3.3,3.8,4.5,2c0.2-0.2,0.2-0.5,0.1-0.8c-0.2-2.5-1.3-5-3.3-7.1c-1.8-1.9-4.2-3.5-5.4-5.7c-0.7-1.3-0.8-3.6,1.6-3.6c2,0,3.5,1.7,5,2.4c1.2,0.5,3.2,0.4,3.6-0.6c0.2-0.4,0-0.8-0.2-1.2c-1-2.3-2.6-4.6-5-6.3c-2.2-1.6-4.1-2.6-5.3-4.9c-0.5-0.9-0.7-2.1,0.3-2.6c0.8-0.4,1.9-0.1,2.7,0.4c0.7,0.5,1.2,1.1,2,1.6c0.7,0.5,1.9,0.8,2.7,0.4c0.7-0.3,0.9-1,0.8-1.5c-0.1-0.6-0.5-1.1-1-1.6c-1.3-1.6-2.8-3.1-4.1-4.8c-1-1.2-2.8-2.8-3.1-4.2c-0.1-0.5,0-1.1,0.7-1.4c0.4-0.2,1,0,1.4,0.2c0.4,0.2,0.7,0.5,1,0.8c0.7,0.5,1.7,0.9,2.7,1c0.7,0.1,1.4,0,1.9-0.4c0.4-0.3,0.4-0.7,0.4-1.2c-0.2-1.7-2-3-3.7-4.1c-1-0.7-6.3-5.5-3.9-6.5c1.9-0.8,4.4,3.6,6.3,1.8c0.5-0.5,0.5-1.2,0.2-1.8c-0.3-0.7-0.9-1.3-1.6-1.7c-0.9-0.6-2-0.9-3-1.3c-1.3-0.6-4.5-3.8-2.1-4.6c1.8-0.6,3.1,1.4,4.4,1.9c0.4,0.2,1.1,0.2,1.4,0c0,0,0,0,0.1-0.1c0.1-0.1,0.1-0.3,0.1-0.4c0.2-2.1-1.3-4-2.8-5.8c-1.5-1.8-3.3-3.5-3.7-5.6c-0.1-0.4-0.1-0.7,0.1-1c0.2-0.3,0.7-0.6,1.1-0.5c0.8,0.1,0.3,1.2,1,1.6c0.6,0.4,1.7,0.3,2.4,0c1-0.5,1.3-1.6,0.9-2.5c-0.3-0.9-1.1-1.6-1.9-2.4c-2.3-2.4-3.8-5.2-4.6-8c-0.8-2.8-0.2-5.5-0.2-8.3c0-0.7,0.2-4.5-1.5-4.4c-1.6,0.1-1.7,3.3-1.8,4.1c-0.5,6.3-1.3,13.1-6.7,18c-0.7,0.6-1.5,1.3-1.7,2.1c-0.1,0.8,0.5,1.6,1.4,2c1,0.4,2.2,0.2,3-0.4c0.5-0.4,1.1-1.4,2-0.7c0.4,0.3,0.5,0.7,0.5,1.1c0.2,2.6-1.4,5.1-3.3,7.3c-1.9,2.2-4,4.3-5.1,6.8c-0.3,0.8-0.6,1.6-0.3,2.4c0.3,0.8,1.2,1.5,2.3,1.6c1.8,0.1,2.1-1.2,3.5-1.7c0.7-0.3,1.6-0.3,2.1,0.2c0.3,0.3,0.4,0.7,0.4,1.1c-0.1,1.9-2.5,3.3-4.3,4.7c-2.2,1.6-3.9,3.6-4.9,5.7c-0.3,0.6-0.6,1.3-0.5,1.9c0,0.7,0.4,1.3,1.2,1.7c1.1,0.6,2.8,0.2,3.8-0.5c1-0.7,1.6-1.7,2.3-2.6c0.4-0.5,0.9-1,1.7-1.2c3.1-0.5,0.9,3.4,0.2,4c-3.7,3.6-8.8,7.1-8.4,11.5c0.1,0.7,0.4,1.5,1.2,1.8c1.3,0.4,2.6-0.5,3.4-1.4c0.5-0.5,4-5.9,4.5-3.1c0.4,2.6-2.3,3.9-4.2,5.6c-2.2,2-3.9,4.3-4.9,6.8c-0.4,1.1-0.5,2.5,0.9,2.9c2.1,0.6,2.9-1.5,4.1-2.2c1.3-0.8,3.2-0.4,3.6,0.9c0.2,0.8-0.2,1.6-0.7,2.3c-2.3,2.9-6.9,4.7-8.5,7.9c-0.4,0.9-0.5,2,0.5,2.6c1.7,0.9,3.3-0.7,4.4-1.4c0.4-0.2,0.8-0.5,1.3-0.5c0.5,0,1,0.4,1.1,0.7c0.1,0.4,0,0.8-0.1,1.2c-1.4,3.3-5.2,4.7-7.9,7.3c-1.2,1.1-1.9,2.5-2.2,3.9c-0.2,0.7-0.2,1.4,0.2,2.1c0.4,0.6,1.2,1.2,2.1,1.2c1.2,0,2-0.9,2.5-1.7c0.4-0.8,0.7-1.7,1.5-2.4c1-0.8,3.2-0.7,3.4,0.6c0.1,1-2,2.3-2.7,3.1c-2.6,3.1-5.2,6.2-7.6,9.4h-78.1c-0.1-1.8-2.6-3.7-4.5-5.2c-3.1-2.4-5.4-5.4-6.6-8.6c1.4,1.4,3.1,2.6,5,3.6c1.3,0.7,2.8,0.6,3.3-0.7c0.2-0.6,0.2-1.1,0.1-1.7c-0.2-1.2-0.5-2.5-1.1-3.6c-1.2-2-3.4-3.4-5.3-5.1s-3.4-3.8-2.8-5.9c0.1-0.3,0.3-0.7,0.7-0.8c0.7-0.2,1.4,0.2,1.8,0.6c0.8,1,0.8,1.8,2.6,1.4c1.2-0.3,2.1-1.4,2-2.3c0-0.8-0.6-1.5-1.1-2.1c-2.7-3.5-8.1-6.6-7.2-11.1c0.1-0.3,0.2-0.7,0.5-0.9c0.8-0.5,2,0.2,2.6,0.8c0.6,0.7,1.5,1.5,2.5,1.2c1-0.3,1-1.3,0.7-2c-1.2-3.4-4-6.3-5.9-9.4c-0.5-0.8-0.9-1.7-0.8-2.6c0-0.2,0.1-0.3,0.2-0.5c0.3-0.3,1.1-0.3,1.5,0c0.9,0.6,1,1.9,2.6,2c1.5,0.1,2.6-1.1,2.5-2.3c-0.1-1.1-1.1-2.1-1.9-3c-5.9-6.9-5.8-16.1-9.4-23.7c-0.1-0.3-0.3-0.6-0.6-0.8c-0.7-0.4-1.7,0-2,0.6c-0.3,0.6-0.2,1.2-0.1,1.8c0.8,5.2-0.5,10.5-1.8,15.7c-0.5,2-1,3.9-1.9,5.8c-1.2,2.4-3,4.7-4.3,7.1c-0.7,1.2-0.8,3,0.8,3.4c2.1,0.5,3.6-2,5.8-1.9c3.6,0.1,0.8,3.7,0.1,4.7c-1.6,2.4-4.2,4.6-4.3,7.4c0,0.4,0,0.8,0.3,1.1c1.9,2.2,4.6-1.3,5.4-2.2c0.4-0.4,1.2-0.7,1.7-0.4c0.5,0.3,0.5,0.8,0.5,1.3c-0.8,5.5-8.5,8.9-10.5,14.2c-0.3,0.7-0.4,1.4,0,2c0.9,1.4,3.9,1,5.5-0.1c1.1-0.8,1.7-1.8,2.8-2.6c1.1-0.8,3.1-1.2,2.6,0.6c-0.2,0.6-0.8,1.1-1.4,1.6c-1.7,1.4-3.3,2.7-5.1,4c-0.9,0.6-1.9,1.3-2.7,2c-0.9,0.9-1.4,2.1-1.9,3.2c-0.4,1-0.8,2.2,0.3,2.9c0.7,0.4,1.6,0.4,2.4,0.2s1.4-0.7,2-1.2c0.9-0.8,1.7-1.7,2.4-2.6c0.4-0.2,1,0,1.3,0.3c0.2,0.3,0.2,0.7,0.1,1.1c-0.6,3.1-2.6,4.5-5.6,6.4c-2.7,1.8-5.8,3.7-6.9,6.2h-9.1c-0.2-0.3-0.5-0.5-0.8-0.7c-2.4-2.1-5.4-4.5-4.8-7.3c2.5,0.2,3.2,3.4,5.7,3.3c1.9,0,2.6-1.9,2.2-3.2c-0.9-2.9-4.1-4.9-6.4-7.1c-1.1-1.1-2.1-2.2-2.6-3.5c-0.1-0.3-0.7-1.5-0.4-1.8c0.6-0.7,1.6,0.2,1.9,0.6c0.5,0.6,1.1,1.3,1.7,1.9c0.5,0.5,1,0.9,1.6,1.2c0.7,0.3,1.5,0.4,2.2,0.2c0.9-0.3,1.4-1.1,1.4-1.9c0.1-1.2-0.6-2.3-1.5-3.3c-0.9-1-2-1.8-3.1-2.7c-0.8-0.6-1.6-1.3-2.3-2c-0.8-0.7-4.1-5.3-1.6-5.9c0.6-0.1,1.2,0.1,1.7,0.4c0.5,0.3,0.8,0.7,1.2,1.1c1,0.8,2.4,1.3,3.9,1.2c0.4,0,0.7-0.1,1-0.2c0.5-0.3,0.6-0.7,0.7-1.2c0-1.4-1-2.6-2.2-3.8c-1.3-1.2-2.1-2.5-3.2-3.8c-1.2-1.5-2.6-2.7-2.8-4.5c2.2-1.5,4.3,3.4,7.2,2.7c2-0.5,1-2.7-0.2-4c-2.7-3-4.5-6.3-5.5-9.8c-0.5-1.7-0.9-3.5-1.2-5.3c-0.1-0.7,0-4.5-2.2-3.5c-0.6,0.3-0.9,0.9-1,1.5c-0.9,2.9-1.7,5.9-2.8,8.8c-0.8,2.3-1.2,5.5-3.2,7.4c-1.1,1.1-2.4,1.9-2.3,3.4c0,0.1,0,0.2,0.1,0.3c0.1,0.2,0.4,0.2,0.6,0.3c2.3,0.6,3.9-0.7,5.4-1.8c0.2-0.1,0.4-0.3,0.7-0.4c0.3-0.1,0.6-0.1,0.8,0.1c0.5,0.4,0.1,1.5,0,2c-0.3,1.5-1.3,2.9-2.5,4.1c-1.9,2-4.5,3.6-6,5.8c-0.3,0.4-0.6,0.9-0.5,1.4c0.1,1,1.4,1.5,2.5,1.5c1.6,0.1,2.5-0.8,3-1.8c0.4-0.7,0.7-1.4,1.6-1.7c0.2-0.1,0.5-0.1,0.7,0c0.1,0.1,0.1,0.1,0.1,0.2c0.1,1.4-0.3,2.8-1.1,4.1c-0.8,1.3-2.1,2.2-3.6,3.2c-0.8,0.5-1.5,1.1-2.1,1.8c-0.4,0.5-0.6,1.1-0.5,1.6c0.1,0.6,0.6,1.1,1.3,1.3c1,0.3,2.1-0.1,2.8-0.7c0.4-0.3,2.5-2.8,3.2-1.8c0.3,0.3-0.3,1.7-0.4,2.1c-0.4,1.3-0.9,2.6-1.6,3.9c-1.4,2.6-3.5,4.9-6.1,6.9c-1.1,0.8-2.4,1.8-2.3,3c0.1,1.6,2.8,2.3,4.6,1.9c2.5-0.5,2.4-2.5,4.3-3.5c0.1-0.1,0.3-0.1,0.4-0.1c0.4,0,0.4,0.4,0.4,0.7c-0.6,2.6-2,5.1-4,7.3H43c0.4-0.4,0.6-0.9,0.7-1.4c0.1-1.2-0.6-2.3-1.5-3.3c-0.9-1-2-1.8-3.1-2.7c-0.8-0.6-1.6-1.3-2.3-2c-0.8-0.7-4.1-5.3-1.6-5.9c0.6-0.1,1.2,0.1,1.7,0.4c0.5,0.3,0.8,0.7,1.2,1.1c1,0.8,2.4,1.3,3.9,1.2c0.4,0,0.7-0.1,1-0.2c0.5-0.3,0.6-0.7,0.7-1.2c0-1.4-1-2.6-2.2-3.8c-1.3-1.2-2.1-2.5-3.2-3.8c-1.2-1.5-2.6-2.7-2.8-4.5c2.2-1.5,4.3,3.4,7.2,2.7c2-0.5,1-2.7-0.2-4c-2.7-3-4.5-6.3-5.5-9.8c-0.5-1.7-0.9-3.5-1.2-5.3c-0.1-0.7,0-4.5-2.2-3.5c-0.6,0.3-0.9,0.9-1,1.5c-0.9,2.9-1.7,5.9-2.8,8.8c-0.8,2.3-1.2,5.5-3.2,7.4c-1.1,1.1-2.4,1.9-2.3,3.4c0,0.1,0,0.2,0.1,0.3c0.1,0.2,0.4,0.2,0.6,0.3c2.3,0.6,3.9-0.7,5.4-1.8c0.2-0.1,0.4-0.3,0.7-0.4c0.3-0.1,0.6-0.1,0.8,0.1c0.5,0.4,0.1,1.5,0,2c-0.3,1.5-1.3,2.9-2.5,4.1c-1.9,2-4.5,3.6-6,5.8c-0.3,0.4-0.6,0.9-0.5,1.4c0.1,1,1.4,1.5,2.5,1.5c1.6,0.1,2.5-0.8,3-1.8c0.4-0.7,0.7-1.4,1.6-1.7c0.2-0.1,0.5-0.1,0.7,0c0.1,0.1,0.1,0.1,0.1,0.2c0.1,1.4-0.3,2.8-1.1,4.1c-0.8,1.3-2.1,2.2-3.6,3.2c-0.8,0.5-1.5,1.1-2.1,1.8c-0.4,0.5-0.6,1.1-0.5,1.6c0.1,0.6,0.6,1.1,1.3,1.3c1,0.3,2.1-0.1,2.8-0.7c0.4-0.3,2.5-2.8,3.2-1.8c0.3,0.3-0.3,1.7-0.4,2.1c-0.3,1.1-0.7,2.1-1.2,3.2H0V683h1077V572.1L1044.2,569.1z M215.4,469.5c0.6,0.3,1.1,0.7,1.6,1.1h-2.5C214.1,469.9,213.8,468.7,215.4,469.5z M202.7,466.8c0,1.3-0.3,2.6-0.9,3.8h-2.1C200.5,469.2,201.3,467.7,202.7,466.8z M95,469.1c0,0.5-0.2,1-0.5,1.5h-5C91.1,469.2,93.2,468.1,95,469.1z M35.3,469c-0.1-0.3-0.7-1.5-0.4-1.8c0.6-0.7,1.6,0.2,1.9,0.6c0.5,0.6,1.1,1.3,1.7,1.9c0.3,0.3,0.7,0.7,1.1,1h-3.4C35.8,470.1,35.5,469.5,35.3,469z M405.5,491.5h-2.6C403.7,491.1,404.8,491,405.5,491.5z M1036.1,565.7c0.1-0.1,0.3-0.1,0.4-0.1c0.4,0,0.4,0.4,0.4,0.7c-0.2,0.7-0.4,1.4-0.6,2.1l-2.5-0.2C1034.5,567.4,1034.9,566.4,1036.1,565.7z"/><g id="XMLID_53_"><path id="XMLID_45_" class="st0" d="M208.7,295.1c0,0,0.7-3.1,0-3.5s-10.2-5.2-12.7-4.8c-2.5,0.4-1,1.6,0,2.3c1,0.7,2,2.3,2.4,3.3c0.4,1,1.1,5,2.3,5.4c0,0-8.8,3.7-9.5,4.6c-0.7,0.9,5.4-1.5,5.4-1.5s7.1,0.7,9.1-0.3c2-1,5.1-3.6,6.2-4.8c0.9-0.9,2.3-0.1,2.3-0.1S212.2,292.6,208.7,295.1z"/><path id="XMLID_60_" class="st0" d="M134.5,309.6c0,0,0.7-3.1,0-3.5c-0.7-0.5-10.2-5.2-12.7-4.8c-2.5,0.4-1,1.6,0,2.3c1,0.7,2,2.3,2.4,3.3c0.4,1,1.1,5,2.3,5.4c0,0-8.8,3.7-9.5,4.6c-0.7,0.9,5.4-1.5,5.4-1.5s7.1,0.7,9.1-0.3c2-1,5.1-3.6,6.2-4.8c0.9-0.9,2.3-0.1,2.3-0.1S138,307.1,134.5,309.6z"/><path id="XMLID_47_" class="st0" d="M78.3,306.8c0,0,2.6-1.9,2.4-3.5c-0.1-1.6-1.7-7.5-3.2-7.9c-1.4-0.4,0,3,0,3s-3.3-2.3-3.3-1.2c0,1.2,1,2.6,1,2.6s-4.9-1.3-4.7-0.7c0.1,0.6,1.7,1.9,1.7,1.9s-4.2,0.7-4,1.8c0.1,1.2,1.3,0.9,1.3,0.9s-0.3,4,1,5.3c0,0-9.8,3.2-10.4,4.2c-0.6,1,7-1.6,7-1.6s6.3,1,8.6,0.4c2.3-0.6,6.3-3.3,7.5-3.3s3-0.1,3-0.1S84,305.5,78.3,306.8z"/><path id="XMLID_61_" class="st0" d="M273.3,260.8c0,0,2.6-1.9,2.4-3.5c-0.1-1.6-1.7-7.5-3.2-7.9c-1.4-0.4,0,3,0,3s-3.3-2.3-3.3-1.2s1,2.6,1,2.6s-4.9-1.3-4.7-0.7s1.7,1.9,1.7,1.9s-4.2,0.7-4,1.8s1.3,0.9,1.3,0.9s-0.3,4,1,5.3c0,0-9.8,3.2-10.4,4.2c-0.6,1,7-1.6,7-1.6s6.3,1,8.6,0.4c2.3-0.6,6.3-3.3,7.5-3.3s3-0.1,3-0.1S279,259.5,273.3,260.8z"/><path id="XMLID_58_" class="st0" d="M319.3,326.8c0,0,2.6-1.9,2.4-3.5c-0.1-1.6-1.7-7.5-3.2-7.9c-1.4-0.4,0,3,0,3s-3.3-2.3-3.3-1.2s1,2.6,1,2.6s-4.9-1.3-4.7-0.7c0.1,0.6,1.7,1.9,1.7,1.9s-4.2,0.7-4,1.8s1.3,0.9,1.3,0.9s-0.3,4,1,5.3c0,0-9.8,3.2-10.4,4.2c-0.6,1,7-1.6,7-1.6s6.3,1,8.6,0.4c2.3-0.6,6.3-3.3,7.5-3.3s3-0.1,3-0.1S325.1,325.5,319.3,326.8z"/><path id="XMLID_54_" class="st0" d="M219.3,349.1c0,0,2.6-1.9,2.4-3.5c-0.1-1.6-1.7-7.5-3.2-7.9c-1.4-0.4,0,3,0,3s-3.3-2.3-3.3-1.2s1,2.6,1,2.6s-4.9-1.3-4.7-0.7c0.1,0.6,1.7,1.9,1.7,1.9s-4.2,0.7-4,1.8c0.1,1.2,1.3,0.9,1.3,0.9s-0.3,4,1,5.3c0,0-9.8,3.2-10.4,4.2c-0.6,1,7-1.6,7-1.6s6.3,1,8.6,0.4c2.3-0.6,6.3-3.3,7.5-3.3s3-0.1,3-0.1S225,347.8,219.3,349.1z"/><path id="XMLID_59_" class="st0" d="M273.3,379.3c0,0,2.6-1.9,2.4-3.5c-0.1-1.6-1.7-7.5-3.2-7.9c-1.4-0.4,0,3,0,3s-3.3-2.3-3.3-1.2s1,2.6,1,2.6s-4.9-1.3-4.7-0.7c0.1,0.6,1.7,1.9,1.7,1.9s-4.2,0.7-4,1.8s1.3,0.9,1.3,0.9s-0.3,4,1,5.3c0,0-9.8,3.2-10.4,4.2c-0.6,1,7-1.6,7-1.6s6.3,1,8.6,0.4c2.3-0.6,6.3-3.3,7.5-3.3s3-0.1,3-0.1S279,378,273.3,379.3z"/><g id="XMLID_50_"><path id="XMLID_52_" class="st0" d="M173.8,330.8c0,0-0.4-1.5-2.8-2.2c-2.4-0.6-3.7,0.2-3.7,0.2s-1.8-1.1-3.9-1.2c-2.1,0-12.1,0.8-13.6,1.4c-1.5,0.7,4.1,0.1,5.2,0.3c1.1,0.2,2.4,0,3.1,0.2c0.7,0.2,2.5,2.3,2.8,3.1s1.4-0.1,1.4-0.1s-1.4,5.3,8,7.3c0,0,0.8-5.6-0.4-8.5C169.8,331.5,172.4,330,173.8,330.8z"/><path id="XMLID_51_" class="st0" d="M157.5,328.8c0,0,1,1.1,0.9,1.9c-0.1,0.8-0.6,8.8,2.1,11.6l0.8-0.8c0,0-0.4,1.5,0.3,1.8c0.6,0.3,0.9-0.9,0.9-0.9s0.6,1.8,0.9,1.9c0.3,0.1,0.4-1.4,0.4-1.4s0.5,1.5,0.9,1.8c0.4,0.3,1.5-9,1.5-9L157.5,328.8z"/></g><g id="XMLID_55_"><path id="XMLID_57_" class="st0" d="M277,306.4c0,0-0.4-1.5-2.8-2.2c-2.4-0.6-3.7,0.2-3.7,0.2s-1.8-1.1-3.9-1.2c-2.1,0-12.1,0.8-13.6,1.4c-1.5,0.7,4.1,0.1,5.2,0.3c1.1,0.2,2.4,0,3.1,0.2c0.7,0.2,2.5,2.3,2.8,3.1c0.4,0.8,1.4-0.1,1.4-0.1s-1.4,5.3,8,7.3c0,0,0.8-5.6-0.4-8.5C273,307,275.7,305.6,277,306.4z"/><path id="XMLID_56_" class="st0" d="M260.7,304.4c0,0,1,1.1,0.9,1.9c-0.1,0.8-0.6,8.8,2.1,11.6l0.8-0.8c0,0-0.4,1.5,0.3,1.8c0.6,0.3,0.9-0.9,0.9-0.9s0.6,1.8,0.9,1.9s0.4-1.4,0.4-1.4s0.5,1.5,0.9,1.8c0.4,0.3,1.5-9,1.5-9L260.7,304.4z"/></g></g></svg>