<?xml version="1.0" encoding="UTF-8"?>
<!DOCTYPE svg PUBLIC "-//W3C//DTD SVG 1.1//EN" "http://www.w3.org/Graphics/SVG/1.1/DTD/svg11.dtd">
<!-- Creator: CorelDRAW 2020 (64 Bit) -->
<svg xmlns="http://www.w3.org/2000/svg" xml:space="preserve" width="347.98mm" height="195.749mm" version="1.1" style="shape-rendering:geometricPrecision; text-rendering:geometricPrecision; image-rendering:optimizeQuality; fill-rule:evenodd; clip-rule:evenodd"
viewBox="0 0 34797.98 19574.92"
 xmlns:xlink="http://www.w3.org/1999/xlink"
 xmlns:xodm="http://www.corel.com/coreldraw/odm/2003">
 <defs>
  <style type="text/css">
   <![CDATA[
    .fil1 {fill:white;fill-rule:nonzero;fill-opacity:0.149020}
    .fil2 {fill:url(#id0);fill-rule:nonzero}
    .fil3 {fill:url(#id1);fill-rule:nonzero}
    .fil0 {fill:url(#id2);fill-rule:nonzero}
   ]]>
  </style>
  <linearGradient id="id0" gradientUnits="userSpaceOnUse" x1="19856.08" y1="5137.94" x2="19856.08" y2="867.75">
   <stop offset="0" style="stop-opacity:0; stop-color:white"/>
   <stop offset="1" style="stop-opacity:1; stop-color:white"/>
  </linearGradient>
  <linearGradient id="id1" gradientUnits="userSpaceOnUse" xlink:href="#id0" x1="12989.63" y1="3980.48" x2="12979.23" y2="2594.7">
  </linearGradient>
  <linearGradient id="id2" gradientUnits="userSpaceOnUse" xlink:href="#id0" x1="24613.89" y1="4436.45" x2="24613.89" y2="2556.31">
  </linearGradient>
 </defs>
 <g id="Camada_x0020_1">
  <metadata id="CorelCorpID_0Corel-Layer"/>
  <g id="_2740890569488">
   <path id="XMLID_41_" class="fil0" d="M27909 3696.98c52.65,-378.27 -48.75,-799.43 -343.18,-1041.22 -296.38,-241.78 -799.44,-228.13 -1015.88,87.74 -111.14,159.89 -134.54,364.62 -208.64,544 -74.09,179.39 -245.68,354.87 -436.77,315.88 -132.59,-27.3 -222.28,-144.29 -323.68,-233.98 -101.39,-89.69 -263.23,-152.09 -364.62,-62.4 -40.95,35.1 -62.4,87.74 -91.64,132.59 -89.69,132.59 -274.93,191.09 -425.07,134.54 -120.89,-46.8 -239.83,-157.94 -360.72,-111.14 -77.99,31.2 -116.99,120.89 -189.14,165.74 -91.64,58.5 -210.58,27.3 -317.83,13.65 -194.99,-25.35 -391.92,3.9 -584.96,33.15 -627.86,95.54 -1255.71,193.04 -1883.57,288.58 602.51,128.69 1232.31,-37.05 1842.62,48.75 323.68,44.85 639.55,161.84 967.13,167.69 232.03,3.9 466.02,-48.75 694.15,-1.95 337.33,70.19 641.5,354.87 978.83,282.73 265.18,-56.55 473.82,-329.53 744.85,-304.18 76.04,7.8 148.19,39 220.33,68.25 239.83,101.39 505.01,194.99 758.5,132.59 253.48,-62.4 466.02,-347.08 358.77,-584.96m-19.48 -76.05l0 0 0 0z"/>
   <g id="XMLID_44_">
    <path id="XMLID_42_" class="fil1" d="M23551.06 3162.72c0,-2038.52 -1652.55,-3691.07 -3691.07,-3691.07 -2038.53,0 -3691.08,1652.55 -3691.08,3691.07 0,2038.53 1652.55,3691.08 3691.08,3691.08 2038.52,0 3691.07,-1652.55 3691.07,-3691.08z"/>
    <circle id="XMLID_241_" class="fil2" cx="19859.99" cy="3162.72" r="2215.04"/>
   </g>
   <path id="XMLID_40_" class="fil3" d="M10077.55 3556.59c276.88,-44.85 807.24,89.69 980.78,-175.49 27.3,-42.9 42.9,-89.69 56.55,-138.44 23.4,-79.94 46.8,-159.88 70.19,-241.77 64.35,-222.28 154.04,-469.92 380.22,-567.41 524.51,-222.28 861.84,292.48 1029.53,649.3 21.45,46.79 48.75,97.48 99.44,118.93 115.04,44.85 200.84,-91.63 294.43,-165.73 138.44,-107.24 384.12,-60.45 467.97,91.63 35.1,62.4 56.55,146.24 128.68,163.79 89.69,21.45 150.14,-76.04 230.08,-120.89 163.79,-89.68 352.92,68.25 506.96,175.49 374.37,255.43 879.39,232.03 1339.55,196.94 58.5,35.1 -19.5,109.19 -87.74,126.74 -834.54,204.74 -1710.03,228.13 -2575.76,251.53 -930.08,25.35 -1864.07,48.75 -2788.3,-54.6 -79.94,-9.75 -161.84,-21.45 -224.23,-66.3 -62.4,-46.8 -91.64,-138.44 -39,-194.99 33.16,-31.18 83.85,-40.93 130.65,-48.73z"/>
  </g>
 </g>
</svg>
