<?xml version="1.0" encoding="UTF-8"?>
<!DOCTYPE svg PUBLIC "-//W3C//DTD SVG 1.1//EN" "http://www.w3.org/Graphics/SVG/1.1/DTD/svg11.dtd">
<!-- Creator: CorelDRAW 2020 (64 Bit) -->
<svg xmlns="http://www.w3.org/2000/svg" xml:space="preserve" width="347.98mm" height="195.749mm" version="1.1" style="shape-rendering:geometricPrecision; text-rendering:geometricPrecision; image-rendering:optimizeQuality; fill-rule:evenodd; clip-rule:evenodd"
viewBox="0 0 34797.98 19574.92"
 xmlns:xlink="http://www.w3.org/1999/xlink"
 xmlns:xodm="http://www.corel.com/coreldraw/odm/2003">
 <defs>
  <style type="text/css">
   <![CDATA[
    .fil0 {fill:#4390BE}
   ]]>
  </style>
 </defs>
 <g id="Camada_x0020_1">
  <metadata id="CorelCorpID_0Corel-Layer"/>
  <path class="fil0" d="M3249.23 6049.62c231.92,185.77 463.81,371.53 726.69,544.2 262.89,172.66 556.77,332.25 928.41,461.43 371.64,129.18 821.09,227.96 1300.78,307.75 479.69,79.78 989.63,140.59 1503.88,178.59 514.28,37.99 1032.85,53.18 1573.05,3.79 540.2,-49.39 1101.99,-163.36 1706.99,-303.93 605.03,-140.6 1253.28,-307.79 1892.85,-490.15 639.6,-182.38 1270.52,-379.97 1836.65,-550.94 566.12,-170.98 1067.44,-315.35 1577.38,-455.92 509.95,-140.59 1028.51,-277.37 1564.38,-376.16 535.89,-98.78 1089.02,-159.59 1616.24,-182.38 527.24,-22.79 1028.54,-7.6 1577.36,22.81 548.85,30.4 1145.23,75.98 1758.88,186.18 613.68,110.17 1244.61,284.95 1996.56,516.72 751.96,231.76 1624.89,520.52 2445.99,782.69 821.09,262.15 1590.32,497.73 2188.04,701.27 597.73,203.51 1023.93,374.97 1477.7,515.56 453.76,140.57 935.09,250.26 1577.36,383.48 642.29,133.21 1445.55,289.98 2248.81,446.73 0,884.29 0,1768.6 0,2652.89 -11524.08,-22.79 -23048.16,-45.6 -34572.24,-68.39 0,-752.29 0,-1504.58 0,-2256.88 297.26,-303.95 594.54,-607.91 933.3,-965.04 338.79,-357.16 719.1,-767.53 1082.83,-1118.76 363.75,-351.26 710.92,-643.39 1058.11,-935.54z"/>
 </g>
</svg>
