<?xml version="1.0" encoding="UTF-8"?>
<!DOCTYPE svg PUBLIC "-//W3C//DTD SVG 1.1//EN" "http://www.w3.org/Graphics/SVG/1.1/DTD/svg11.dtd">
<!-- Creator: CorelDRAW 2020 (64 Bit) -->
<svg xmlns="http://www.w3.org/2000/svg" xml:space="preserve" width="347.98mm" height="195.749mm" version="1.1" style="shape-rendering:geometricPrecision; text-rendering:geometricPrecision; image-rendering:optimizeQuality; fill-rule:evenodd; clip-rule:evenodd"
viewBox="0 0 34797.98 19574.92"
 xmlns:xlink="http://www.w3.org/1999/xlink"
 xmlns:xodm="http://www.corel.com/coreldraw/odm/2003">
 <defs>
  <style type="text/css">
   <![CDATA[
    .fil6 {fill:#5A7795}
    .fil5 {fill:#768D93}
    .fil7 {fill:#96A7B7}
    .fil4 {fill:#AAB1BB}
    .fil3 {fill:#BAC5DB}
    .fil2 {fill:#C7D8E8}
    .fil1 {fill:#D5EAFF}
    .fil0 {fill:#C7D8E8;fill-opacity:0.360784}
   ]]>
  </style>
 </defs>
 <g id="Camada_x0020_1">
  <metadata id="CorelCorpID_0Corel-Layer"/>
  <g id="_2740783375824">
   <path class="fil0" d="M23676.7 8767.72c-96.13,3.52 -131.4,3.52 -167.56,-7.06 -36.16,-10.59 -73.21,-31.75 -102.32,-75.85 -29.1,-44.1 -50.26,-111.12 -60.85,-167.56 -10.58,-56.45 -10.58,-102.31 -6.17,-149.93 4.41,-47.63 13.23,-97.02 35.28,-144.64 22.05,-47.63 57.32,-93.49 93.48,-120.83 36.16,-27.34 73.21,-36.16 123.48,-48.51 50.27,-12.35 113.77,-28.22 168.45,-51.15 54.68,-22.94 100.54,-52.92 140.22,-94.37 39.69,-41.46 73.21,-94.37 94.37,-146.4 21.17,-52.04 29.99,-103.2 35.28,-160.52 5.29,-57.33 7.06,-120.83 3.53,-186.97 -3.53,-66.15 -12.34,-134.94 -26.45,-201.08 -14.11,-66.15 -33.52,-129.65 -25.58,-183.45 7.94,-53.8 43.21,-97.89 97.89,-124.35 54.68,-26.46 128.77,-35.28 198.44,-37.92 69.67,-2.65 134.94,0.87 199.32,-4.42 64.38,-5.29 127.88,-19.4 180.79,-44.97 52.92,-25.58 95.26,-62.63 130.53,-107.61 35.28,-44.98 63.51,-97.89 104.96,-147.28 41.45,-49.39 96.13,-95.25 149.93,-141.11 53.8,-45.86 106.71,-91.72 164.04,-136.7 57.33,-44.98 119.06,-89.08 181.68,-126.12 62.62,-37.05 126.12,-67.03 194.91,-102.31 68.79,-35.28 142.88,-75.84 246.95,-114.64 104.07,-38.81 238.12,-75.86 383.64,-100.55 145.53,-24.7 302.51,-37.04 455.09,-35.28 152.58,1.76 300.74,17.64 470.07,47.63 169.34,29.98 359.84,74.08 515.06,143.76 155.23,69.67 275.17,164.92 365.13,271.64 89.96,106.71 149.93,224.89 183.44,386.29 33.52,161.39 40.57,366 12.35,555.62 -28.22,189.62 -91.72,364.24 -142.88,507.12 -51.15,142.88 -89.95,254 -136.7,355.43 -46.74,101.42 -101.42,193.14 -189.62,253.11 -88.19,59.97 -209.9,88.2 -321.91,90.85 -112,2.64 -214.31,-20.29 -294.57,-49.39 -80.25,-29.11 -138.46,-64.39 -199.32,-111.13 -60.85,-46.75 -124.35,-104.95 -198.44,-157.87 -74.08,-52.92 -158.74,-100.54 -239.88,-118.18 -81.14,-17.64 -158.75,-5.29 -238.13,23.82 -79.37,29.1 -160.51,74.96 -239.89,107.59 -79.37,32.63 -156.98,52.04 -252.23,63.51 -95.25,11.46 -208.14,14.98 -313.09,11.46 -104.95,-3.53 -201.97,-14.12 -281.35,-39.69 -79.37,-25.58 -141.1,-66.15 -205.49,-91.72 -64.38,-25.58 -131.41,-36.17 -194.91,-14.12 -63.5,22.05 -123.47,76.73 -171.98,137.59 -48.5,60.85 -85.55,127.88 -126.12,179.04 -40.57,51.15 -84.66,86.42 -133.17,114.65 -48.51,28.22 -101.42,49.38 -140.23,89.95 -38.8,40.57 -63.5,100.55 -79.38,134.95 -15.87,34.39 -22.92,43.21 -104.95,51.15 -82.02,7.93 -239,14.99 -335.14,18.52z"/>
   <path class="fil0" d="M22761.24 8788.89c-96.13,3.52 -131.4,3.52 -167.56,-7.06 -36.16,-10.59 -73.21,-31.75 -102.32,-75.85 -29.1,-44.1 -50.26,-111.12 -60.85,-167.56 -10.58,-56.45 -10.58,-102.31 -6.17,-149.93 4.41,-47.63 13.23,-97.02 35.28,-144.64 22.05,-47.63 57.32,-93.49 93.48,-120.83 36.16,-27.34 73.21,-36.16 123.48,-48.51 50.27,-12.35 113.77,-28.22 168.45,-51.15 54.68,-22.94 100.54,-52.92 140.22,-94.37 39.69,-41.46 73.21,-94.37 94.37,-146.4 21.17,-52.04 29.99,-103.2 35.28,-160.52 5.29,-57.33 7.06,-120.83 3.53,-186.97 -3.53,-66.15 -12.34,-134.94 -26.45,-201.08 -14.11,-66.15 -33.52,-129.65 -25.58,-183.45 7.94,-53.8 43.21,-97.89 97.89,-124.35 54.68,-26.46 128.77,-35.28 198.44,-37.92 69.67,-2.65 134.94,0.87 199.32,-4.42 64.38,-5.29 127.88,-19.4 180.79,-44.97 52.92,-25.58 95.26,-62.63 130.53,-107.61 35.28,-44.98 63.51,-97.89 104.96,-147.28 41.45,-49.39 96.13,-95.25 149.93,-141.11 53.8,-45.86 106.71,-91.72 164.04,-136.7 57.33,-44.98 119.06,-89.08 181.68,-126.12 62.62,-37.05 126.12,-67.03 194.91,-102.31 68.79,-35.28 142.88,-75.84 246.95,-114.64 104.07,-38.81 238.12,-75.86 383.64,-100.55 145.53,-24.7 302.51,-37.04 455.09,-35.28 152.58,1.76 300.74,17.64 470.07,47.63 169.34,29.98 359.84,74.08 515.06,143.76 155.23,69.67 275.17,164.92 365.13,271.64 89.96,106.71 149.93,224.89 183.44,386.29 33.52,161.39 40.57,366 12.35,555.62 -28.22,189.62 -91.72,364.24 -142.88,507.12 -51.15,142.88 -89.95,254 -136.7,355.43 -46.74,101.42 -101.42,193.14 -189.62,253.11 -88.19,59.97 -209.9,88.2 -321.91,90.85 -112,2.64 -214.31,-20.29 -294.57,-49.39 -80.25,-29.11 -138.46,-64.39 -199.32,-111.13 -60.85,-46.75 -124.35,-104.95 -198.44,-157.87 -74.08,-52.92 -158.74,-100.54 -239.88,-118.18 -81.14,-17.64 -158.75,-5.29 -238.13,23.82 -79.37,29.1 -160.51,74.96 -239.89,107.59 -79.37,32.63 -156.98,52.04 -252.23,63.51 -95.25,11.46 -208.14,14.98 -313.09,11.46 -104.95,-3.53 -201.97,-14.12 -281.35,-39.69 -79.37,-25.58 -141.1,-66.15 -205.49,-91.72 -64.38,-25.58 -131.41,-36.17 -194.91,-14.12 -63.5,22.05 -123.47,76.73 -171.98,137.59 -48.5,60.85 -85.55,127.88 -126.12,179.04 -40.57,51.15 -84.66,86.42 -133.17,114.65 -48.51,28.22 -101.42,49.38 -140.23,89.95 -38.8,40.57 -63.5,100.55 -79.38,134.95 -15.87,34.39 -22.92,43.21 -104.95,51.15 -82.02,7.93 -239,14.99 -335.14,18.52z"/>
   <path class="fil0" d="M24581.58 8783.59c-96.13,3.52 -131.4,3.52 -167.56,-7.06 -36.16,-10.59 -73.21,-31.75 -102.32,-75.85 -29.1,-44.1 -50.26,-111.12 -60.85,-167.56 -10.58,-56.45 -10.58,-102.31 -6.17,-149.93 4.41,-47.63 13.23,-97.02 35.28,-144.64 22.05,-47.63 57.32,-93.49 93.48,-120.83 36.16,-27.34 73.21,-36.16 123.48,-48.51 50.27,-12.35 113.77,-28.22 168.45,-51.15 54.68,-22.94 100.54,-52.92 140.22,-94.37 39.69,-41.46 73.21,-94.37 94.37,-146.4 21.17,-52.04 29.99,-103.2 35.28,-160.52 5.29,-57.33 7.06,-120.83 3.53,-186.97 -3.53,-66.15 -12.34,-134.94 -26.45,-201.08 -14.11,-66.15 -33.52,-129.65 -25.58,-183.45 7.94,-53.8 43.21,-97.89 97.89,-124.35 54.68,-26.46 128.77,-35.28 198.44,-37.92 69.67,-2.65 134.94,0.87 199.32,-4.42 64.38,-5.29 127.88,-19.4 180.79,-44.97 52.92,-25.58 95.26,-62.63 130.53,-107.61 35.28,-44.98 63.51,-97.89 104.96,-147.28 41.45,-49.39 96.13,-95.25 149.93,-141.11 53.8,-45.86 106.71,-91.72 164.04,-136.7 57.33,-44.98 119.06,-89.08 181.68,-126.12 62.62,-37.05 126.12,-67.03 194.91,-102.31 68.79,-35.28 142.88,-75.84 246.95,-114.64 104.07,-38.81 238.12,-75.86 383.64,-100.55 145.53,-24.7 302.51,-37.04 455.09,-35.28 152.58,1.76 300.74,17.64 470.07,47.63 169.34,29.98 359.84,74.08 515.06,143.76 155.23,69.67 275.17,164.92 365.13,271.64 89.96,106.71 149.93,224.89 183.44,386.29 33.52,161.39 40.57,366 12.35,555.62 -28.22,189.62 -91.72,364.24 -142.88,507.12 -51.15,142.88 -89.95,254 -136.7,355.43 -46.74,101.42 -101.42,193.14 -189.62,253.11 -88.19,59.97 -209.9,88.2 -321.91,90.85 -112,2.64 -214.31,-20.29 -294.57,-49.39 -80.25,-29.11 -138.46,-64.39 -199.32,-111.13 -60.85,-46.75 -124.35,-104.95 -198.44,-157.87 -74.08,-52.92 -158.74,-100.54 -239.88,-118.18 -81.14,-17.64 -158.75,-5.29 -238.13,23.82 -79.37,29.1 -160.51,74.96 -239.89,107.59 -79.37,32.63 -156.98,52.04 -252.23,63.51 -95.25,11.46 -208.14,14.98 -313.09,11.46 -104.95,-3.53 -201.97,-14.12 -281.35,-39.69 -79.37,-25.58 -141.1,-66.15 -205.49,-91.72 -64.38,-25.58 -131.41,-36.17 -194.91,-14.12 -63.5,22.05 -123.47,76.73 -171.98,137.59 -48.5,60.85 -85.55,127.88 -126.12,179.04 -40.57,51.15 -84.66,86.42 -133.17,114.65 -48.51,28.22 -101.42,49.38 -140.23,89.95 -38.8,40.57 -63.5,100.55 -79.38,134.95 -15.87,34.39 -22.92,43.21 -104.95,51.15 -82.02,7.93 -239,14.99 -335.14,18.52z"/>
   <polygon class="fil1" points="26564.56,10513.37 21951.62,10503.38 21869.58,10328.76 21253.12,10328.76 20226.53,10334.05 20893.17,11071.16 26597.63,11083.07 26841.13,10513.97 "/>
   <polygon class="fil2" points="21869.58,10328.76 21951.62,10503.38 26564.56,10513.38 26427.62,9942.02 26030.75,9936.73 21729.37,9963.63 21480.66,9963.63 21253.12,10328.76 "/>
   <polygon class="fil3" points="21729.37,9963.63 26030.75,9936.73 26028.1,9714.48 25742.35,9711.84 22099.79,9714.92 21888.11,9720.22 "/>
   <polygon class="fil4" points="22099.79,9714.92 25742.35,9711.84 25719.28,9471.5 22247.95,9455.63 "/>
   <rect class="fil5" x="22645.38" y="8749.68" width="428.63" height="719.67"/>
   <rect class="fil5" x="23550.26" y="8744.39" width="428.63" height="719.67"/>
   <rect class="fil5" x="24455.14" y="8749.1" width="428.63" height="719.67"/>
   <rect class="fil6" x="22859.69" y="8749.68" width="214.32" height="719.67"/>
   <rect class="fil6" x="23764.58" y="8744.39" width="214.31" height="719.67"/>
   <rect class="fil6" x="24669.46" y="8749.1" width="214.31" height="719.67"/>
   <ellipse class="fil7" cx="21772.22" cy="10168.88" rx="89.96" ry="84.66"/>
   <ellipse class="fil7" cx="22177.03" cy="10168.88" rx="89.96" ry="84.66"/>
   <ellipse class="fil7" cx="22581.84" cy="10168.88" rx="89.96" ry="84.66"/>
   <ellipse class="fil7" cx="22986.65" cy="10168.88" rx="89.96" ry="84.66"/>
   <ellipse class="fil7" cx="23391.46" cy="10168.88" rx="89.96" ry="84.66"/>
   <ellipse class="fil7" cx="23796.27" cy="10168.88" rx="89.96" ry="84.66"/>
   <ellipse class="fil7" cx="24201.08" cy="10168.88" rx="89.96" ry="84.66"/>
   <ellipse class="fil7" cx="24605.89" cy="10168.88" rx="89.96" ry="84.66"/>
   <ellipse class="fil7" cx="25010.7" cy="10168.88" rx="89.96" ry="84.66"/>
   <ellipse class="fil7" cx="25415.51" cy="10168.88" rx="89.96" ry="84.66"/>
   <ellipse class="fil7" cx="25820.32" cy="10168.88" rx="89.96" ry="84.66"/>
   <ellipse class="fil7" cx="26225.13" cy="10168.88" rx="89.96" ry="84.66"/>
  </g>
 </g>
</svg>
