<?xml version="1.0" encoding="UTF-8"?>
<!DOCTYPE svg PUBLIC "-//W3C//DTD SVG 1.1//EN" "http://www.w3.org/Graphics/SVG/1.1/DTD/svg11.dtd">
<!-- Creator: CorelDRAW 2020 (64 Bit) -->
<svg xmlns="http://www.w3.org/2000/svg" xml:space="preserve" width="347.98mm" height="195.749mm" version="1.1" style="shape-rendering:geometricPrecision; text-rendering:geometricPrecision; image-rendering:optimizeQuality; fill-rule:evenodd; clip-rule:evenodd"
viewBox="0 0 34797.98 19574.92"
 xmlns:xlink="http://www.w3.org/1999/xlink"
 xmlns:xodm="http://www.corel.com/coreldraw/odm/2003">
 <defs>
  <style type="text/css">
   <![CDATA[
    .fil0 {fill:#78CAF9}
   ]]>
  </style>
 </defs>
 <g id="Camada_x0020_1">
  <metadata id="CorelCorpID_0Corel-Layer"/>
  <path class="fil0" d="M20020.46 11095.21c-1694.55,-32.31 -5114.08,-20.91 -6856.13,-15.21 -1742.07,5.69 -1806.65,5.69 -1859.83,36.08 -53.2,30.4 -94.99,91.21 -58.89,144.41 36.1,53.18 150.07,98.76 262.17,115.86 112.07,17.11 222.27,5.71 345.76,3.82 123.47,-1.9 260.25,5.68 446.42,20.89 186.17,15.19 421.74,38 634.51,47.5 212.76,9.5 402.74,5.68 541.42,37.99 138.67,32.29 226.06,100.68 269.77,172.89 43.68,72.18 43.68,148.15 -15.77,193.13 -59.45,44.97 -178.33,58.95 -387.29,47.56 -208.99,-11.42 -508.03,-48.17 -830.42,-58.94 -322.42,-10.79 -668.16,4.4 -981.61,15.81 -313.48,11.4 -594.62,18.98 -856.79,36.08 -262.17,17.11 -505.33,43.69 -742.79,77.89 -237.49,34.19 -469.24,76 -689.59,119.7 -220.38,43.69 -429.37,89.27 -727.63,173.83 -298.29,84.55 -685.89,208.06 -882.53,314.47 -196.66,106.39 -202.35,195.69 -175.75,278.34 26.58,82.63 85.48,158.6 220.36,187.1 134.89,28.5 345.74,9.5 567.54,-16.13 221.8,-25.66 454.52,-57.92 683.07,-73.28 228.54,-15.38 452.9,-13.83 693.23,-23.33 240.3,-9.5 496.58,-30.05 761.51,-45.06 264.9,-15.04 538.46,-24.54 796.84,-40.67 258.35,-16.16 501.52,-38.97 743.74,-57.97 242.22,-18.99 483.49,-34.18 676.79,-34.65 193.31,-0.5 338.62,13.72 498.06,21.3 159.44,7.58 332.99,8.53 507.79,9 174.8,0.45 350.82,0.43 484.44,42.24 133.61,41.79 224.81,125.37 270.41,222.26 45.58,96.88 45.58,207.08 -20.91,294.47 -66.5,87.39 -199.46,151.97 -391.34,207.07 -191.89,55.1 -442.64,100.68 -788.38,142.49 -345.76,41.79 -786.5,79.76 -1210.13,106.36 -423.65,26.61 -830.18,41.79 -1225.32,70.29 -395.15,28.5 -778.91,70.31 -1094.26,119.7 -315.35,49.39 -562.33,106.36 -739.01,146.26 -176.67,39.89 -283.06,62.7 -393.24,89.3 -110.2,26.58 -224.16,57 -209.45,77.44 14.71,20.44 158.12,30.93 365.69,27.31 207.54,-3.62 479.22,-21.34 800.28,-27.98 321.06,-6.65 691.49,-2.24 1024.91,-2.93 333.42,-0.69 629.81,-6.5 1089.57,-19.79 459.73,-13.32 1082.78,-34.08 1752.43,-63.46 669.64,-29.4 1385.83,-67.4 2575.09,-68.35 1189.24,-0.95 2851.5,35.13 4347.56,66.5 1496.06,31.34 2825.86,57.92 4005.6,105.41 1179.74,47.5 2209.41,115.89 2923.7,157.7 714.3,41.79 1113.25,56.97 1430.49,3.79 317.27,-53.18 552.83,-174.78 651.62,-307.74 98.78,-132.99 60.81,-277.38 -28.48,-450.26 -89.28,-172.88 -229.88,-374.24 -414.15,-497.73 -184.28,-123.49 -412.24,-169.07 -634.06,-208.51 -221.8,-39.44 -437.42,-72.74 -702.93,-77.98 -265.48,-5.25 -580.85,17.56 -960.8,32.77 -379.93,15.18 -824.47,22.77 -1276.6,28.47 -452.13,5.71 -911.89,9.5 -1225.34,-1.89 -313.46,-11.4 -480.63,-38 -594.62,-106.39 -113.97,-68.39 -174.78,-178.57 -193.78,-294.45 -19,-115.89 3.82,-237.46 100.7,-313.46 96.89,-75.99 267.86,-106.39 473.03,-119.68 205.17,-13.31 444.55,-9.5 777,-9.5 332.45,0 757.98,-3.81 1132.22,-15.2 374.26,-11.4 697.23,-30.4 972.69,-75.98 275.46,-45.6 503.44,-117.8 628.8,-243.16 125.39,-125.39 148.2,-303.98 98.79,-406.55 -49.39,-102.6 -170.97,-129.18 -343.85,-134.87 -172.88,-5.71 -397.05,9.48 -645.93,18.98 -248.85,9.5 -522.41,13.31 -828.28,17.1 -305.85,3.79 -643.99,7.61 -1006.86,7.61 -362.85,0 -750.38,-3.82 -1115.14,-3.82 -364.74,0 -706.69,3.82 -974.57,3.82 -267.85,0 -461.6,-3.82 -588.89,-11.4 -127.28,-7.6 -188.09,-19.02 -203.29,-62.7 -15.19,-43.71 15.2,-119.68 -1679.37,-151.97z"/>
 </g>
</svg>
