<?xml version="1.0" encoding="UTF-8"?>
<!DOCTYPE svg PUBLIC "-//W3C//DTD SVG 1.1//EN" "http://www.w3.org/Graphics/SVG/1.1/DTD/svg11.dtd">
<!-- Creator: CorelDRAW 2020 (64 Bit) -->
<svg xmlns="http://www.w3.org/2000/svg" xml:space="preserve" width="347.98mm" height="195.749mm" version="1.1" style="shape-rendering:geometricPrecision; text-rendering:geometricPrecision; image-rendering:optimizeQuality; fill-rule:evenodd; clip-rule:evenodd"
viewBox="0 0 34797.98 19574.92"
 xmlns:xlink="http://www.w3.org/1999/xlink"
 xmlns:xodm="http://www.corel.com/coreldraw/odm/2003">
 <defs>
  <style type="text/css">
   <![CDATA[
    .fil0 {fill:#FEDB7F}
   ]]>
  </style>
 </defs>
 <g id="Camada_x0020_1">
  <metadata id="CorelCorpID_0Corel-Layer"/>
  <path class="fil0" d="M104.43 16328.81c0,-756.78 0,-1220.3 0,-1683.84 3640.87,-136.19 7281.71,-272.36 10009.55,-352.26 2727.83,-79.9 4542.63,-103.54 6191.24,-107.46 1648.58,-3.93 3130.99,11.8 4608.89,43.32 1477.9,31.49 2951.29,78.72 4388.75,141.72 1437.49,62.99 2839.04,141.7 3939.59,196.83 1100.56,55.11 1900.17,86.6 2838.02,151.81 937.85,65.22 2013.98,164.18 3090.09,263.12 0,1401.22 0,2802.42 0,4203.64 -11688.72,0 -23377.41,0 -35066.13,0 0,-1050.04 0,-2100.09 0,-2856.88z"/>
 </g>
</svg>
