<?xml version="1.0" encoding="UTF-8"?>
<!DOCTYPE svg PUBLIC "-//W3C//DTD SVG 1.1//EN" "http://www.w3.org/Graphics/SVG/1.1/DTD/svg11.dtd">
<!-- Creator: CorelDRAW 2020 (64 Bit) -->
<svg xmlns="http://www.w3.org/2000/svg" xml:space="preserve" width="347.98mm" height="195.749mm" version="1.1" style="shape-rendering:geometricPrecision; text-rendering:geometricPrecision; image-rendering:optimizeQuality; fill-rule:evenodd; clip-rule:evenodd"
viewBox="0 0 34797.98 19574.92"
 xmlns:xlink="http://www.w3.org/1999/xlink"
 xmlns:xodm="http://www.corel.com/coreldraw/odm/2003">
 <defs>
  <style type="text/css">
   <![CDATA[
    .fil0 {fill:#1E344C}
   ]]>
  </style>
 </defs>
 <g id="Camada_x0020_1">
  <metadata id="CorelCorpID_0Corel-Layer"/>
  <g id="_2740783325232">
   <path class="fil0" d="M2227.54 113.97l0 1561.09c264.71,151.86 657.71,617.49 803.82,891.1 248.38,-153.18 179.07,-173.79 287.84,-276.65l3.26 459.01 -1094.92 -204.55 0 1572.26 418.57 17.54c-6.89,-30.72 -58.54,-249.24 -59.36,-255.86 -16.95,-137.19 -19.06,-45.86 11.18,-120.66 411.63,526.83 649.46,407.08 1541.83,338.95l-1313.61 3748.01c-64.88,196.79 -150.33,437.26 -239.68,591.81l-358.93 437.38 0 10299.71 30395.67 0 0 -8259.42c-153.81,-31.4 -302.51,-76.32 -461.35,-72.85l-377.1 121.53c-151.58,354.34 431.69,524.64 752.87,624.33 -189.66,177.06 -674.83,404.67 -1006.27,504.23 -542.6,163 -580.51,-17.64 -1020.19,-223.63 -533.51,-249.91 -1447.55,-585.08 -2063.13,-557.25 -228.43,10.32 -83.46,-22.07 -238.62,44.61 -150.5,344.52 -133.68,915.16 -104.86,1348.47 48.71,731.87 57.56,670.01 598.61,870.83 -15.73,15.38 -42.76,28.47 -55.49,35.75l-103.37 59.52c-210.47,110.72 -96.63,-74.85 -215.99,150.37 -106.88,201.73 -83.85,393.95 -60.35,607.5 -124.78,-104.71 -176.09,-202.15 -372.67,-299.6 180.49,-445.39 269.75,-956.17 -211.37,-1190.81 -181.48,294.37 -133.21,322.07 -131.57,749.02l-379.09 -291.83c124.42,-373.51 190.68,-1170.43 -348.78,-1084.4 -131.29,329.28 -66.3,370.38 -24.86,709.1 -207.08,-88.53 -193.51,-119.24 -375.96,-237.95l28.41 -595.01c-122.63,-272.68 -181.73,-474.81 -486.1,-496.54 -106.77,228.24 -56.91,496.97 12.75,760.88 -528.36,-383.56 -212.1,24.9 -697.9,-519.48 -231.6,-259.52 -556.38,-393.78 -939.56,-304.99 70.2,370.77 147.25,347.53 415.42,475.5 277.22,184.19 524.7,92.15 766.12,248.36l-601.44 196.27 -59.35 299.5c578.92,207.04 764.96,-48.79 1150.14,-193.13 96.51,79.89 262.99,206.05 345.06,239.12 -341.35,51.89 -637.85,33.36 -691.96,406.33 434.21,249.61 732.52,58.83 1106.78,-88.25l357.5 312.66c-400.82,-4.07 -584.38,8.06 -725.54,256.03 233.37,455.1 835.79,152.98 1151.87,64.53l275.24 353.76c-567.76,-63.2 -564.53,125.66 -831.54,150.41 -168.77,15.64 -492.32,-145.33 -749.04,-104.79 -210.17,33.21 -74.38,-38.88 -197.12,83.47 -22.27,275.71 -54.3,608.86 -19.58,882.46 52.07,410.13 106.35,320.58 448.58,454.41l-294.09 243.45c88.85,282.74 216.52,293.29 -84.44,842.14 -69.33,126.44 0,43.14 -91.72,135.38 -396.55,-170.04 -123.29,-207.15 -53.39,-598.91 73.08,-409.5 -1.21,-682 -340.58,-747.59 -156.72,232.63 -149.03,394.53 -138.41,746.3 -147.75,-116.51 -181.63,-191.86 -343.03,-377.32 200.86,-360.97 251.82,-1047.8 -264.43,-1070.92 -177.77,318.8 -105.53,385.12 -95.06,730.22l-341.32 -294.63c131.84,-494.84 132.08,-408.1 -39.29,-966.14 -138.36,-135.79 -100.98,-141.98 -374.89,-160.24 -62.55,339.3 -96.67,420.12 21.69,767.18 -168.19,-98.25 -236.25,-186.05 -394.72,-297.28 135.76,-452.69 -6.34,-1101.74 -487.09,-1032.9 -94.67,361.53 -27.04,435.22 71.19,752.36 -724.27,-393.74 -1091.51,-1122.12 -1656.49,-783.31 112.2,489.28 660.92,553.67 1140.94,590.16 -96.54,101.62 -57.55,76.38 -213.66,157.43 -25.52,13.25 -155.34,51.87 -207.41,70.7 -180.5,143.89 -168.36,62.64 -206.2,303.89 417.77,248.96 876.73,22.01 1110.55,-174.22l285.49 245.75c10.56,11.27 30.5,32.06 42.72,50.39 -534.63,34.01 -574.37,98.72 -631.78,351.66 418.98,322.53 801.56,86.44 1153.65,-84.52l212.82 242.33c-56.56,48.89 19.99,12.21 -156.42,77.48 -445.8,164.91 -336.22,9.78 -484.14,296.63 11.72,15.01 4.82,229.55 558.9,206.22 254.37,-10.72 375.47,-61.88 519.71,-162.75 207.36,136.11 210.31,131.93 336.17,347.05 -374.3,-19.79 -525.75,-76.64 -737.32,217.41 279.08,380.31 771.19,239.46 1103.87,152.68 185.08,192.7 172.89,196.87 283.5,369.26 -795.21,-114.03 -414.78,209.03 -1956.16,-214.48 -596.71,-163.96 -1193.87,-335.87 -1817.72,-471.94 -1637.38,-357.12 -2394.5,-125.52 -3683.66,514.81 -1068.46,530.71 -2009.34,1083.95 -3472.42,868.29 -1018.34,-150.12 -1701.4,-516.06 -2583.39,-831.41 -828.85,-296.33 -292.04,-111.09 -458.33,-519.9l-674.47 -107.51 327.71 -327.95c270.7,191.93 767.48,288.77 1081.84,-39.78 -188.86,-384.71 -67.31,-98.98 -565.34,-332.63l167.06 -242.45c293.53,71.68 738.06,406.57 1130.54,43.16 -55.1,-260.85 42.22,-163.14 -251.05,-285.15l-397.09 -166.76 339 -181.95c328.81,212.43 667.21,400.95 1107.79,171.26 -34.98,-296.93 -80.69,-255.38 -299.75,-351.81l-320.01 -75.63c17.26,-7.91 50.36,-49.05 64.02,-29.6 13.38,19.07 47.43,-27.78 65.96,-35.21 138.78,-55.66 17.38,-15.86 198.99,-68.29 167.39,-48.31 109.74,-7.04 282.02,-78.47 192.72,-79.89 349.73,-220.31 487.18,-266.58 40.21,-413.08 23.13,-208.49 -74.64,-311.11 -969.48,43.67 -516.12,433.44 -1563.43,882.21 118.04,-332.71 165.53,-400.7 89.28,-771.86 -468.07,-49.32 -627.4,633.16 -461.67,1037.04 -223.87,141.8 -222.47,209.39 -417.6,316.86 113.06,-314.88 116.47,-426.76 -2.24,-753.33 -178.23,-7.35 -196.08,21.45 -348.78,130.75 -148.84,528.25 -147.34,487.8 -15.3,996.82l-373.09 270.93 -14.87 -782.28c-640.54,146.22 -490.02,648.34 -340.96,1168.26 -151.68,117.52 -85.04,97.58 -274.81,184.17l-172.79 -620.19c-455.36,122.2 -254.24,177.47 -435.12,492.24 -124.91,-34.94 -338.87,-241.14 -447.22,-335.79 451.51,-201.6 529.74,-172.54 415.49,-1372.87 -327.86,-189.68 -535.08,57.99 -891.57,57.86 -257.86,-0.11 -80.97,-24.52 -366.18,-122.98 -117.27,-40.47 -358.35,-73.94 -464.58,-179.84l227.2 -201.59c323.32,57.94 764.17,281.49 1125.83,-8.92 -48.86,-349.1 -272.6,-308.73 -698.94,-338.87l330.49 -304.17c199.08,53.38 1468.05,535.17 1014.07,-209.09l-584 -97.38 322.89 -266.65c302.15,89.39 723.3,442.52 1163.95,152.31 -32.87,-366.31 5.71,-204.29 -578.79,-450.64 -15.22,-6.42 -41.44,-16.74 -60.18,-28.67 234.32,-90.26 404.16,-47.13 683.37,-151.56 306.92,-114.81 261,-207.22 477.61,-310.74 -21.95,-221.18 63.09,-76.9 -55.88,-261.46 -939.37,14.13 -797.63,533.45 -1589,874.82 90.64,-321.53 173.01,-500.9 39.85,-785.66 -503.79,52.34 -542.79,645 -428.42,1116.77 -268.62,99.35 -155.26,110.66 -418.24,235.91 59.71,-353.67 127.19,-401.77 -25.31,-713.58 -427.6,-93.77 -521.66,604.31 -366.19,1057.45l-333.76 301.91c-9.59,-263.54 -24.9,-516.3 -97.3,-717.94 -589.06,43.41 -418.94,779.16 -301.26,1125.2 -90.15,102.12 -215.75,241.68 -302.75,330.26l-103.63 -688.11c-272.29,-75.77 -96.05,32.27 -408.99,-6.05l-94.86 -32.74c571.44,-255.17 686.53,-115.28 737.95,-910.79 34.87,-539.58 29.31,-955.95 -91.1,-1466.56 -819.45,-67.64 -2133.97,372.75 -2789.52,779.71 -372.91,231.51 -163.13,297.88 -360.26,759.9l-114.32 -99.63c-9.91,-8.98 -27.79,-25.85 -37.69,-34.94 -75.42,-69.25 -79.94,-80.75 -151.97,-142.7 -385.96,182.17 -725.33,555.31 -1088.39,883.22l-343.99 -739.37c317.91,-200.01 867.47,-291.68 678.3,-687.07 -288.73,-219.39 -514.55,-71.11 -844.59,14.58 10.77,-299 9.93,-234.14 93.33,-472.36 610.34,-54.47 1237.49,56.91 1411.75,-517.63l-19.02 -48.27c-277.35,-59.35 228.32,-72.7 -337.69,-149.6 -204.14,-27.72 -336.65,24.77 -568.49,-1.61 120.58,-138.51 119.64,-242.53 194.47,-401.45 347.83,48.27 1438.02,177.71 1483.93,-472.21 -272.64,-210.92 -682.74,-224.64 -1007.16,-115.71 53.2,-129.61 232.16,-332.97 347.05,-484.76 539.91,211.78 1068.83,80.43 1436.67,-136.74 -25.07,-273.41 -39.48,-337.02 -378.35,-387.34 -291.33,-43.25 -398.77,-0.82 -649.22,25.14 222.08,-241.06 12.34,-108.28 346.52,-268.89 423.56,-203.55 967.99,-522.37 908.18,-1123.58 -990.73,-108.39 -1011.34,993.24 -1435.32,1277.34 -174.54,-117.5 -830.25,-884.9 -962.87,-1141.12 53.14,-186.6 116.4,-397.31 164.87,-561.23 16.82,-56.91 51.5,-184.04 68.3,-230.55l102.79 -220.52c142.56,-478.59 598.41,-1726.8 854.87,-2046.85 244.14,228.37 367.63,510.14 694.7,618.99l515.35 29.74c-166.83,113.39 -205.99,73.99 -311.6,285.88 378.37,295.47 730.1,624.28 1077.27,976.32 238.28,-103.59 95.98,-140.7 293.03,-230.38 99.17,717.83 374.2,888.24 1249.1,1460l339.97 -150.28 4.11 -135.71c-3.98,-312.48 -41.5,-673.02 -177.08,-892.99 -271.82,-441.04 267.27,345.98 -104.32,-125.97 -101.28,-128.64 -41.29,-14.17 -80.82,-105.68 -3.83,-8.89 -9.37,-30.02 -12.15,-39.52 -2.99,-10.26 -4.2,-33.09 -6.44,-44.1 -148.73,-733.23 -387.51,-351.4 -821.5,-813.87l-263.05 -14.65c18.96,-14.04 46.42,-25.18 62.08,-33.9l173.89 -96.81c213.27,-128.51 71.45,-2.97 191.5,-135.55 -187.94,-187.01 -447.13,-469.79 -672.62,-630.25 -305.01,-217.06 -428.61,-207.26 -451.31,-218.43 -200.35,-98.85 -238.52,-132.18 -379.6,-291.16 102.03,-217.26 23.24,-77.4 164.67,-261.68 86.31,-112.44 65.79,-70.71 150.5,-170.98l98.21 256.95c32.43,313.56 -37.2,99.41 -62.49,100.1 461.97,66 1040.8,77.44 1556.97,70.13l-36.81 -360.79c825.1,454.9 433.9,219.83 1418.38,283.23l734.54 -260.21c-104.03,-436.04 -576.46,-815.1 -1036.32,-892.91l-478.77 143.66c236.96,-104.35 193.38,-80.11 288.89,-266.01 -816.29,-153.92 -775.66,55.3 -1478.13,246.55 92.84,-204.71 157.35,-272.09 261.43,-482.02 -812.58,-5.52 -1192.64,39.26 -1945.45,240.36l114.57 -339.56c8.3,11.21 23.72,32.36 31.26,42.35 55.47,73.43 13.22,36.71 85.04,102.21l1076.41 -1185.06 -354.94 -153.9c217.86,-128.64 380.77,-104 631.58,-201.92 303.24,-118.41 320.11,-368.75 347.45,-408.49 0.43,-0.63 559.74,-372.09 639.61,-1009.16 -608.6,-73 -1324.25,-98.33 -1478.24,520.67 -8.12,-19.75 -15.68,-48.6 -22.06,-60.16l-51.98 -99.54c-7.25,-7.88 -23.34,-26.67 -31.72,-32.33 -339.95,-229.73 -754.86,970.75 -879.36,1133.04l-154.96 -511.58c-335.52,243.12 -910.86,944.64 -1149.97,1505.34l380.25 118.88c-478.39,167.04 -400.05,330.66 -880.98,150.28 271.34,-95.1 284.74,-3.59 320.26,-94 9.42,-23.97 39.57,-13.2 57.77,-23.18 -151.15,-324.63 -330.4,-594.55 -524.98,-858.57 -195.86,-265.78 -423.33,-444.91 -667.64,-645.56l-77.97 478.82c-119.03,-114.27 -42.61,-7.99 -163.06,-208.79 -338.18,-563.75 36.9,-402.74 -673.82,-975.13l-161.66 197.16c-5.6,-11.5 -17.77,33.62 -26.61,50.49z"/>
   <path class="fil0" d="M28308.08 -2408.57c187.03,221.2 860.59,852.4 1003.32,1106.79 142.81,-11.23 149.36,-66.18 273.88,-216.05l-6.78 469.57c-557.83,-169.11 -1052.35,-266.28 -1742.61,-246.61 -47.62,69.73 -151.73,-5.67 20.85,439.72 -522.3,-129.45 -698.57,-343.61 -1307.4,-245.62 -369.72,568.64 55.87,-113.84 -661.18,313.07 -355.95,211.91 -588.33,324.39 -661.31,759.35 267.79,107.45 585.23,193.5 948.81,202.83 876.04,44.07 539.32,48.76 1275.26,-297.34l-138.54 363.44 202.35 49.16 1309.17 27.89 141.61 -291.13 227.35 284.89c-601.68,307.44 -1119.83,684.29 -1488.47,1156.23l514.1 164.36c-174.65,119.46 -434.32,228.75 -649.98,331.35 -498.93,237.4 -256.48,183.42 -575.96,482.93 186.64,167.87 -37.52,65.33 296.05,126.68 -652.82,248.62 -554.02,679.57 -601.19,1403.26 188.99,168.36 50.25,147.85 387.44,9.07 184.63,-75.99 92.95,-109.55 357.61,-150.05 12.3,-17.06 34.88,-60.66 41.3,-47.69l113.11 -142.06c483.14,-644.44 40.88,29.25 428.47,-320.02 231.37,-208.49 148.89,-593.35 352.49,-852.71l132.99 341.8 641.79 -516.88c158.56,-174.35 295.96,-284.79 522.31,-526.06l-289.05 -218.63c1199.43,-205 205.13,111.7 1195.63,-638.24 266.18,413.98 486.17,1005.76 644.83,1537.31l687.16 1985.49 57.6 186.88c338.18,543.38 421.54,2459.9 662.12,3002.43l0 -3533.85 -1310.85 -3642.97c440.82,5.56 970.54,67.89 1310.85,-58.29l0 -3692.23c-240.71,207.82 -151.6,348.62 -379.94,614.54l-139.63 -397.61c-391.97,177.9 -906.3,900.77 -1163.13,1435.66 146.11,126.59 186.52,88.68 346.97,151.96 -281.31,167.95 -385.5,70.09 -639.98,-47.06 -90.94,-258.64 -95.14,103.82 22.06,-111.39 180.68,-331.72 -43.8,195.54 121.16,-153.11 -158.79,-200.92 -261.37,-426.6 -412.65,-634.66 -163.96,-225.5 -228.22,-315.05 -479.05,-585.57l-237.5 -210.32 -226.76 449.22c-237.39,-546 -275.91,-875.31 -762.98,-1129.48 -106.9,105.63 -84.41,48.98 -112.93,280.43 -113.2,-345.53 -144.58,-419.9 -489.57,-523.86 -320.22,-96.46 -643.47,-114.2 -955.76,-49.05 -9.01,21.65 -16.09,32.55 -16.95,68.27l535.27 959.7c365.19,456.89 285.13,406.4 1050.18,558.91l-373.94 215.35z"/>
   <path class="fil0" d="M29971.57 7826.26c192.44,228.27 233.77,360.24 511.75,568.92 363.34,272.75 471.95,137.88 693.9,454.53 -460.15,-27.51 -724.75,-83.13 -972.12,216.84 105.75,541.87 966.02,490.13 1430.26,304.75 157.82,173.44 230.3,222.79 357.18,487.87 -303.25,-34.68 -782.6,-140.62 -926.43,89.82 -167,546.95 880.57,633.48 1329.14,472.4 78.5,70.31 157.83,148.58 227.96,214.76l0 -373.99c-240.69,-100.93 -345.29,-346.88 -456.54,-511.71 22.34,-61.86 704,-1399.66 -151.37,-1534.48 -282.13,219.13 -237.33,652.82 -232.87,999.49 -791.45,-636.32 -785.46,-1840.94 -1821.59,-1730.76l10.73 341.56z"/>
  </g>
 </g>
</svg>
