<?xml version="1.0" encoding="UTF-8"?>
<!DOCTYPE svg PUBLIC "-//W3C//DTD SVG 1.1//EN" "http://www.w3.org/Graphics/SVG/1.1/DTD/svg11.dtd">
<!-- Creator: CorelDRAW 2020 (64 Bit) -->
<svg xmlns="http://www.w3.org/2000/svg" xml:space="preserve" width="347.98mm" height="195.749mm" version="1.1" style="shape-rendering:geometricPrecision; text-rendering:geometricPrecision; image-rendering:optimizeQuality; fill-rule:evenodd; clip-rule:evenodd"
viewBox="0 0 34797.98 19574.92"
 xmlns:xlink="http://www.w3.org/1999/xlink"
 xmlns:xodm="http://www.corel.com/coreldraw/odm/2003">
 <defs>
  <style type="text/css">
   <![CDATA[
    .fil0 {fill:#1E344C}
    .fil2 {fill:#1E344C}
    .fil1 {fill:#1E344C;fill-rule:nonzero}
   ]]>
  </style>
 </defs>
 <g id="Camada_x0020_1">
  <metadata id="CorelCorpID_0Corel-Layer"/>
  <g id="_2827429539536">
   <path class="fil0" d="M31921.86 2733.14c-248.75,142.7 -618.06,580.26 -755.36,837.37 -233.4,-143.94 -168.26,-163.31 -270.48,-259.96l-3.06 431.32c767.15,58.54 419.61,329.27 399.99,589.84 -28.36,376.37 -92.76,758.67 -1168.01,676.59l1549.34 3372.83c409.04,1345.21 3151.54,5786.75 3235.5,5931.99l6960.61 1291.81 4846.6 1414.67 6079.78 2195.73 -4001.23 -21.29 -7309.13 -47.63 -9564.55 29.72 -28562.93 0 -2099.21 72.93c144.55,-29.52 -732.7,-546.63 -583.42,-543.37l652.69 -2935.64c142.46,332.98 3164.05,-2506.45 2862.22,-2412.76 143.09,133.58 1150.73,-1045.67 1152.41,-1046.46 501.34,-234.84 1360.27,-549.8 1938.73,-523.65 214.66,9.7 78.43,-20.74 224.23,41.92 141.43,323.75 125.62,859.98 98.54,1267.16 -45.77,687.74 -54.09,629.61 -562.51,818.32 14.78,14.45 40.18,26.76 52.14,33.6l97.14 55.93c197.78,104.04 90.8,-70.34 202.96,141.3 100.44,189.57 78.8,370.2 56.72,570.87 117.26,-98.39 165.47,-189.96 350.2,-281.53 -169.61,-418.54 -253.49,-898.52 198.62,-1119.01 170.54,276.62 125.18,302.65 123.64,703.85l356.23 -274.23c-116.92,-350.98 -179.18,-1099.86 327.75,-1019.01 123.37,309.43 62.3,348.05 23.36,666.35 194.6,-83.2 181.85,-112.06 353.29,-223.61l-26.7 -559.13c115.24,-256.24 170.78,-446.18 456.79,-466.61 100.34,214.48 53.48,467.01 -11.98,715.01 496.5,-360.44 199.32,23.4 655.82,-488.16 217.64,-243.87 522.84,-370.04 882.92,-286.6 -65.97,348.42 -138.38,326.58 -390.38,446.83 -260.51,173.08 -493.06,86.59 -719.93,233.38l565.18 184.44 55.77 281.44c-544.01,194.56 -718.84,-45.85 -1080.8,-181.48 -90.68,75.07 -247.12,193.63 -324.24,224.7 320.76,48.76 599.39,31.35 650.23,381.83 -408.02,234.56 -688.35,55.28 -1040.04,-82.93l-335.95 293.81c376.65,-3.83 549.15,7.57 681.79,240.59 -219.29,427.66 -785.39,143.75 -1082.41,60.64l-258.65 332.43c533.53,-59.39 530.49,118.08 781.41,141.34 158.59,14.7 462.63,-136.57 703.87,-98.47 197.5,31.21 69.9,-36.54 185.23,78.43 20.93,259.09 51.03,572.15 18.4,829.26 -48.92,385.39 -99.93,301.25 -421.53,427.01l276.36 228.77c-83.5,265.69 -203.47,275.61 79.35,791.36 65.15,118.82 0,40.54 86.18,127.22 372.65,-159.79 115.87,-194.67 50.18,-562.8 -68.68,-384.81 1.14,-640.88 320.04,-702.52 147.28,218.61 140.05,370.74 130.07,701.31 138.84,-109.49 170.68,-180.29 322.35,-354.57 -188.75,-339.21 -236.65,-984.63 248.48,-1006.35 167.05,299.58 99.16,361.9 89.33,686.19l320.74 -276.86c-123.89,-465.01 -124.12,-383.5 36.92,-907.89 130.02,-127.61 94.9,-133.42 352.29,-150.58 58.78,318.84 90.84,394.79 -20.39,720.92 158.05,-92.32 222.01,-174.83 370.93,-279.35 -127.58,-425.4 5.95,-1035.31 457.72,-970.62 88.96,339.73 25.4,408.98 -66.9,706.99 680.6,-369.99 1025.7,-1054.46 1556.61,-736.08 -105.44,459.79 -621.07,520.29 -1072.15,554.58 90.72,95.5 54.08,71.77 200.77,147.94 23.99,12.45 145.99,48.74 194.91,66.43 169.62,135.22 158.21,58.87 193.77,285.57 -392.58,233.95 -823.87,20.69 -1043.59,-163.71l-268.28 230.93c-9.92,10.59 -28.66,30.12 -40.14,47.35 502.4,31.96 539.74,92.76 593.69,330.46 -393.72,303.07 -753.23,81.23 -1084.1,-79.43l-199.98 227.72c53.15,45.95 -18.79,11.48 146.99,72.81 418.92,154.97 315.95,9.19 454.95,278.74 -11.01,14.11 -4.54,215.72 -525.21,193.79 -239.03,-10.08 -352.83,-58.15 -488.36,-152.94 -194.87,127.91 -197.64,123.98 -315.91,326.13 351.73,-18.6 494.05,-72.02 692.86,204.3 -262.24,357.38 -724.68,225.02 -1037.31,143.47 -173.92,181.08 -162.46,185.01 -266.4,347 747.26,-107.16 389.77,196.42 1838.21,-201.55 560.73,-154.07 1121.88,-315.62 1708.12,-443.49 1538.65,-335.58 2250.12,-117.94 3461.55,483.77 1004.04,498.71 1888.18,1018.59 3263.04,815.94 956.94,-141.07 1598.82,-484.95 2427.62,-781.28 778.87,-278.46 274.44,-104.39 430.7,-488.55l633.8 -101.03 -307.95 -308.17c-254.38,180.35 -721.21,271.36 -1016.61,-37.39 177.48,-361.51 63.26,-93.01 531.26,-312.57l-156.99 -227.83c-275.83,67.36 -693.56,382.05 -1062.38,40.56 51.78,-245.12 -39.67,-153.31 235.92,-267.96l373.15 -156.71 -318.56 -170.98c-308.99,199.63 -626.98,376.78 -1041,160.94 32.87,-279.02 75.82,-239.98 281.68,-330.6l300.71 -71.07c-16.22,-7.43 -47.33,-46.09 -60.16,-27.81 -12.57,17.91 -44.57,-26.11 -61.98,-33.09 -130.42,-52.31 -16.33,-14.9 -186.99,-64.17 -157.3,-45.4 -103.13,-6.62 -265.02,-73.74 -181.1,-75.07 -328.64,-207.03 -457.8,-250.51 -37.79,-388.17 -21.74,-195.91 70.13,-292.34 911.03,41.02 485.01,407.29 1469.17,829 -110.92,-312.65 -155.56,-376.53 -83.9,-725.31 439.85,-46.35 589.57,594.98 433.83,974.51 210.37,133.25 209.06,196.76 392.43,297.75 -106.25,-295.89 -109.45,-401.02 2.1,-707.91 167.48,-6.9 184.26,20.16 327.75,122.87 139.87,496.4 138.45,458.39 14.37,936.71l350.6 254.6 13.97 -735.11c601.92,137.4 460.47,609.25 320.4,1097.82 142.54,110.44 79.92,91.69 258.24,173.06l162.38 -582.79c427.9,114.83 238.91,166.77 408.88,462.56 117.38,-32.83 318.44,-226.61 420.25,-315.55 -424.28,-189.44 -497.8,-162.13 -390.44,-1290.09 308.1,-178.24 502.82,54.49 837.82,54.37 242.31,-0.1 76.09,-23.03 344.1,-115.56 110.2,-38.03 336.74,-69.48 436.57,-168.99l-213.51 -189.44c-303.82,54.45 -718.08,264.51 -1057.94,-8.38 45.91,-328.05 256.16,-290.12 656.8,-318.44l-310.57 -285.83c-187.07,50.16 -1379.53,502.9 -952.92,-196.48l548.78 -91.51 -303.42 -250.57c-283.92,84 -679.69,415.84 -1093.76,143.12 30.88,-344.22 -5.37,-191.97 543.88,-423.47 14.31,-6.03 38.95,-15.73 56.56,-26.94 -220.19,-84.81 -379.79,-44.29 -642.16,-142.42 -288.42,-107.89 -245.27,-194.72 -448.82,-292 20.63,-207.84 -59.28,-72.26 52.51,-245.69 882.73,13.28 749.54,501.28 1493.19,822.06 -85.17,-302.14 -162.58,-470.69 -37.44,-738.28 473.4,49.18 510.06,606.11 402.58,1049.44 252.43,93.35 145.9,103.98 393.03,221.68 -56.11,-332.34 -119.53,-377.54 23.78,-670.56 401.81,-88.11 490.21,567.88 344.1,993.69l313.65 283.71c9,-247.66 23.4,-485.17 91.43,-674.65 553.54,40.79 393.67,732.18 283.09,1057.35 84.71,95.97 202.74,227.11 284.5,310.35l97.38 -646.62c255.87,-71.21 90.26,30.32 384.32,-5.68l89.15 -30.77c-536.99,-239.78 -645.14,-108.33 -693.45,-855.87 -32.78,-507.05 -27.55,-898.32 85.6,-1378.14 770.04,-63.56 2005.3,350.28 2621.33,732.7 350.42,217.55 153.29,279.92 338.54,714.08l107.42 -93.62c9.31,-8.44 26.11,-24.29 35.42,-32.83 70.86,-65.08 75.12,-75.89 142.8,-134.1 362.69,171.18 681.59,521.82 1022.76,829.96l323.26 -694.79c-298.74,-187.94 -815.16,-274.09 -637.4,-645.64 271.31,-206.16 483.52,-66.82 793.66,13.7 -10.12,-280.97 -9.33,-220.02 -87.7,-443.87 -573.54,-51.19 -1162.87,53.48 -1326.63,-486.42l17.87 -45.37c260.63,-55.76 -214.55,-68.31 317.33,-140.57 191.83,-26.05 316.35,23.28 534.21,-1.52 -113.31,-130.15 -112.42,-227.9 -182.74,-377.24 -326.86,45.36 -1351.32,166.99 -1394.45,-443.73 256.19,-198.21 641.57,-211.1 946.43,-108.74 -50,-121.79 -218.16,-312.89 -326.13,-455.53 -507.35,199.01 -1004.38,75.58 -1350.05,-128.5 23.56,-256.92 37.11,-316.7 355.54,-363.98 273.77,-40.64 374.73,-0.77 610.08,23.62 -208.69,-226.52 -11.6,-101.75 -325.62,-252.67 -398.03,-191.28 -909.63,-490.88 -853.42,-1055.84 930.98,-101.85 950.35,933.36 1348.77,1200.32 164.01,-110.42 780.18,-831.54 904.81,-1072.31 -49.94,-175.35 -109.38,-373.35 -154.93,-527.39 -15.81,-53.48 -48.4,-172.94 -64.18,-216.64l-96.6 -207.24c-133.95,-449.72 -562.32,-1622.67 -803.32,-1923.42 -229.42,214.6 -345.46,479.38 -652.81,581.66l-484.27 27.95c156.77,106.55 193.57,69.53 292.81,268.65 -355.56,277.65 -686.08,586.63 -1012.32,917.44 -223.91,-97.34 -90.19,-132.22 -275.36,-216.48 -93.19,674.54 -351.64,834.67 -1173.78,1371.96l-319.47 -141.22 -3.87 -127.52c3.74,-293.65 39.01,-632.45 166.41,-839.15 255.42,-414.45 -251.16,325.12 98.02,-118.37 95.18,-120.89 38.81,-13.32 75.95,-99.31 3.6,-8.36 8.81,-28.22 11.42,-37.14 2.81,-9.64 3.94,-31.09 6.05,-41.44 139.77,-689.02 364.14,-330.22 771.97,-764.8l247.19 -13.76c-17.82,-13.2 -43.62,-23.67 -58.34,-31.86l-163.41 -90.97c-200.41,-120.76 -67.14,-2.79 -179.95,-127.38 176.61,-175.74 420.18,-441.47 632.06,-592.24 286.62,-203.98 402.77,-194.77 424.1,-205.27 188.27,-92.89 224.14,-124.2 356.72,-273.61 -95.88,-204.15 -21.84,-72.72 -154.75,-245.89 -81.1,-105.66 -61.81,-66.45 -141.42,-160.68l-92.28 241.46c-30.49,294.66 34.95,93.42 58.72,94.07 -434.12,62.02 -978.05,72.76 -1463.1,65.9l34.59 -339.04c-775.34,427.48 -407.74,206.58 -1332.85,266.15l-690.26 -244.51c97.77,-409.75 541.7,-765.96 973.84,-839.07l449.9 134.99c-222.67,-98.05 -181.72,-75.28 -271.47,-249.96 767.07,-144.65 728.89,51.96 1389.01,231.68 -87.24,-192.38 -147.87,-255.69 -245.67,-452.96 763.58,-5.19 1120.72,36.9 1828.14,225.87l-107.66 -319.09c-7.79,10.53 -22.29,30.41 -29.37,39.8 -52.12,69 -12.43,34.49 -79.91,96.04l-1011.51 -1113.6 333.54 -144.62c-204.72,-120.89 -357.81,-97.73 -593.5,-189.75 -284.96,-111.27 -300.81,-346.51 -326.5,-383.86 -0.4,-0.58 -525.99,-349.65 -601.05,-948.31 571.91,-68.6 1244.41,-92.4 1389.11,489.28 7.64,-18.56 14.74,-45.67 20.73,-56.54l48.84 -93.53c6.83,-7.41 21.95,-25.06 29.82,-30.39 319.45,-215.87 709.34,912.23 826.34,1064.73l145.61 -480.74c315.29,228.47 855.93,887.69 1080.64,1414.58l-357.33 111.71c449.55,156.97 375.93,310.72 827.86,141.22 -254.98,-89.36 -267.57,-3.38 -300.95,-88.33 -8.85,-22.53 -37.19,-12.41 -54.29,-21.78 142.03,-305.06 310.48,-558.71 493.33,-806.81 184.05,-249.75 405.74,-369.32 635.31,-557.89l65.34 401.21c781.24,-749.99 374.92,171.64 963.34,587.14z"/>
   <path class="fil1" d="M38087.15 6210.28l516.11 -27.79c0,0 262.02,3511.51 -1127.49,10532.53l-992.51 -220.34c0,1.98 1671.38,-7819.01 1603.89,-10284.4z"/>
   <path class="fil1" d="M42063.15 7008.26l-1288.29 -295.77c-51.61,-11.92 -85.35,-59.56 -81.38,-111.17l17.86 -256.06c1.99,-19.85 -25.81,-29.78 -35.73,-11.92l-156.82 258.06c-21.83,35.73 -63.52,55.58 -107.19,49.63l-609.41 -93.3c-49.62,-7.93 -87.34,-49.63 -91.31,-101.23l-11.91 -238.21c-1.99,-19.85 -25.81,-25.81 -35.74,-7.94l-125.05 218.36c-21.84,39.7 -67.5,59.55 -113.15,51.61l-1117.56 -208.43c-3.96,-1.99 1985.04,-1675.36 3755.68,746.37z"/>
   <path class="fil1" d="M41745.55 3782.59l-470.45 381.13c-27.79,21.83 -65.51,23.82 -93.3,3.97l-148.87 -99.25c-5.96,-3.97 -13.9,1.99 -11.92,9.92l59.56 138.96c13.89,33.74 3.97,73.45 -27.79,95.28l-833.71 601.46c-33.75,23.82 -79.4,21.83 -111.17,-3.97l-212.39 -176.67c-5.96,-5.95 -15.88,1.99 -11.91,9.93l125.05 222.32c21.84,39.7 11.92,91.31 -25.8,117.11l-1832.18 1312.11c0,3.96 1065.96,-3092.67 3594.88,-2612.3z"/>
   <path class="fil1" d="M38388.88 6275.78l-1065.96 398.99c-41.68,15.88 -91.31,3.97 -119.1,-31.76l-160.78 -192.55c-11.92,-15.88 -37.72,-3.96 -33.75,13.9l27.79 236.21c5.96,49.63 -23.82,99.25 -71.46,115.14l-585.58 196.51c-39.71,13.9 -85.36,1.99 -113.15,-31.75l-198.5 -226.3c-13.89,-15.88 -39.7,-1.99 -33.74,17.86l61.53 250.12c11.92,51.61 -13.89,103.22 -61.53,123.07l-1218.8 512.14c1325.98,-2689.7 3573.03,-1381.58 3573.03,-1381.58z"/>
   <path class="fil1" d="M38567.53 6490.17l-1836.15 -1306.15c-37.72,-25.81 -49.63,-77.42 -25.81,-117.11l144.91 -260.04 -244.16 202.48c-31.76,25.81 -77.42,27.79 -111.16,3.97l-835.7 -599.48c-29.78,-21.83 -41.69,-61.53 -27.79,-95.28l67.49 -162.77 -170.71 113.14c-29.78,19.85 -67.49,17.87 -93.29,-3.97l-470.45 -379.13c2528.92,-488.33 3602.82,2604.34 3602.82,2604.34z"/>
   <path class="fil1" d="M39605.69 2375.22l-468.47 1375.62c-9.92,25.81 -29.77,45.65 -57.56,53.59l-154.84 43.68c-15.88,3.96 -17.86,25.8 -3.97,33.74l71.46 37.72c35.74,19.85 53.6,61.53 41.69,99.25l-156.82 512.14c-11.91,39.7 -47.64,65.5 -87.34,65.5l-222.32 5.96c-15.88,0 -23.82,19.85 -11.92,31.75l184.61 168.73c25.81,23.82 35.73,61.54 25.81,95.29l-428.77 1466.93c-1.97,1.98 -795.98,-3398.37 1268.44,-3989.9z"/>
   <path class="fil1" d="M38629.06 6176.53c160.79,35.74 262.02,194.54 226.3,355.32 -35.74,160.79 -194.53,262.02 -355.32,226.3 -160.78,-35.73 -262.02,-194.53 -226.3,-355.32 35.73,-160.79 194.54,-262.03 355.32,-226.3z"/>
   <circle class="fil1" transform="matrix(-0.749044 -0.042193 -0.042193 0.749044 38101.3 6620.61)" r="396.87"/>
   <g>
    <path class="fil1" d="M5386.58 5386.31c0,0 -892.84,6343.45 -4655.36,10505.98l1395.07 833.48c0,0 4068.26,-5286.28 4000.12,-11163.77l-739.83 -175.69z"/>
    <path class="fil1" d="M5683.94 5504.24l975.47 706.34c27.07,20.04 64.75,14.41 86.28,-12.39l167.21 -212.26c17.78,-22.87 54.78,-7.2 51.06,22.72l-41.54 254.19c-4.95,28.18 10.18,55.3 37.06,67.66l1324.41 582.54c49.58,22.46 107.67,5.14 138.77,-41.4l324.33 -488.97c12.81,-20.69 44.4,-9.03 43.2,15.23l-53.83 620.53c-4.66,52.7 29.33,103 80.21,118.05l270.71 78.08c55.33,15.83 115.42,-4.21 149.49,-50.22l267.05 -362.93c12.29,-17.73 39.43,-6.84 38.75,14.44l-38.06 513.21c-3.7,55.93 26.55,110.16 77.35,134.37l1308.33 639.35c-1083.94,-4358.46 -5206.25,-2598.54 -5206.25,-2598.54z"/>
    <path class="fil1" d="M5711.22 5645.11l1753.54 -869.71c55.2,-27.01 83.23,-90.9 64.68,-150.73l-134.36 -445.6c-4.81,-16.14 13.85,-26.62 25.64,-15.38l414.05 428.92c36.06,38.44 92.18,49.81 141.62,29.44l982.5 -405.61c52.94,-22.82 86.82,-76.51 83.1,-133.74l-13.01 -187.3c-1.85,-15.62 19.26,-22.62 29.05,-8.66l75.23 120.23c35.92,56.76 106.78,79.9 167.92,53.93l122.26 -51.95c31.31,-12.85 49.43,-46.37 44.77,-80.83l-62.32 -385.56c-1.85,-15.61 16.55,-24.62 26.85,-13.63l351.61 375.15c18.17,18.48 44.09,27.62 70.87,23.14l1235.73 -254.12c-3850.53,-2577.79 -5379.73,1972.01 -5379.73,1972.01z"/>
    <path class="fil1" d="M792.21 8145.99l1296.67 -662.41c50.49,-26.31 79.67,-79.3 74.46,-136.78l-47.88 -511.47c-2.28,-21.81 25.54,-32.22 37.76,-14.78l273.51 358.39c34.77,45.85 95.52,65.69 150.64,47.84l268.37 -82.89c51.63,-15.4 83.51,-66.39 79.01,-119.17l-64.03 -619.8c-1.77,-24.78 29.28,-36.15 42.47,-15.49l332.61 483.44c30.32,45.08 90.1,61.69 140.07,38.34l1312.78 -606.06c26.59,-12.16 40.7,-40.26 35,-68.79l-45.87 -252.7c-5.7,-28.52 31.1,-46.53 49.97,-23.34l171.29 208.96c21.31,26.67 58.92,30.21 86.82,10.64l963.42 -723.94c0.01,0.01 -4155.25,-1686.27 -5157.07,2690.01z"/>
    <path class="fil1" d="M806.14 3125.42l1201.22 395.79c24.7,7.39 52.96,3.18 72.92,-14.73l393.06 -331.66c12.47,-10.04 28.97,0.5 24.63,16.56l-107.21 375.69c-8.95,33.6 4.86,68.14 35.42,85.73l115.57 64.62c58.4,33.18 131.32,18.45 174.11,-33.68l88.35 -111.4c9.76,-12.05 29.75,-3.96 26.88,12.36l-35.5 184.9c-10.15,57.86 16.6,114.54 66.62,143.19l929.31 516.28c46.09,24.9 103.58,19.7 142.98,-13.14l460.81 -377.87c12.47,-10.05 30.19,2.24 24.36,18.03l-184.89 426.28c-25.24,56.74 -4.77,123.02 47.44,156.65l1640.19 1066.09c0.25,-1.49 -994.13,-4695.92 -5116.27,-2579.69z"/>
    <path class="fil1" d="M6063.81 3557.1l-165.59 -6.12c-45.55,-1.88 -59.65,-60.93 -21.81,-84.87l238.91 -141.57c44.56,-27.35 71.47,-76.15 68.45,-128.66l-29.73 -606.15c-4.08,-72.58 -51.09,-135.87 -120.47,-158.75l-82.47 -26.71c-40.49,-13.22 -40.98,-71.41 -1.74,-85.93l132.13 -47.16c66.81,-23.44 112.9,-85.7 116.23,-156.98l91.72 -1664.36c-2276.67,2456.85 -387,5273.16 -387,5273.16l7 108.27 286.97 -2114.82c14.32,-81.59 -49.19,-155.42 -132.6,-159.35z"/>
    <circle class="fil1" transform="matrix(0.533107 -0.199466 0.199466 0.533107 6099.64 6053.65)" r="767.29"/>
    <circle class="fil1" transform="matrix(0.561022 0.0963008 -0.0963008 0.561022 6005.71 6738.22)" r="767.29"/>
    <circle class="fil1" transform="matrix(0.515755 -0.240884 0.240884 0.515755 5244.33 6240.97)" r="767.29"/>
   </g>
   <path class="fil1" d="M-13121.1 18750.88c368.79,-277.47 1833.15,-438.23 2826.78,-468.86 993.62,-30.65 1386.69,-823.69 1966.2,-1285.55 579.5,-461.85 2627.16,361.53 3568.85,-61.37 941.7,-422.89 1135.61,341.99 1317.09,384.06 181.48,42.07 1441.72,-250.74 1750.96,-662.76 309.24,-412.02 4373.11,-1293.79 4907.96,-1724.74 534.86,-430.96 2312.23,442.25 2312.23,442.25l281.5 3802.22 -4550.74 72.93 -15195.56 300.61c0,0 445.94,-521.31 814.73,-798.79z"/>
   <path class="fil2" d="M30047.81 2811.08c3.65,-219.94 99.91,-345.08 182.87,-447.8 82.96,-102.72 152.62,-183.05 229.39,-265.16 76.74,-82.11 160.61,-166 240.71,-241.65 80.1,-75.64 156.45,-143.05 245.74,-218.34 89.29,-75.27 191.53,-158.44 293.76,-241.61 30.55,169.02 61.1,338.05 118.58,354.73 57.48,16.68 141.89,-118.99 202.8,-222.12 60.9,-103.13 98.29,-173.73 145.86,-240.91 47.58,-67.19 105.33,-130.97 184.88,-193.99 79.54,-63 180.87,-125.25 247.57,-165.16 66.69,-39.91 98.73,-57.48 130.77,-75.07 17.82,63.06 35.64,126.12 26.4,186.93 -9.25,60.8 -45.54,119.36 -19.26,84.17 26.27,-35.17 115.14,-164.08 201.29,-245.62 86.15,-81.53 169.59,-115.67 265.61,-141.27 95.99,-25.61 204.56,-42.67 309.03,-54.77 104.46,-12.09 204.82,-19.23 307.26,2.36 102.44,21.58 206.98,71.87 274.9,108.63 67.92,36.76 99.24,59.98 130.55,83.2 -128.53,207.51 -257.06,415.02 -385.6,622.53 -200.32,171.56 -400.63,343.12 -539.19,435.88 -138.57,92.77 -215.37,106.74 -316.27,125.31 -100.92,18.56 -225.93,41.7 -350.94,64.86 79.68,80.96 159.37,161.92 239.05,242.88 -189.6,153.75 -379.19,307.49 -566.73,445.69 -187.54,138.2 -373.04,260.85 -558.53,383.5 -23.51,-25.18 -47.01,-50.37 -70.52,-75.56 -74.35,-43.55 -148.69,-87.11 -223.03,-130.66 7.74,167.49 15.49,334.97 -113.29,446.39 -128.79,111.42 -394.09,166.77 -571.22,37.06 -177.14,-129.72 -266.1,-444.49 -262.44,-664.43z"/>
   <path class="fil2" d="M30749.77 4028.1c140.42,-169.32 293.79,-206.74 422.78,-235 128.97,-28.26 233.57,-47.35 344.82,-63.4 111.25,-16.06 229.15,-29.06 338.96,-37.97 109.82,-8.92 211.55,-13.76 328.31,-16.65 116.75,-2.88 248.54,-3.82 380.32,-4.76 -81.88,150.98 -163.78,301.97 -129.36,350.94 34.42,48.97 185.14,-4.09 297.17,-46.45 112.02,-42.37 185.35,-74.07 264.5,-96.73 79.14,-22.67 164.1,-36.3 265.57,-35.71 101.47,0.59 219.47,15.41 296.47,25.99 77,10.57 112.99,16.91 148.99,23.23 -25.54,60.35 -51.08,120.69 -96.33,162.35 -45.24,41.66 -110.19,64.65 -67.67,53.63 42.5,-11.01 192.47,-56 310.68,-65.73 118.22,-9.73 204.68,15.83 295.6,55.91 90.92,40.07 186.3,94.67 275.37,150.57 89.07,55.9 171.84,113.11 238.27,194.03 66.42,80.92 116.53,185.55 146.53,256.71 30,71.16 39.91,108.87 49.82,146.57 -230.09,81.51 -460.17,163.01 -690.25,244.52 -263.61,8.56 -527.21,17.12 -693.34,2.82 -166.14,-14.29 -234.8,-51.43 -325.14,-100.06 -90.35,-48.63 -202.36,-108.78 -314.38,-168.91 11.53,113.01 23.06,226.03 34.59,339.04 -244.1,1.36 -488.19,2.72 -720.95,-6.76 -232.77,-9.48 -454.22,-29.82 -675.67,-50.14 -2.58,-34.36 -5.16,-68.71 -7.75,-103.07 -30.76,-80.48 -61.52,-160.97 -92.29,-241.45 -98.72,135.52 -197.44,271.04 -367.61,277.42 -170.17,6.38 -411.79,-116.39 -468.85,-328.38 -57.07,-212.01 70.41,-513.24 210.84,-682.56z"/>
  </g>
 </g>
</svg>
