<?xml version="1.0" encoding="utf-8"?><svg version="1.1" id="layer-3" xmlns="http://www.w3.org/2000/svg" xmlns:xlink="http://www.w3.org/1999/xlink" x="0px" y="0px" viewBox="0 0 1077 683" style="enable-background:new 0 0 1077 683;" xml:space="preserve"><style type="text/css">.st0{fill:#FC7D48;}.st1{fill:#FF9E49;}</style><g id="XMLID_38_"><g id="XMLID_34_"><polygon id="XMLID_32_" class="st0" points="869.4,283.4 952.8,228 996.9,255.7 1077,204 1077,352.1 860.6,352.1 "/><polygon id="XMLID_35_" class="st1" points="952.8,228 983.2,264.7 996.9,255.7 "/></g><g id="XMLID_36_"><polygon id="XMLID_11_" class="st0" points="304.6,180 565.7,366.9 173.1,366.9 173.1,275.6 "/><polygon id="XMLID_33_" class="st1" points="304.6,180 328.6,228 310.5,228 356.8,267.4 399.1,247.6 "/></g><g id="XMLID_37_"><path id="XMLID_242_" class="st0" d="M173.1,331.7c0,0,77.1-8,265.5-103.6h33.9l11.3-14l160.4-70.3L1077,324v359H0L173.1,331.7z"/><g id="XMLID_243_"><polygon id="XMLID_246_" class="st1" points="644.3,143.8 769.9,236 676,222 859.2,317.7 1077,324 "/><polygon id="XMLID_247_" class="st1" points="859.2,317.7 743.6,399.7 897.7,317.7 "/></g><polygon id="XMLID_249_" class="st1" points="472.5,228 430.3,264.7 456.7,228 "/></g></g><g id="XMLID_2_"><g id="XMLID_29_"><polygon id="XMLID_62_" class="st0" points="2.8,304.7 100,249.4 151.5,277 244.9,225.3 244.9,373.4 0,683 "/><polygon id="XMLID_43_" class="st1" points="100,249.4 135.5,286 151.5,277 "/></g><g id="XMLID_3_"><line id="XMLID_69_" class="st0" x1="244.9" y1="345.4" x2="244.9" y2="482.3"/><g id="XMLID_22_"><line id="XMLID_68_" class="st1" x1="-9" y1="339.1" x2="244.9" y2="345.4"/><line id="XMLID_65_" class="st1" x1="35.8" y1="339.1" x2="-9" y2="339.1"/></g></g></g></svg>