<?xml version="1.0" encoding="utf-8"?><svg version="1.1" id="layer-4" xmlns="http://www.w3.org/2000/svg" xmlns:xlink="http://www.w3.org/1999/xlink" x="0px" y="0px" viewBox="0 0 1077 683" style="enable-background:new 0 0 1077 683;" xml:space="preserve"><style type="text/css">.st0{fill:#EF4335;}</style><path id="XMLID_73_" class="st0" d="M1062.6,352.1C1062.6,352.1,1062.6,352.1,1062.6,352.1c0-1.4-1-2.7-2.1-3.8c-1.3-1.2-2.1-2.5-3.2-3.8c-1.2-1.5-2.6-2.7-2.8-4.5c2.2-1.5,4.3,3.4,7.2,2.7c2-0.5,1-2.7-0.2-4c-2.7-3-4.5-6.3-5.5-9.8c-0.5-1.7-0.9-3.5-1.2-5.3c-0.1-0.7,0-4.5-2.2-3.5c-0.6,0.3-0.9,0.9-1,1.5c-0.9,2.9-1.7,5.9-2.8,8.8c-0.8,2.3-1.2,5.5-3.2,7.4c-1.1,1.1-2.4,1.9-2.3,3.4c0,0.1,0,0.2,0.1,0.3c0.1,0.2,0.4,0.2,0.6,0.3c2.3,0.6,3.9-0.7,5.4-1.8c0.2-0.2,0.4-0.3,0.7-0.4c0.3-0.1,0.6-0.1,0.8,0.1c0.5,0.4,0.1,1.5,0,2c-0.3,1.5-1.3,2.9-2.5,4.1c-1.9,2-4.5,3.6-6,5.8c-0.1,0.1-0.2,0.3-0.3,0.5h-11.6l-78.1,58c-1.3-2.1-3.7-3.7-5.6-5.5c-1.1-1.1-2.1-2.2-2.6-3.5c-0.1-0.3-0.7-1.5-0.4-1.8c0.6-0.7,1.6,0.2,1.9,0.6c0.5,0.6,1.1,1.3,1.7,1.9c0.5,0.5,1,0.9,1.6,1.2c0.7,0.3,1.5,0.4,2.2,0.2c0.9-0.3,1.4-1.1,1.4-1.9c0.1-1.2-0.6-2.3-1.5-3.3c-0.9-1-2-1.8-3.1-2.7c-0.8-0.6-1.6-1.3-2.3-2c-0.8-0.7-4.1-5.3-1.6-5.9c0.6-0.1,1.2,0.1,1.7,0.4c0.5,0.3,0.8,0.7,1.2,1.1c1,0.8,2.4,1.3,3.9,1.2c0.4,0,0.7-0.1,1-0.2c0.5-0.3,0.6-0.7,0.7-1.2c0-1.4-1-2.6-2.2-3.8c-1.3-1.2-2.1-2.5-3.2-3.8c-1.2-1.5-2.6-2.7-2.8-4.5c2.2-1.5,4.3,3.4,7.2,2.7c2-0.5,1-2.7-0.2-4c-2.7-3-4.5-6.3-5.5-9.8c-0.5-1.7-0.9-3.5-1.2-5.3c-0.1-0.7,0-4.5-2.2-3.5c-0.6,0.3-0.9,0.9-1,1.5c-0.9,2.9-1.7,5.9-2.8,8.8c-0.8,2.3-1.2,5.5-3.2,7.4c-1.1,1.1-2.4,1.9-2.3,3.4c0,0.1,0,0.2,0.1,0.3c0.1,0.2,0.4,0.2,0.6,0.3c2.3,0.6,3.9-0.7,5.4-1.8c0.2-0.1,0.4-0.3,0.7-0.4c0.3-0.1,0.6-0.1,0.8,0.1c0.5,0.4,0.1,1.5,0,2c-0.3,1.5-1.3,2.9-2.5,4.1c-1.9,2-4.5,3.6-6,5.8c-0.3,0.4-0.6,0.9-0.5,1.4c0.1,1,1.4,1.5,2.5,1.5c1.6,0.1,2.5-0.8,3-1.8c0.4-0.7,0.7-1.4,1.6-1.7c0.2-0.1,0.5-0.1,0.7,0c0.1,0.1,0.1,0.1,0.1,0.2c0.1,1.4-0.3,2.8-1.1,4.1c-0.8,1.3-2.1,2.2-3.6,3.2c-0.8,0.5-1.5,1.1-2.1,1.8c-0.4,0.5-0.6,1.1-0.5,1.6c0.1,0.6,0.6,1.1,1.3,1.3c1,0.3,2.1-0.1,2.8-0.7c0.4-0.3,2.5-2.8,3.2-1.8c0.3,0.3-0.3,1.7-0.4,2.1c-0.4,1.3-0.9,2.6-1.6,3.9c-0.1,0.1-0.2,0.3-0.3,0.4l-4.2-3.1h-45.7c0.1-1.9-1.5-3.9-3-5.2c-2.4-2.1-5.4-4.5-4.8-7.3c2.5,0.2,3.2,3.4,5.7,3.3c1.9,0,2.6-1.9,2.2-3.2c-0.9-2.9-4.1-4.9-6.4-7.1c-1.1-1.1-2.1-2.2-2.6-3.5c-0.1-0.3-0.7-1.5-0.4-1.8c0.6-0.7,1.6,0.2,1.9,0.6c0.5,0.6,1.1,1.3,1.7,1.9c0.5,0.5,1,0.9,1.6,1.2c0.7,0.3,1.5,0.4,2.2,0.2c0.9-0.3,1.4-1.1,1.4-1.9c0.1-1.2-0.6-2.3-1.5-3.3c-0.9-1-2-1.8-3.1-2.7c-0.8-0.6-1.6-1.3-2.3-2c-0.8-0.7-4.1-5.3-1.6-5.9c0.6-0.1,1.2,0.1,1.7,0.4c0.5,0.3,0.8,0.7,1.2,1.1c1,0.8,2.4,1.3,3.9,1.2c0.4,0,0.7-0.1,1-0.2c0.5-0.3,0.6-0.7,0.7-1.2c0-1.4-1-2.6-2.2-3.8c-1.3-1.2-2.1-2.5-3.2-3.8c-1.2-1.5-2.6-2.7-2.8-4.5c2.2-1.5,4.3,3.4,7.2,2.7c2-0.5,1-2.7-0.2-4c-2.7-3-4.5-6.3-5.5-9.8c-0.5-1.7-0.9-3.5-1.2-5.3c-0.1-0.7,0-4.5-2.2-3.5c-0.6,0.3-0.9,0.9-1,1.5c-0.9,2.9-1.7,5.9-2.8,8.8c-0.8,2.3-1.2,5.5-3.2,7.4c-1.1,1.1-2.4,1.9-2.3,3.4c0,0.1,0,0.2,0.1,0.3c0.1,0.2,0.4,0.2,0.6,0.3c2.3,0.6,3.9-0.7,5.4-1.8c0.2-0.1,0.4-0.3,0.7-0.4c0.3-0.1,0.6-0.1,0.8,0.1c0.5,0.4,0.1,1.5,0,2c-0.3,1.5-1.3,2.9-2.5,4.1c-1.9,2-4.5,3.6-6,5.8c-0.3,0.4-0.6,0.9-0.5,1.4c0.1,1,1.4,1.5,2.5,1.5c1.6,0.1,2.5-0.8,3-1.8c0.4-0.7,0.7-1.4,1.6-1.7c0.2-0.1,0.5-0.1,0.7,0c0.1,0.1,0.1,0.1,0.1,0.2c0.1,1.4-0.3,2.8-1.1,4.1c-0.8,1.3-2.1,2.2-3.6,3.2c-0.8,0.5-1.5,1.1-2.1,1.8c-0.4,0.5-0.6,1.1-0.5,1.6c0.1,0.6,0.6,1.1,1.3,1.3c1,0.3,2.1-0.1,2.8-0.7c0.4-0.3,2.5-2.8,3.2-1.8c0.3,0.3-0.3,1.7-0.4,2.1c-0.4,1.3-0.9,2.6-1.6,3.9c-1.4,2.6-3.5,4.9-6.1,6.9c-1.1,0.8-2.4,1.8-2.3,3c0.1,1.6,2.8,2.3,4.6,1.9c2.5-0.5,2.4-2.5,4.3-3.5c0.1-0.1,0.3-0.1,0.4-0.1c0.4,0,0.4,0.4,0.4,0.7c-0.6,2.7-2,5.2-4.1,7.4c-1.1,1.1-2.3,2.2-3.2,3.4c-0.2,0.3-0.4,0.7-0.6,1h-12.9c-0.5-0.7-1.1-1.4-1.8-1.9c-0.9-0.7-1.9-1.2-2.7-1.9c-0.6-0.4-2.9-3.4-0.5-3.3c0.3,0,0.6,0.1,0.8,0.3c0.6,0.4,0.9,0.9,1.5,1.3c0.5,0.4,1.4,0.7,2.1,0.5c1-0.3,0.9-1.4,0.6-2.1c-0.7-1.6-1.9-3.1-3.3-4.4c-1.3-1.2-3.6-2.4-2.9-4.1c0.1-0.2,0.2-0.4,0.5-0.6c0.4-0.2,1-0.2,1.5,0c0.5,0.2,0.8,0.5,1.1,0.8c0.5,0.4,2.6,3,3.5,1.6c0.1-0.2,0.1-0.4,0.1-0.6c-0.1-2-1-3.9-2.5-5.6c-1.4-1.5-3.3-2.8-4.2-4.4c-0.5-1-0.6-2.8,1.2-2.8c1.6,0,2.7,1.4,3.9,1.9c1,0.4,2.5,0.3,2.8-0.5c0.1-0.3,0-0.7-0.1-1c-0.7-1.8-2.1-3.6-3.9-4.9c-1.7-1.3-3.2-2-4.2-3.8c-0.4-0.7-0.6-1.6,0.3-2c0.6-0.3,1.5-0.1,2.1,0.3s1,0.9,1.5,1.3c0.6,0.4,1.4,0.6,2.1,0.3c0.5-0.2,0.7-0.8,0.6-1.2c-0.1-0.4-0.4-0.8-0.7-1.2c-1-1.3-2.2-2.5-3.2-3.7c-0.8-1-2.2-2.2-2.4-3.3c-0.1-0.4,0-0.9,0.5-1.1c0.3-0.1,0.8,0,1.1,0.1c0.3,0.2,0.5,0.4,0.8,0.6c0.6,0.4,1.3,0.7,2.1,0.8c0.5,0.1,1.1,0,1.4-0.3c0.3-0.2,0.3-0.6,0.3-0.9c-0.2-1.3-1.6-2.3-2.9-3.2c-0.8-0.6-4.9-4.3-3-5.1c1.5-0.6,3.4,2.8,4.9,1.4c0.4-0.4,0.4-1,0.2-1.4c-0.2-0.5-0.7-1-1.3-1.3c-0.7-0.4-1.6-0.7-2.4-1c-1-0.4-3.5-3-1.7-3.6c1.4-0.5,2.4,1.1,3.4,1.5c0.3,0.1,0.8,0.2,1.1,0c0,0,0,0,0,0c0.1-0.1,0.1-0.2,0.1-0.3c0.1-1.6-1-3.2-2.2-4.5c-1.2-1.4-2.5-2.7-2.9-4.4c-0.1-0.3-0.1-0.6,0.1-0.8c0.2-0.3,0.5-0.5,0.9-0.4c0.6,0.1,0.2,0.9,0.8,1.2c0.5,0.3,1.4,0.2,1.8,0c0.8-0.4,1-1.3,0.7-2c-0.3-0.7-0.9-1.3-1.5-1.9c-1.8-1.9-3-4-3.6-6.3c-0.6-2.2-0.1-4.3-0.2-6.5c0-0.6,0.1-3.5-1.2-3.5c-1.2,0.1-1.3,2.6-1.4,3.2c-0.4,4.9-1,10.2-5.2,14c-0.6,0.5-1.2,1-1.3,1.6c-0.1,0.6,0.4,1.3,1.1,1.5c0.7,0.3,1.7,0.2,2.3-0.3c0.4-0.3,0.9-1.1,1.6-0.6c0.3,0.2,0.4,0.5,0.4,0.8c0.2,2-1.1,4-2.6,5.7c-1.5,1.7-3.1,3.4-4,5.3c-0.3,0.6-0.4,1.3-0.2,1.9c0.2,0.6,0.9,1.2,1.8,1.2c1.4,0.1,1.6-0.9,2.7-1.3c0.5-0.2,1.3-0.2,1.7,0.1c0.3,0.2,0.3,0.5,0.3,0.8c-0.1,1.5-1.9,2.6-3.4,3.7c-1.7,1.2-3,2.8-3.9,4.4c-0.2,0.5-0.4,1-0.4,1.5c0,0.5,0.3,1.1,0.9,1.3c0.9,0.4,2.2,0.2,2.9-0.4c0.8-0.5,1.2-1.3,1.8-2c0.3-0.4,0.7-0.8,1.3-0.9c2.4-0.4,0.7,2.6,0.2,3.1c-2.9,2.8-6.8,5.5-6.6,9c0,0.6,0.3,1.2,1,1.4c1,0.3,2-0.4,2.7-1.1c0.4-0.4,3.1-4.6,3.5-2.4c0.3,2.1-1.8,3-3.3,4.4c-1.7,1.6-3,3.4-3.8,5.3c-0.3,0.8-0.4,2,0.7,2.3c1.7,0.5,2.2-1.2,3.2-1.7c1-0.6,2.5-0.3,2.8,0.7c0.2,0.6-0.1,1.3-0.6,1.8c-1.8,2.3-5.4,3.7-6.6,6.2c-0.3,0.7-0.4,1.6,0.4,2c1.3,0.7,2.6-0.5,3.4-1.1c0.3-0.2,0.6-0.4,1-0.4c0.4,0,0.7,0.3,0.8,0.6c0.1,0.3,0,0.6-0.1,0.9c-1.1,2.6-4.1,3.7-6.1,5.7c-0.9,0.9-1.5,1.9-1.8,3c-0.1,0.5-0.1,1.1,0.1,1.6c0.3,0.5,0.9,0.9,1.7,0.9c0.9,0,1.6-0.7,1.9-1.3c0.3-0.6,0.5-1.4,1.2-1.9c0.8-0.6,2.5-0.5,2.6,0.5c0.1,0.8-1.6,1.8-2.1,2.4c-1.2,1.4-2.3,2.8-3.5,4.2h-14l-36.1,26.8c-0.6-0.6-1.4-1.2-2.1-1.7c-2.4-1.8-4.1-4.1-5-6.5c1.1,1,2.4,2,3.8,2.7c1,0.6,2.1,0.5,2.5-0.5c0.2-0.4,0.1-0.9,0.1-1.3c-0.1-0.9-0.3-1.9-0.9-2.8c-0.9-1.5-2.6-2.6-4-3.8c-1.4-1.2-2.6-2.9-2.1-4.4c0.1-0.3,0.2-0.5,0.5-0.6c0.5-0.2,1.1,0.1,1.4,0.5c0.6,0.8,0.6,1.3,2,1c0.9-0.2,1.6-1.1,1.5-1.8c0-0.6-0.4-1.1-0.8-1.6c-2.1-2.6-6.1-5-5.5-8.4c0-0.2,0.1-0.5,0.4-0.7c0.6-0.4,1.5,0.1,2,0.6c0.5,0.5,1.1,1.1,1.9,0.9c0.7-0.2,0.7-1,0.5-1.5c-0.9-2.6-3.1-4.7-4.5-7.2c-0.4-0.6-0.7-1.3-0.6-2c0-0.1,0.1-0.3,0.2-0.4c0.3-0.2,0.8-0.2,1.1,0c0.7,0.5,0.8,1.4,2,1.5c1.1,0.1,2-0.9,1.9-1.7c-0.1-0.8-0.8-1.6-1.4-2.3c-4.4-5.3-4.4-12.2-7.1-18c-0.1-0.2-0.2-0.5-0.5-0.6c-0.5-0.3-1.3,0-1.6,0.4c-0.3,0.4-0.2,0.9-0.1,1.4c0.6,4-0.4,8-1.4,11.9c-0.4,1.5-0.8,3-1.5,4.4c-0.9,1.8-2.3,3.5-3.3,5.4c-0.5,0.9-0.6,2.3,0.6,2.6c1.6,0.4,2.7-1.5,4.4-1.5c2.7,0.1,0.6,2.8,0.1,3.6c-1.2,1.8-3.2,3.5-3.3,5.6c0,0.3,0,0.6,0.2,0.8c1.5,1.7,3.5-1,4.1-1.7c0.3-0.3,0.9-0.5,1.3-0.3c0.4,0.2,0.4,0.6,0.4,1c-0.6,4.2-6.4,6.8-8,10.8c-0.2,0.5-0.3,1.1,0,1.5c0.7,1.1,3,0.8,4.1,0c0.8-0.6,1.3-1.4,2.1-2c0.8-0.6,2.4-0.9,2,0.5c-0.1,0.5-0.6,0.9-1,1.2c-1.3,1-2.5,2.1-3.9,3c-0.7,0.5-1.5,1-2,1.5c-0.7,0.7-1.1,1.6-1.4,2.4c-0.3,0.7-0.6,1.7,0.2,2.2c0.5,0.3,1.3,0.3,1.8,0.1c0.6-0.2,1.1-0.6,1.5-0.9c0.7-0.6,1.3-1.3,1.8-2c0.3-0.2,0.8,0,1,0.3c0.2,0.3,0.1,0.6,0.1,0.8c-0.5,2.3-2,3.4-4.2,4.9c-2.4,1.6-5.2,3.3-5.5,5.7c-0.1,0.4,0,0.9,0.3,1.3h-84.3c0-0.1,0-0.2,0-0.3c0-1.4-1-2.6-2.2-3.8c-1.3-1.2-2.1-2.5-3.2-3.8c-1.2-1.5-2.6-2.7-2.8-4.5c2.2-1.5,4.3,3.4,7.2,2.7c2-0.5,1-2.7-0.2-4c-2.7-3-4.5-6.3-5.5-9.8c-0.5-1.7-0.9-3.5-1.2-5.3c-0.1-0.7,0-4.5-2.2-3.5c-0.6,0.3-0.9,0.9-1,1.5c-0.9,2.9-1.7,5.9-2.8,8.8c-0.8,2.3-1.2,5.5-3.2,7.4c-1.1,1.1-2.4,1.9-2.3,3.4c0,0.1,0,0.2,0.1,0.3c0.1,0.2,0.4,0.2,0.6,0.3c2.3,0.6,3.9-0.7,5.4-1.8c0.2-0.1,0.4-0.3,0.7-0.4c0.3-0.1,0.6-0.1,0.8,0.1c0.5,0.4,0.1,1.5,0,2c-0.3,1.5-1.3,2.9-2.5,4.1c-1.9,2-4.5,3.6-6,5.8c-0.3,0.4-0.6,0.9-0.5,1.4c0.1,1,1.4,1.5,2.5,1.5c1.6,0.1,2.5-0.8,3-1.8c0.4-0.7,0.7-1.4,1.6-1.7c0.2-0.1,0.5-0.1,0.7,0c0.1,0.1,0.1,0.1,0.1,0.2c0.1,1.2-0.2,2.4-0.8,3.6l-14.1,3.7c0,0,0,0,0,0c-0.9-2.9-4.1-4.9-6.4-7.1c-1.1-1.1-2.1-2.2-2.6-3.5c-0.1-0.3-0.7-1.5-0.4-1.8c0.6-0.7,1.6,0.2,1.9,0.6c0.5,0.6,1.1,1.3,1.7,1.9c0.5,0.5,1,0.9,1.6,1.2c0.7,0.3,1.5,0.4,2.2,0.2c0.9-0.3,1.4-1.1,1.4-1.9c0.1-1.2-0.6-2.3-1.5-3.3c-0.9-1-2-1.8-3.1-2.7c-0.8-0.6-1.6-1.3-2.3-2c-0.8-0.7-4.1-5.3-1.6-5.9c0.6-0.1,1.2,0.1,1.7,0.4c0.5,0.3,0.8,0.7,1.2,1.1c1,0.8,2.4,1.3,3.9,1.2c0.4,0,0.7-0.1,1-0.2c0.5-0.3,0.6-0.7,0.7-1.2c0-1.4-1-2.6-2.2-3.8c-1.3-1.2-2.1-2.5-3.2-3.8c-1.2-1.5-2.6-2.7-2.8-4.5c2.2-1.5,4.3,3.4,7.2,2.7c2-0.5,1-2.7-0.2-4c-2.7-3-4.5-6.3-5.5-9.8c-0.5-1.7-0.9-3.5-1.2-5.3c-0.1-0.7,0-4.5-2.2-3.5c-0.6,0.3-0.9,0.9-1,1.5c-0.9,2.9-1.7,5.9-2.8,8.8c-0.8,2.3-1.2,5.5-3.2,7.4c-1.1,1.1-2.4,1.9-2.3,3.4c0,0.1,0,0.2,0.1,0.3c0.1,0.2,0.4,0.2,0.6,0.3c2.3,0.6,3.9-0.7,5.4-1.8c0.2-0.1,0.4-0.3,0.7-0.4c0.3-0.1,0.6-0.1,0.8,0.1c0.5,0.4,0.1,1.5,0,2c-0.3,1.5-1.3,2.9-2.5,4.1c-1.9,2-4.5,3.6-6,5.8c-0.3,0.4-0.6,0.9-0.5,1.4c0.1,1,1.4,1.5,2.5,1.5c1.6,0.1,2.5-0.8,3-1.8c0.4-0.7,0.7-1.4,1.6-1.7c0.2-0.1,0.5-0.1,0.7,0c0.1,0.1,0.1,0.1,0.1,0.2c0.1,1.4-0.3,2.8-1.1,4.1c-0.8,1.3-2.1,2.2-3.6,3.2c-0.8,0.5-1.5,1.1-2.1,1.8c-0.4,0.5-0.6,1.1-0.5,1.6c0.1,0.6,0.6,1.1,1.3,1.3c1,0.3,2.1-0.1,2.8-0.7c0.4-0.3,2.5-2.8,3.2-1.8c0.3,0.3-0.3,1.7-0.4,2.1c-0.4,1.3-0.9,2.6-1.6,3.9c-1.4,2.6-3.5,4.9-6.1,6.9c-1.1,0.8-2.4,1.8-2.3,3c0.1,1.6,2.8,2.3,4.6,1.9c2.5-0.5,2.4-2.5,4.3-3.5c0.1-0.1,0.3-0.1,0.4-0.1c0.4,0,0.4,0.4,0.4,0.7c-0.3,1.2-0.8,2.5-1.4,3.6l-22.8,6.1c-0.5-0.4-1-0.9-1.5-1.3c-0.8-0.7-4.1-5.3-1.6-5.9c0.6-0.1,1.2,0.1,1.7,0.4c0.5,0.3,0.8,0.7,1.2,1.1c1,0.8,2.4,1.3,3.9,1.2c0.4,0,0.7-0.1,1-0.2c0.5-0.3,0.6-0.7,0.7-1.2c0-1.4-1-2.6-2.2-3.8c-1.3-1.2-2.1-2.5-3.2-3.8c-1.2-1.5-2.6-2.7-2.8-4.5c2.2-1.5,4.3,3.4,7.2,2.7c2-0.5,1-2.7-0.2-4c-2.7-3-4.5-6.3-5.5-9.8c-0.5-1.7-0.9-3.5-1.2-5.3c-0.1-0.7,0-4.5-2.2-3.5c-0.6,0.3-0.9,0.9-1,1.5c-0.9,2.9-1.7,5.9-2.8,8.8c-0.8,2.3-1.2,5.5-3.2,7.4c-1.1,1.1-2.4,1.9-2.3,3.4c0,0.1,0,0.2,0.1,0.3c0.1,0.2,0.4,0.2,0.6,0.3c2.3,0.6,3.9-0.7,5.4-1.8c0.2-0.1,0.4-0.3,0.7-0.4c0.3-0.1,0.6-0.1,0.8,0.1c0.5,0.4,0.1,1.5,0,2c-0.3,1.5-1.3,2.9-2.5,4.1c-1.9,2-4.5,3.6-6,5.8c-0.3,0.4-0.6,0.9-0.5,1.4c0.1,1,1.4,1.5,2.5,1.5c1.6,0.1,2.5-0.8,3-1.8c0.4-0.7,0.7-1.4,1.6-1.7c0.2-0.1,0.5-0.1,0.7,0c0.1,0.1,0.1,0.1,0.1,0.2c0.1,1.4-0.3,2.8-1.1,4.1c-0.8,1.3-2.1,2.2-3.6,3.2c-0.8,0.5-1.5,1.1-2.1,1.8c-0.4,0.5-0.6,1.1-0.5,1.6l-14.5,3.8h-52.4l-25.6-8.8c-0.9-0.9-2-1.8-3-2.6c-0.8-0.6-1.6-1.3-2.3-2c-0.8-0.7-4.1-5.3-1.6-5.9c0.6-0.1,1.2,0.1,1.7,0.4c0.5,0.3,0.8,0.7,1.2,1.1c1,0.8,2.4,1.3,3.9,1.2c0.4,0,0.7-0.1,1-0.2c0.5-0.3,0.6-0.7,0.7-1.2c0-1.4-1-2.6-2.2-3.8c-1.3-1.2-2.1-2.5-3.2-3.8c-1.2-1.5-2.6-2.7-2.8-4.5c2.2-1.5,4.3,3.4,7.2,2.7c2-0.5,1-2.7-0.2-4c-2.7-3-4.5-6.3-5.5-9.8c-0.5-1.7-0.9-3.5-1.2-5.3c-0.1-0.7,0-4.5-2.2-3.5c-0.6,0.3-0.9,0.9-1,1.5c-0.9,2.9-1.7,5.9-2.8,8.8c-0.8,2.3-1.2,5.5-3.2,7.4c-1.1,1.1-2.4,1.9-2.3,3.4c0,0.1,0,0.2,0.1,0.3c0.1,0.2,0.4,0.2,0.6,0.3c2.3,0.6,3.9-0.7,5.4-1.8c0.2-0.1,0.4-0.3,0.7-0.4c0.3-0.1,0.6-0.1,0.8,0.1c0.5,0.4,0.1,1.5,0,2c-0.3,1.5-1.3,2.9-2.5,4.1c-1.9,2-4.5,3.6-6,5.8c-0.3,0.4-0.6,0.9-0.5,1.4c0.1,1,1.4,1.5,2.5,1.5c1.6,0.1,2.5-0.8,3-1.8c0.4-0.7,0.7-1.4,1.6-1.7c0.2-0.1,0.5-0.1,0.7,0c0.1,0.1,0.1,0.1,0.1,0.2c0.1,1.4-0.3,2.8-1.1,4.1c-0.3,0.5-0.6,0.8-1,1.2L479,440c0-1.1-0.6-2.2-1.5-3.1c-0.9-1-2-1.8-3.1-2.7c-0.8-0.6-1.6-1.3-2.3-2c-0.8-0.7-4.1-5.3-1.6-5.9c0.6-0.1,1.2,0.1,1.7,0.4c0.5,0.3,0.8,0.7,1.2,1.1c1,0.8,2.4,1.3,3.9,1.2c0.4,0,0.7-0.1,1-0.2c0.5-0.3,0.6-0.7,0.7-1.2c0-1.4-1-2.6-2.2-3.8c-1.3-1.2-2.1-2.5-3.2-3.8c-1.2-1.5-2.6-2.7-2.8-4.5c2.2-1.5,4.3,3.4,7.2,2.7c2-0.5,1-2.7-0.2-4c-2.7-3-4.5-6.3-5.5-9.8c-0.5-1.7-0.9-3.5-1.2-5.3c-0.1-0.7,0-4.5-2.2-3.5c-0.6,0.3-0.9,0.9-1,1.5c-0.9,2.9-1.7,5.9-2.8,8.8c-0.8,2.3-1.2,5.5-3.2,7.4c-1.1,1.1-2.4,1.9-2.3,3.4c0,0.1,0,0.2,0.1,0.3c0.1,0.2,0.4,0.2,0.6,0.3c2.3,0.6,3.9-0.7,5.4-1.8c0.2-0.1,0.4-0.3,0.7-0.4c0.3-0.1,0.6-0.1,0.8,0.1c0.5,0.4,0.1,1.5,0,2c-0.3,1.5-1.3,2.9-2.5,4.1c-1.9,2-4.5,3.6-6,5.8c-0.3,0.4-0.6,0.9-0.5,1.4c0.1,1,1.4,1.5,2.5,1.5c1.6,0.1,2.5-0.8,3-1.8c0.4-0.7,0.7-1.4,1.6-1.7c0.2-0.1,0.5-0.1,0.7,0c0.1,0.1,0.1,0.1,0.1,0.2c0.1,1.4-0.3,2.8-1.1,4.1c-0.8,1.3-2.1,2.1-3.5,3.1l-13.2-4.5c-0.4-1.5-1.6-2.9-2.9-4c-2.4-2.1-5.4-4.5-4.8-7.3c2.5,0.2,3.2,3.4,5.7,3.3c1.9,0,2.6-1.9,2.2-3.2c-0.9-2.9-4.1-4.9-6.4-7.1c-1.1-1.1-2.1-2.2-2.6-3.5c-0.1-0.3-0.7-1.5-0.4-1.8c0.6-0.7,1.6,0.2,1.9,0.6c0.5,0.6,1.1,1.3,1.7,1.9c0.5,0.5,1,0.9,1.6,1.2c0.7,0.3,1.5,0.4,2.2,0.2c0.9-0.3,1.4-1.1,1.4-1.9c0.1-1.2-0.6-2.3-1.5-3.3c-0.9-1-2-1.8-3.1-2.7c-0.8-0.6-1.6-1.3-2.3-2c-0.8-0.7-4.1-5.3-1.6-5.9c0.6-0.1,1.2,0.1,1.7,0.4c0.5,0.3,0.8,0.7,1.2,1.1c1,0.8,2.4,1.3,3.9,1.2c0.4,0,0.7-0.1,1-0.2c0.5-0.3,0.6-0.7,0.7-1.2c0-1.4-1-2.6-2.2-3.8c-1.3-1.2-2.1-2.5-3.2-3.8c-1.2-1.5-2.6-2.7-2.8-4.5c2.2-1.5,4.3,3.4,7.2,2.7c2-0.5,1-2.7-0.2-4c-2.7-3-4.5-6.3-5.5-9.8c-0.5-1.7-0.9-3.5-1.2-5.3c-0.1-0.7,0-4.5-2.2-3.5c-0.6,0.3-0.9,0.9-1,1.5c-0.9,2.9-1.7,5.9-2.8,8.8c-0.8,2.3-1.2,5.5-3.2,7.4c-1.1,1.1-2.4,1.9-2.3,3.4c0,0.1,0,0.2,0.1,0.3c0.1,0.2,0.4,0.2,0.6,0.3c2.3,0.6,3.9-0.7,5.4-1.8c0.2-0.1,0.4-0.3,0.7-0.4c0.3-0.1,0.6-0.1,0.8,0.1c0.5,0.4,0.1,1.5,0,2c-0.3,1.5-1.3,2.9-2.5,4.1c-1.9,2-4.5,3.6-6,5.8c-0.3,0.4-0.6,0.9-0.5,1.4c0.1,1,1.4,1.5,2.5,1.5c1.6,0.1,2.5-0.8,3-1.8c0.4-0.7,0.7-1.4,1.6-1.7c0.2-0.1,0.5-0.1,0.7,0c0.1,0.1,0.1,0.1,0.1,0.2c0.1,1.4-0.3,2.8-1.1,4.1c-0.8,1.3-2.1,2.2-3.6,3.2c-0.8,0.5-1.5,1.1-2.1,1.8c-0.4,0.5-0.6,1.1-0.5,1.6c0.1,0.6,0.6,1.1,1.3,1.3c1,0.3,2.1-0.1,2.8-0.7c0.4-0.3,2.5-2.8,3.2-1.8c0.3,0.3-0.3,1.7-0.4,2.1c-0.4,1.3-0.9,2.6-1.6,3.9c-1.4,2.6-3.5,4.9-6.1,6.9c-1.1,0.8-2.4,1.8-2.3,3c0.1,1.6,2.8,2.3,4.6,1.9c2.5-0.5,2.4-2.5,4.3-3.5c0.1-0.1,0.3-0.1,0.4-0.1c0.4,0,0.4,0.4,0.4,0.7c-0.4,1.7-1.2,3.4-2.2,5l-22.2-7.6c0.8-0.4,1.1-1.1,1.2-1.8c0.1-1.2-0.6-2.3-1.5-3.3c-0.9-1-2-1.8-3.1-2.7c-0.8-0.6-1.6-1.3-2.3-2c-0.8-0.7-4.1-5.3-1.6-5.9c0.6-0.1,1.2,0.1,1.7,0.4c0.5,0.3,0.8,0.7,1.2,1.1c1,0.8,2.4,1.3,3.9,1.2c0.4,0,0.7-0.1,1-0.2c0.5-0.3,0.6-0.7,0.7-1.2c0-1.4-1-2.6-2.2-3.8c-1.3-1.2-2.1-2.5-3.2-3.8c-1.2-1.5-2.6-2.7-2.8-4.5c2.2-1.5,4.3,3.4,7.2,2.7c2-0.5,1-2.7-0.2-4c-2.7-3-4.5-6.3-5.5-9.8c-0.5-1.7-0.9-3.5-1.2-5.3c-0.1-0.7,0-4.5-2.2-3.5c-0.6,0.3-0.9,0.9-1,1.5c-0.9,2.9-1.7,5.9-2.8,8.8c-0.8,2.3-1.2,5.5-3.2,7.4c-1.1,1.1-2.4,1.9-2.3,3.4c0,0.1,0,0.2,0.1,0.3c0.1,0.2,0.4,0.2,0.6,0.3c2.3,0.6,3.9-0.7,5.4-1.8c0.2-0.1,0.4-0.3,0.7-0.4c0.3-0.1,0.6-0.1,0.8,0.1c0.5,0.4,0.1,1.5,0,2c-0.3,1.5-1.3,2.9-2.5,4.1c-1.9,2-4.5,3.6-6,5.8c-0.3,0.4-0.6,0.9-0.5,1.4c0.1,1,1.4,1.5,2.5,1.5c1.6,0.1,2.5-0.8,3-1.8c0.4-0.7,0.7-1.4,1.6-1.7c0.2-0.1,0.5-0.1,0.7,0c0.1,0.1,0.1,0.1,0.1,0.2c0.1,1.4-0.3,2.8-1.1,4.1c-0.8,1.3-2.1,2.2-3.6,3.2c-0.7,0.5-1.4,1-1.9,1.6l-21.3-7.3c-0.3-0.3-0.7-0.5-1-0.8c-0.8-0.6-1.6-1.3-2.3-2c-0.8-0.7-4.1-5.3-1.6-5.9c0.6-0.1,1.2,0.1,1.7,0.4c0.5,0.3,0.8,0.7,1.2,1.1c1,0.8,2.4,1.3,3.9,1.2c0.4,0,0.7-0.1,1-0.2c0.5-0.3,0.6-0.7,0.7-1.2c0-1.4-1-2.6-2.2-3.8c-1.3-1.2-2.1-2.5-3.2-3.8c-1.2-1.5-2.6-2.7-2.8-4.5c2.2-1.5,4.3,3.4,7.2,2.7c2-0.5,1-2.7-0.2-4c-2.7-3-4.5-6.3-5.5-9.8c-0.5-1.7-0.9-3.5-1.2-5.3c-0.1-0.7,0-4.5-2.2-3.5c-0.6,0.3-0.9,0.9-1,1.5c-0.9,2.9-1.7,5.9-2.8,8.8c-0.8,2.3-1.2,5.5-3.2,7.4c-1.1,1.1-2.4,1.9-2.3,3.4c0,0.1,0,0.2,0.1,0.3c0.1,0.2,0.4,0.2,0.6,0.3c2.3,0.6,3.9-0.7,5.4-1.8c0.2-0.1,0.4-0.3,0.7-0.4c0.3-0.1,0.6-0.1,0.8,0.1c0.5,0.4,0.1,1.5,0,2c-0.3,1.5-1.3,2.9-2.5,4.1c-1.9,2-4.5,3.6-6,5.8c-0.3,0.4-0.6,0.9-0.5,1.4c0,0.2,0.1,0.4,0.2,0.5l-5.4-1.8c-0.9-0.9-1.9-1.7-2.9-2.5c-0.8-0.6-1.6-1.3-2.3-2c-0.8-0.7-4.1-5.3-1.6-5.9c0.6-0.1,1.2,0.1,1.7,0.4c0.5,0.3,0.8,0.7,1.2,1.1c1,0.8,2.4,1.3,3.9,1.2c0.4,0,0.7-0.1,1-0.2c0.5-0.3,0.6-0.7,0.7-1.2c0-1.4-1-2.6-2.2-3.8c-1.3-1.2-2.1-2.5-3.2-3.8c-1.2-1.5-2.6-2.7-2.8-4.5c2.2-1.5,4.3,3.4,7.2,2.7c2-0.5,1-2.7-0.2-4c-2.7-3-4.5-6.3-5.5-9.8c-0.5-1.7-0.9-3.5-1.2-5.3c-0.1-0.7,0-4.5-2.2-3.5c-0.6,0.3-0.9,0.9-1,1.5c-0.9,2.9-1.7,5.9-2.8,8.8c-0.8,2.3-1.2,5.5-3.2,7.4c-1.1,1.1-2.4,1.9-2.3,3.4c0,0.1,0,0.2,0.1,0.3c0.1,0.2,0.4,0.2,0.6,0.3c2.3,0.6,3.9-0.7,5.4-1.8c0.2-0.1,0.4-0.3,0.7-0.4c0.3-0.1,0.6-0.1,0.8,0.1c0.5,0.4,0.1,1.5,0,2c-0.3,1.5-1.3,2.9-2.5,4.1c-1.9,2-4.5,3.6-6,5.8c-0.3,0.4-0.6,0.9-0.5,1.4c0.1,1,1.4,1.5,2.5,1.5c1.6,0.1,2.5-0.8,3-1.8c0.4-0.7,0.7-1.4,1.6-1.7c0.2-0.1,0.5-0.1,0.7,0c0.1,0.1,0.1,0.1,0.1,0.2c0.1,1.4-0.3,2.8-1.1,4.1c-0.3,0.4-0.6,0.8-1,1.2l-25.3-8.7c-1-0.9-2.2-1.8-3.1-2.7c-1.1-1.1-2.1-2.2-2.6-3.5c-0.1-0.3-0.7-1.5-0.4-1.8c0.6-0.7,1.6,0.2,1.9,0.6c0.5,0.6,1.1,1.3,1.7,1.9c0.5,0.5,1,0.9,1.6,1.2c0.7,0.3,1.5,0.4,2.2,0.2c0.9-0.3,1.4-1.1,1.4-1.9c0.1-1.2-0.6-2.3-1.5-3.3c-0.9-1-2-1.8-3.1-2.7c-0.8-0.6-1.6-1.3-2.3-2c-0.8-0.7-4.1-5.3-1.6-5.9c0.6-0.1,1.2,0.1,1.7,0.4c0.5,0.3,0.8,0.7,1.2,1.1c1,0.8,2.4,1.3,3.9,1.2c0.4,0,0.7-0.1,1-0.2c0.5-0.3,0.6-0.7,0.7-1.2c0-1.4-1-2.6-2.2-3.8c-1.3-1.2-2.1-2.5-3.2-3.8c-1.2-1.5-2.6-2.7-2.8-4.5c2.2-1.5,4.3,3.4,7.2,2.7c2-0.5,1-2.7-0.2-4c-2.7-3-4.5-6.3-5.5-9.8c-0.5-1.7-0.9-3.5-1.2-5.3c-0.1-0.7,0-4.5-2.2-3.5c-0.6,0.3-0.9,0.9-1,1.5c-0.9,2.9-1.7,5.9-2.8,8.8c-0.8,2.3-1.2,5.5-3.2,7.4c-1.1,1.1-2.4,1.9-2.3,3.4c0,0.1,0,0.2,0.1,0.3c0.1,0.2,0.4,0.2,0.6,0.3c2.3,0.6,3.9-0.7,5.4-1.8c0.2-0.1,0.4-0.3,0.7-0.4c0.3-0.1,0.6-0.1,0.8,0.1c0.5,0.4,0.1,1.5,0,2c-0.3,1.5-1.3,2.9-2.5,4.1c-1.9,2-4.5,3.6-6,5.8c-0.3,0.4-0.6,0.9-0.5,1.4c0.1,1,1.4,1.5,2.5,1.5c1.6,0.1,2.5-0.8,3-1.8c0.4-0.7,0.7-1.4,1.6-1.7c0.2-0.1,0.5-0.1,0.7,0c0.1,0.1,0.1,0.1,0.1,0.2c0.1,1.4-0.3,2.8-1.1,4.1c-0.8,1.3-2.1,2.2-3.6,3.2c-0.8,0.5-1.5,1.1-2.1,1.8c-0.4,0.5-0.6,1.1-0.5,1.6c0.1,0.6,0.6,1.1,1.3,1.3c1,0.3,2.1-0.1,2.8-0.7c0.4-0.3,2.5-2.8,3.2-1.8c0.3,0.3-0.3,1.7-0.4,2.1c-0.3,1.2-0.8,2.5-1.5,3.6l-23.3-8c0,0,0,0,0,0c0-1.4-1-2.6-2.2-3.8c-1.3-1.2-2.1-2.5-3.2-3.8c-1.2-1.5-2.6-2.7-2.8-4.5c2.2-1.5,4.3,3.4,7.2,2.7c2-0.5,1-2.7-0.2-4c-2.7-3-4.5-6.3-5.5-9.8c-0.5-1.7-0.9-3.5-1.2-5.3c-0.1-0.7,0-4.5-2.2-3.5c-0.6,0.3-0.9,0.9-1,1.5c-0.9,2.9-1.7,5.9-2.8,8.8c-0.8,2.3-1.2,5.5-3.2,7.4c-1.1,1.1-2.4,1.9-2.3,3.4c0,0.1,0,0.2,0.1,0.3c0.1,0.2,0.4,0.2,0.6,0.3c2.3,0.6,3.9-0.7,5.4-1.8c0.2-0.1,0.4-0.3,0.7-0.4c0.3-0.1,0.6-0.1,0.8,0.1c0.5,0.4,0.1,1.5,0,2c-0.3,1.5-1.3,2.9-2.5,4.1c-0.3,0.3-0.7,0.6-1,0.9l-11.5-3.9c-0.6-0.5-1.2-1-1.9-1.5c-0.8-0.6-1.6-1.3-2.3-2c-0.8-0.7-4.1-5.3-1.6-5.9c0.6-0.1,1.2,0.1,1.7,0.4c0.5,0.3,0.8,0.7,1.2,1.1c1,0.8,2.4,1.3,3.9,1.2c0.4,0,0.7-0.1,1-0.2c0.5-0.3,0.6-0.7,0.7-1.2c0-1.4-1-2.6-2.2-3.8c-1.3-1.2-2.1-2.5-3.2-3.8c-1.2-1.5-2.6-2.7-2.8-4.5c2.2-1.5,4.3,3.4,7.2,2.7c2-0.5,1-2.7-0.2-4c-2.7-3-4.5-6.3-5.5-9.8c-0.5-1.7-0.9-3.5-1.2-5.3c-0.1-0.7,0-4.5-2.2-3.5c-0.6,0.3-0.9,0.9-1,1.5c-0.9,2.9-1.7,5.9-2.8,8.8c-0.8,2.3-1.2,5.5-3.2,7.4c-1.1,1.1-2.4,1.9-2.3,3.4c0,0.1,0,0.2,0.1,0.3c0.1,0.2,0.4,0.2,0.6,0.3c2.3,0.6,3.9-0.7,5.4-1.8c0.2-0.2,0.4-0.3,0.7-0.4c0.3-0.1,0.6-0.1,0.8,0.1c0.5,0.4,0.1,1.5,0,2c-0.3,1.5-1.3,2.9-2.5,4.1c-1.9,2-4.5,3.6-6,5.8c-0.3,0.4-0.6,0.9-0.5,1.4c0.1,1,1.4,1.5,2.5,1.5c1.6,0.1,2.5-0.8,3-1.8c0.4-0.7,0.7-1.4,1.6-1.7c0.2-0.1,0.5-0.1,0.7,0c0.1,0.1,0.1,0.1,0.1,0.2c0.1,1.4-0.3,2.8-1.1,4.1c-0.2,0.3-0.3,0.5-0.5,0.7l-16-5.5c-0.1-1.8-1.6-3.6-3-4.9c-2.4-2.1-5.4-4.5-4.8-7.3c2.5,0.2,3.2,3.4,5.7,3.3c1.9,0,2.6-1.9,2.2-3.2c-0.9-2.9-4.1-4.9-6.4-7.1c-1.1-1.1-2.1-2.2-2.6-3.5c-0.1-0.3-0.7-1.5-0.4-1.8c0.6-0.7,1.6,0.2,1.9,0.6c0.5,0.6,1.1,1.3,1.7,1.9c0.5,0.5,1,0.9,1.6,1.2c0.7,0.3,1.5,0.4,2.2,0.2c0.9-0.3,1.4-1.1,1.4-1.9c0.1-1.2-0.6-2.3-1.5-3.3c-0.9-1-2-1.8-3.1-2.7c-0.8-0.6-1.6-1.3-2.3-2c-0.8-0.7-4.1-5.3-1.6-5.9c0.6-0.1,1.2,0.1,1.7,0.4c0.5,0.3,0.8,0.7,1.2,1.1c1,0.8,2.4,1.3,3.9,1.2c0.4,0,0.7-0.1,1-0.2c0.5-0.3,0.6-0.7,0.7-1.2c0-1.4-1-2.6-2.2-3.8c-1.3-1.2-2.1-2.5-3.2-3.8c-1.2-1.5-2.6-2.7-2.8-4.5c2.2-1.5,4.3,3.4,7.2,2.7c2-0.5,1-2.7-0.2-4c-2.7-3-4.5-6.3-5.5-9.8c-0.5-1.7-0.9-3.5-1.2-5.3c-0.1-0.7,0-4.5-2.2-3.5c-0.6,0.3-0.9,0.9-1,1.5c-0.9,2.9-1.7,5.9-2.8,8.8c-0.8,2.3-1.2,5.5-3.2,7.4c-1.1,1.1-2.4,1.9-2.3,3.4c0,0.1,0,0.2,0.1,0.3c0.1,0.2,0.4,0.2,0.6,0.3c2.3,0.6,3.9-0.7,5.4-1.8c0.2-0.1,0.4-0.3,0.7-0.4c0.3-0.1,0.6-0.1,0.8,0.1c0.5,0.4,0.1,1.5,0,2c-0.3,1.5-1.3,2.9-2.5,4.1c-1.9,2-4.5,3.6-6,5.8c-0.3,0.4-0.6,0.9-0.5,1.4c0.1,1,1.4,1.5,2.5,1.5c1.6,0.1,2.5-0.8,3-1.8c0.4-0.7,0.7-1.4,1.6-1.7c0.2-0.1,0.5-0.1,0.7,0c0.1,0.1,0.1,0.1,0.1,0.2c0.1,1.4-0.3,2.8-1.1,4.1c-0.8,1.3-2.1,2.2-3.6,3.2c-0.8,0.5-1.5,1.1-2.1,1.8c-0.4,0.5-0.6,1.1-0.5,1.6c0.1,0.6,0.6,1.1,1.3,1.3c1,0.3,2.1-0.1,2.8-0.7c0.4-0.3,2.5-2.8,3.2-1.8c0.3,0.3-0.3,1.7-0.4,2.1c-0.4,1.3-0.9,2.6-1.6,3.9c-1.4,2.6-3.5,4.9-6.1,6.9c-1.1,0.8-2.4,1.8-2.3,3c0.1,1.6,2.8,2.3,4.6,1.9c2.5-0.5,2.4-2.5,4.3-3.5c0.1-0.1,0.3-0.1,0.4-0.1c0.4,0,0.4,0.4,0.4,0.7c-0.4,2-1.4,3.9-2.7,5.7l-17.1-5.9c-0.7-0.6-1.5-1.2-2.3-1.9c-0.8-0.6-1.6-1.3-2.3-2c-0.8-0.7-4.1-5.3-1.6-5.9c0.6-0.1,1.2,0.1,1.7,0.4c0.5,0.3,0.8,0.7,1.2,1.1c1,0.8,2.4,1.3,3.9,1.2c0.4,0,0.7-0.1,1-0.2c0.5-0.3,0.6-0.7,0.7-1.2c0-1.4-1-2.6-2.2-3.8c-1.3-1.2-2.1-2.5-3.2-3.8c-1.2-1.5-2.6-2.7-2.8-4.5c2.2-1.5,4.3,3.4,7.2,2.7c2-0.5,1-2.7-0.2-4c-2.7-3-4.5-6.3-5.5-9.8c-0.5-1.7-0.9-3.5-1.2-5.3c-0.1-0.7,0-4.5-2.2-3.5c-0.6,0.3-0.9,0.9-1,1.5c-0.9,2.9-1.7,5.9-2.8,8.8c-0.8,2.3-1.2,5.5-3.2,7.4c-1.1,1.1-2.4,1.9-2.3,3.4c0,0.1,0,0.2,0.1,0.3c0.1,0.2,0.4,0.2,0.6,0.3c2.3,0.6,3.9-0.7,5.4-1.8c0.2-0.1,0.4-0.3,0.7-0.4c0.3-0.1,0.6-0.1,0.8,0.1c0.5,0.4,0.1,1.5,0,2c-0.3,1.5-1.3,2.9-2.5,4.1c-1.9,2-4.5,3.6-6,5.8c-0.3,0.4-0.6,0.9-0.5,1.4c0.1,1,1.4,1.5,2.5,1.5c1.6,0.1,2.5-0.8,3-1.8c0.4-0.7,0.7-1.4,1.6-1.7c0.2-0.1,0.5-0.1,0.7,0c0.1,0.1,0.1,0.1,0.1,0.2c0.1,1.4-0.3,2.8-1.1,4.1c-0.2,0.3-0.4,0.6-0.7,0.9l-19.6-6.7c-0.8-0.7-1.7-1.4-2.5-2.2c-1.1-1.1-2.1-2.2-2.6-3.5c-0.1-0.3-0.7-1.5-0.4-1.8c0.6-0.7,1.6,0.2,1.9,0.6c0.5,0.6,1.1,1.3,1.7,1.9c0.5,0.5,1,0.9,1.6,1.2c0.7,0.3,1.5,0.4,2.2,0.2c0.9-0.3,1.4-1.1,1.4-1.9c0.1-1.2-0.6-2.3-1.5-3.3c-0.9-1-2-1.8-3.1-2.7c-0.8-0.6-1.6-1.3-2.3-2c-0.8-0.7-4.1-5.3-1.6-5.9c0.6-0.1,1.2,0.1,1.7,0.4c0.5,0.3,0.8,0.7,1.2,1.1c1,0.8,2.4,1.3,3.9,1.2c0.4,0,0.7-0.1,1-0.2c0.5-0.3,0.6-0.7,0.7-1.2c0-1.4-1-2.6-2.2-3.8c-1.3-1.2-2.1-2.5-3.2-3.8c-1.2-1.5-2.6-2.7-2.8-4.5c2.2-1.5,4.3,3.4,7.2,2.7c2-0.5,1-2.7-0.2-4c-2.7-3-4.5-6.3-5.5-9.8c-0.5-1.7-0.9-3.5-1.2-5.3c-0.1-0.7,0-4.5-2.2-3.5c-0.6,0.3-0.9,0.9-1,1.5c-0.9,2.9-1.7,5.9-2.8,8.8c-0.8,2.3-1.2,5.5-3.2,7.4c-1.1,1.1-2.4,1.9-2.3,3.4c0,0.1,0,0.2,0.1,0.3c0.1,0.2,0.4,0.2,0.6,0.3c2.3,0.6,3.9-0.7,5.4-1.8c0.2-0.1,0.4-0.3,0.7-0.4c0.3-0.1,0.6-0.1,0.8,0.1c0.5,0.4,0.1,1.5,0,2c-0.3,1.5-1.3,2.9-2.5,4.1c-1.9,2-4.5,3.6-6,5.8c-0.3,0.4-0.6,0.9-0.5,1.4c0.1,1,1.4,1.5,2.5,1.5c1.6,0.1,2.5-0.8,3-1.8c0.4-0.7,0.7-1.4,1.6-1.7c0.2-0.1,0.5-0.1,0.7,0c0.1,0.1,0.1,0.1,0.1,0.2c0.1,1.4-0.3,2.8-1.1,4.1c-0.8,1.3-2.1,2.2-3.6,3.2c-0.8,0.5-1.5,1.1-2.1,1.8c-0.4,0.5-0.6,1.1-0.5,1.6c0.1,0.6,0.6,1.1,1.3,1.3c1,0.3,2.1-0.1,2.8-0.7c0.4-0.3,2.5-2.8,3.2-1.8c0.3,0.3-0.3,1.7-0.4,2.1c-0.3,1.1-0.8,2.3-1.3,3.3l-18.4-6.3c-0.8-0.8-1.7-1.5-2.6-2.2c-0.8-0.6-1.6-1.3-2.3-2c-0.8-0.7-4.1-5.3-1.6-5.9c0.6-0.1,1.2,0.1,1.7,0.4c0.5,0.3,0.8,0.7,1.2,1.1c1,0.8,2.4,1.3,3.9,1.2c0.4,0,0.7-0.1,1-0.2c0.5-0.3,0.6-0.7,0.7-1.2c0-1.4-1-2.6-2.2-3.8c-1.3-1.2-2.1-2.5-3.2-3.8c-1.2-1.5-2.6-2.7-2.8-4.5c2.2-1.5,4.3,3.4,7.2,2.7c2-0.5,1-2.7-0.2-4c-2.7-3-4.5-6.3-5.5-9.8c-0.5-1.7-0.9-3.5-1.2-5.3c-0.1-0.7,0-4.5-2.2-3.5c-0.6,0.3-0.9,0.9-1,1.5c-0.9,2.9-1.7,5.9-2.8,8.8c-0.8,2.3-1.2,5.5-3.2,7.4c-1.1,1.1-2.4,1.9-2.3,3.4c0,0.1,0,0.2,0.1,0.3c0.1,0.2,0.4,0.2,0.6,0.3c2.3,0.6,3.9-0.7,5.4-1.8c0.2-0.1,0.4-0.3,0.7-0.4c0.3-0.1,0.6-0.1,0.8,0.1c0.5,0.4,0.1,1.5,0,2c-0.3,1.5-1.3,2.9-2.5,4.1c-1.9,2-4.5,3.6-6,5.8c-0.3,0.4-0.6,0.9-0.5,1.4c0.1,1,1.4,1.5,2.5,1.5c1.6,0.1,2.5-0.8,3-1.8c0.4-0.7,0.7-1.4,1.6-1.7c0.2-0.1,0.5-0.1,0.7,0c0.1,0.1,0.1,0.1,0.1,0.2c0.1,1.4-0.3,2.8-1.1,4.1c-0.2,0.4-0.5,0.7-0.8,1l-21.2-7.3c-0.1-0.1-0.2-0.3-0.3-0.4c-1.2-1.5-2.6-2.7-2.8-4.5c2.2-1.5,4.3,3.4,7.2,2.7c2-0.5,1-2.7-0.2-4c-2.7-3-4.5-6.3-5.5-9.8c-0.5-1.7-0.9-3.5-1.2-5.3c-0.1-0.7,0-4.5-2.2-3.5c-0.6,0.3-0.9,0.9-1,1.5c-0.9,2.9-1.7,5.9-2.8,8.8c-0.8,2.3-1.2,5.5-3.2,7.4c-0.7,0.7-1.6,1.3-2,2.1L56.6,295c-1-1.2-1.6-2.5-1.3-3.9c2.5,0.2,3.2,3.4,5.7,3.3c1.9,0,2.6-1.9,2.2-3.2c-0.9-2.9-4.1-4.9-6.4-7.1c-1.1-1.1-2.1-2.2-2.6-3.5c-0.1-0.3-0.7-1.5-0.4-1.8c0.6-0.7,1.6,0.2,1.9,0.6c0.5,0.6,1.1,1.3,1.7,1.9c0.5,0.5,1,0.9,1.6,1.2c0.7,0.3,1.5,0.4,2.2,0.2c0.9-0.3,1.4-1.1,1.4-1.9c0.1-1.2-0.6-2.3-1.5-3.3c-0.9-1-2-1.8-3.1-2.7c-0.8-0.6-1.6-1.3-2.3-2c-0.8-0.7-4.1-5.3-1.6-5.9c0.6-0.1,1.2,0.1,1.7,0.4c0.5,0.3,0.8,0.7,1.2,1.1c1,0.8,2.4,1.3,3.9,1.2c0.4,0,0.7-0.1,1-0.2c0.5-0.3,0.6-0.7,0.7-1.2c0-1.4-1-2.6-2.2-3.8c-1.3-1.2-2.1-2.5-3.2-3.8c-1.2-1.5-2.6-2.7-2.8-4.5c2.2-1.5,4.3,3.4,7.2,2.7c2-0.5,1-2.7-0.2-4c-2.7-3-4.5-6.3-5.5-9.8c-0.5-1.7-0.9-3.5-1.2-5.3c-0.1-0.7,0-4.5-2.2-3.5c-0.6,0.3-0.9,0.9-1,1.5c-0.9,2.9-1.7,5.9-2.8,8.8c-0.8,2.3-1.2,5.5-3.2,7.4c-1.1,1.1-2.4,1.9-2.3,3.4c0,0.1,0,0.2,0.1,0.3c0.1,0.2,0.4,0.2,0.6,0.3c2.3,0.6,3.9-0.7,5.4-1.8c0.2-0.1,0.4-0.3,0.7-0.4c0.3-0.1,0.6-0.1,0.8,0.1c0.5,0.4,0.1,1.5,0,2c-0.3,1.5-1.3,2.9-2.5,4.1c-1.9,2-4.5,3.6-6,5.8c-0.3,0.4-0.6,0.9-0.5,1.4c0.1,1,1.4,1.5,2.5,1.5c1.6,0.1,2.5-0.8,3-1.8c0.4-0.7,0.7-1.4,1.6-1.7c0.2-0.1,0.5-0.1,0.7,0c0.1,0.1,0.1,0.1,0.1,0.2c0.1,1.4-0.3,2.8-1.1,4.1c-0.8,1.3-2.1,2.2-3.6,3.2c-0.8,0.5-1.5,1.1-2.1,1.8c-0.4,0.5-0.6,1.1-0.5,1.6c0.1,0.6,0.6,1.1,1.3,1.3c1,0.3,2.1-0.1,2.8-0.7c0.4-0.3,2.5-2.8,3.2-1.8c0.3,0.3-0.3,1.7-0.4,2.1c-0.4,1.3-0.9,2.6-1.6,3.9c-1.4,2.6-3.5,4.9-6.1,6.9c0,0,0,0-0.1,0.1l-11.5-3.9c-0.9-1-2-1.8-3.1-2.7c-0.8-0.6-1.6-1.3-2.3-2c-0.8-0.7-4.1-5.3-1.6-5.9c0.6-0.1,1.2,0.1,1.7,0.4s0.8,0.7,1.2,1.1c1,0.8,2.4,1.3,3.9,1.2c0.4,0,0.7-0.1,1-0.2c0.5-0.3,0.6-0.7,0.7-1.2c0-1.4-1-2.6-2.2-3.8c-1.3-1.2-2.1-2.5-3.2-3.8c-1.2-1.5-2.6-2.7-2.8-4.5c2.2-1.5,4.3,3.4,7.2,2.7c2-0.5,1-2.7-0.2-4c-2.7-3-4.5-6.3-5.5-9.8c-0.5-1.7-0.9-3.5-1.2-5.3c-0.1-0.7,0-4.5-2.2-3.5c-0.6,0.3-0.9,0.9-1,1.5c-0.9,2.9-1.7,5.9-2.8,8.8c-0.8,2.3-1.2,5.5-3.2,7.4c-1.1,1.1-2.4,1.9-2.3,3.4c0,0.1,0,0.2,0.1,0.3c0.1,0.2,0.4,0.2,0.6,0.3c2.3,0.6,3.9-0.7,5.4-1.8c0.2-0.1,0.4-0.3,0.7-0.4c0.3-0.1,0.6-0.1,0.8,0.1c0.5,0.4,0.1,1.5,0,2c-0.3,1.5-1.3,2.9-2.5,4.1c-1.9,2-4.5,3.6-6,5.8c-0.3,0.4-0.6,0.9-0.5,1.4c0.1,1,1.4,1.5,2.5,1.5c1.6,0.1,2.5-0.8,3-1.8c0.4-0.7,0.7-1.4,1.6-1.7c0.2-0.1,0.5-0.1,0.7,0c0.1,0.1,0.1,0.1,0.1,0.2c0.1,1.4-0.3,2.8-1.1,4.1c-0.3,0.5-0.7,0.9-1.1,1.2L0,275.6V683h1077V461v-4.7V352.1H1062.6z M402.2,412.5c0.6-0.7,1.6,0.2,1.9,0.6c0.5,0.6,1,1.2,1.5,1.7l-3.2-1.1C402.2,413.2,402,412.7,402.2,412.5z M398,410.6c0.2,0.2,0,0.9-0.2,1.5l-2-0.7C396.6,410.7,397.6,410,398,410.6z M358.3,395.9c0.4-0.7,0.7-1.4,1.6-1.7c0.2-0.1,0.5-0.1,0.7,0c0.1,0.1,0.1,0.1,0.1,0.2c0.1,1.4-0.3,2.8-1.1,4.1c-0.1,0.1-0.2,0.2-0.3,0.4l-3.5-1.2C357.1,397.6,357.8,396.8,358.3,395.9z M80.4,301.3c0.2-0.1,0.4-0.3,0.7-0.4c0.3-0.1,0.6-0.1,0.8,0.1c0.5,0.4,0.1,1.5,0,2c0,0.2-0.1,0.4-0.2,0.7l-3.1-1.1C79.2,302.2,79.8,301.7,80.4,301.3z M48.2,291.2c0.1-0.1,0.3-0.1,0.4-0.1c0.4,0,0.4,0.4,0.4,0.7c0,0.2-0.1,0.4-0.2,0.6l-1.5-0.5C47.6,291.6,47.8,291.4,48.2,291.2z M1054.1,350.8c0.6-0.1,1.2,0.1,1.7,0.4c0.4,0.3,0.7,0.6,1,0.9h-3.6C1053.2,351.5,1053.4,351,1054.1,350.8z M1048.8,351c0.2-0.1,0.5-0.1,0.7,0c0.1,0.1,0.1,0.1,0.1,0.2c0,0.3,0,0.6,0,0.8h-1.9C1047.9,351.7,1048.3,351.3,1048.8,351z M777.8,431.3l-1,0.8h-0.4c-0.3-0.6-0.5-1.3-0.7-2C776.4,430.5,777.1,430.9,777.8,431.3z M764.5,430.7c1.1-1.4,3.3-3,5-2.1c-0.1,1.3-1.3,2.5-2.7,3.4h-3.9C763.5,431.7,764.1,431.2,764.5,430.7z M666.4,430.5c0.6-0.1,1.2,0.1,1.7,0.4c0.5,0.3,0.8,0.7,1.2,1.1c0.1,0.1,0.3,0.2,0.4,0.3l-3.8,1C665.4,432,665.2,430.8,666.4,430.5z M639.1,438.1c1.2,0.1,1.9,0.8,2.7,1.6l-2.5,0.7C639,439.6,638.9,438.9,639.1,438.1z"/></svg>