<?xml version="1.0" encoding="utf-8"?><svg version="1.1" id="layer-6" xmlns="http://www.w3.org/2000/svg" xmlns:xlink="http://www.w3.org/1999/xlink" x="0px" y="0px" viewBox="0 0 1077 683" style="enable-background:new 0 0 1077 683;" xml:space="preserve"><style type="text/css">.st0{fill:#7F0133;}</style><path id="XMLID_16_" class="st0" d="M1048.5,505.1c-0.2-0.9-0.7-1.9-1.5-2.7c-1-1-2.2-1.8-3.4-2.7c-0.9-0.6-1.7-1.3-2.5-2c-0.9-0.7-4.4-5.3-1.7-5.9c0.6-0.1,1.3,0.1,1.8,0.4c0.5,0.3,0.8,0.7,1.3,1.1c1,0.8,2.6,1.3,4.2,1.2c0.4,0,0.8-0.1,1.1-0.2c0.5-0.3,0.7-0.7,0.7-1.2c0-1.4-1.1-2.6-2.3-3.8c-1.3-1.2-2.2-2.5-3.4-3.8c-1.3-1.5-2.8-2.7-3.1-4.5c2.3-1.5,4.6,3.4,7.7,2.7c2.2-0.5,1.1-2.7-0.2-4c-3-3-4.8-6.3-6-9.8c-0.6-1.7-1-3.5-1.3-5.3c-0.1-0.7,0-4.5-2.4-3.5c-0.7,0.3-0.9,0.9-1.1,1.5c-1,2.9-1.9,5.9-3,8.8c-0.9,2.3-1.3,5.5-3.5,7.4c-1.2,1.1-2.6,1.9-2.5,3.4c0,0.1,0,0.2,0.1,0.3c0.1,0.2,0.4,0.2,0.6,0.3c2.5,0.6,4.2-0.7,5.8-1.8c0.2-0.1,0.4-0.3,0.7-0.4c0.3-0.1,0.6-0.1,0.8,0.1c0.6,0.4,0.1,1.5,0,2c-0.3,1.5-1.4,2.9-2.6,4.1c-2.1,2-4.8,3.6-6.5,5.8c-0.3,0.4-0.6,0.9-0.6,1.4c0.1,1,1.5,1.5,2.7,1.5c1.7,0.1,2.7-0.8,3.3-1.8c0.4-0.7,0.8-1.4,1.7-1.7c0.2-0.1,0.6-0.1,0.7,0c0.1,0.1,0.1,0.1,0.1,0.2c0.1,1.4-0.3,2.8-1.1,4.1c-0.9,1.3-2.3,2.2-3.9,3.2c-0.8,0.5-1.7,1.1-2.2,1.8c-0.4,0.5-0.7,1.1-0.6,1.6c0.1,0.6,0.6,1.1,1.4,1.3c1.1,0.3,2.3-0.1,3.1-0.7c0.4-0.3,2.6-2.8,3.5-1.8c0.3,0.3-0.3,1.7-0.5,2.1c-0.1,0.4-0.3,0.7-0.4,1.1H1019c0.6-0.2,1.1-0.5,1.3-0.9c0.2-0.4,0.2-0.9,0.1-1.3c-0.6-3-2.6-5.8-5.6-7.9c-1.6-1.1-3.5-2.1-5-3.2c-1.1-0.8-5.3-5.8-0.9-5.7c0.6,0,1.1,0.2,1.5,0.5c1.1,0.7,1.7,1.6,2.7,2.3c1,0.7,2.6,1.3,3.9,0.8c1.8-0.6,1.7-2.4,1.1-3.7c-1.3-2.8-3.5-5.3-6.2-7.6c-2.5-2-6.7-4.2-5.3-7.2c0.2-0.4,0.4-0.8,0.9-1c0.8-0.4,1.9-0.4,2.8,0c0.9,0.3,1.5,0.9,2.1,1.4c0.9,0.8,4.8,5.1,6.5,2.7c0.2-0.3,0.2-0.7,0.2-1.1c-0.3-3.4-1.9-6.8-4.7-9.7c-2.6-2.6-6.1-4.8-7.8-7.7c-1-1.7-1.2-4.8,2.3-4.9c2.9,0,5.1,2.4,7.3,3.3c1.8,0.7,4.7,0.6,5.3-0.8c0.2-0.5,0-1.1-0.2-1.7c-1.4-3.1-3.9-6.2-7.2-8.6c-3.2-2.2-5.9-3.5-7.8-6.6c-0.7-1.2-1-2.8,0.5-3.5c1.2-0.5,2.8-0.2,3.9,0.5c1.1,0.7,1.8,1.5,2.9,2.2c1.1,0.7,2.7,1,3.9,0.5c0.9-0.4,1.3-1.3,1.1-2.1c-0.2-0.8-0.8-1.5-1.4-2.1c-1.9-2.2-4.1-4.3-6-6.4c-1.5-1.7-4.1-3.8-4.5-5.8c-0.1-0.7,0.1-1.5,1-1.8c0.7-0.2,1.4,0,2,0.3c0.6,0.3,1,0.7,1.5,1c1,0.7,2.4,1.2,3.9,1.3c1,0.1,2.1,0,2.7-0.5c0.5-0.4,0.6-1,0.6-1.6c-0.3-2.3-2.9-4-5.4-5.6c-1.5-1-9.1-7.5-5.6-8.8c2.7-1,6.3,4.9,9.2,2.5c0.8-0.7,0.7-1.7,0.3-2.5c-0.5-0.9-1.3-1.7-2.3-2.3c-1.3-0.7-2.9-1.2-4.4-1.8c-1.9-0.8-6.6-5.2-3.1-6.3c2.6-0.8,4.4,1.8,6.3,2.5c0.6,0.2,1.6,0.3,2-0.1c0,0,0.1,0,0.1-0.1c0.2-0.2,0.2-0.4,0.2-0.6c0.3-2.8-1.8-5.5-4.1-7.9c-2.2-2.4-4.7-4.8-5.4-7.6c-0.1-0.5-0.2-1,0.1-1.4c0.3-0.4,1-0.8,1.7-0.7c1.1,0.2,0.4,1.6,1.4,2.1c0.9,0.5,2.5,0.4,3.4,0c1.5-0.7,1.9-2.2,1.4-3.4c-0.5-1.2-1.7-2.2-2.7-3.2c-3.3-3.3-5.6-7-6.7-10.9c-1.1-3.8-0.2-7.4-0.3-11.2c0-1,0.3-6.1-2.2-6c-2.3,0.1-2.5,4.5-2.6,5.6c-0.8,8.5-1.8,17.7-9.8,24.3c-1,0.9-2.2,1.7-2.4,2.8c-0.2,1.1,0.7,2.2,2.1,2.7c1.4,0.5,3.2,0.3,4.3-0.5c0.8-0.5,1.7-1.8,3-1c0.5,0.4,0.7,0.9,0.7,1.4c0.3,3.5-2.1,6.9-4.8,9.8c-2.7,3-5.9,5.8-7.4,9.2c-0.5,1.1-0.8,2.2-0.4,3.3c0.4,1.1,1.7,2.1,3.3,2.1c2.7,0.1,3.1-1.6,5.1-2.3c1-0.4,2.3-0.3,3.1,0.2c0.5,0.4,0.6,0.9,0.6,1.5c-0.2,2.6-3.6,4.5-6.3,6.3c-3.2,2.2-5.6,4.8-7.2,7.7c-0.5,0.8-0.8,1.7-0.8,2.6s0.6,1.8,1.7,2.3c1.7,0.8,4,0.3,5.5-0.6c1.5-0.9,2.3-2.3,3.3-3.5c0.6-0.7,1.3-1.4,2.4-1.6c4.5-0.7,1.3,4.6,0.3,5.4c-5.3,4.8-12.8,9.6-12.3,15.6c0.1,1,0.5,2.1,1.8,2.5c1.9,0.6,3.8-0.7,5-1.9c0.8-0.7,5.9-7.9,6.5-4.2c0.6,3.6-3.3,5.2-6.1,7.6c-3.3,2.7-5.7,5.9-7.1,9.3c-0.6,1.4-0.7,3.4,1.4,4c3.1,0.9,4.2-2,6-3c2-1.1,4.7-0.5,5.2,1.3c0.3,1.1-0.3,2.2-1.1,3.1c-3.3,4-10,6.4-12.3,10.7c-0.6,1.2-0.7,2.7,0.7,3.5c2.4,1.2,4.8-0.9,6.4-1.9c0.5-0.3,1.1-0.7,1.8-0.7c0.8,0,1.4,0.5,1.6,1c0.2,0.5,0,1.1-0.2,1.6c-2,4.4-7.6,6.4-11.5,9.8c-1.7,1.5-2.8,3.4-3.3,5.3c-0.2,0.9-0.3,1.9,0.3,2.8c0.5,0.9,1.7,1.6,3.1,1.6c1.7,0,3-1.2,3.6-2.3c0.6-1.1,1-2.4,2.2-3.2c1.5-1.1,4.7-1,4.9,0.8c0.2,1.3-2.9,3.1-3.9,4.2c-3.9,4.2-7.6,8.5-11.2,12.8c-0.7,0.9-1.5,1.8-1.7,2.8c-0.2,1,0.4,2.2,1.7,2.7c0.8,0.3,1.8,0.3,2.7,0.2c7.6-1,7.4-8,12.2-11c0,3.5-1.9,7-5.2,9.7c-1.4,1.2-3.1,2.3-4.7,3.5l-19.3,5.2c-0.1-0.1-0.3-0.2-0.4-0.3c-1.2-1.1-2.3-2.2-2.8-3.5c-0.1-0.3-0.7-1.5-0.4-1.8c0.7-0.7,1.7,0.2,2,0.6c0.5,0.6,1.1,1.3,1.8,1.9c0.5,0.5,1,0.9,1.7,1.2s1.6,0.4,2.4,0.2c1-0.3,1.5-1.1,1.5-1.9c0.1-1.2-0.6-2.3-1.6-3.3c-1-1-2.2-1.8-3.4-2.7c-0.9-0.6-1.7-1.3-2.5-2c-0.9-0.7-4.4-5.3-1.7-5.9c0.6-0.1,1.3,0.1,1.8,0.4c0.5,0.3,0.8,0.7,1.3,1.1c1,0.8,2.6,1.3,4.2,1.2c0.4,0,0.8-0.1,1.1-0.2c0.5-0.3,0.7-0.7,0.7-1.2c0-1.4-1.1-2.6-2.3-3.8c-1.3-1.2-2.2-2.5-3.4-3.8c-1.3-1.5-2.8-2.7-3.1-4.5c2.3-1.5,4.6,3.4,7.7,2.7c2.2-0.5,1.1-2.7-0.2-4c-3-3-4.8-6.3-6-9.8c-0.6-1.7-1-3.5-1.3-5.3c-0.1-0.7,0-4.5-2.4-3.5c-0.7,0.3-0.9,0.9-1.1,1.5c-1,2.9-1.9,5.9-3,8.8c-0.9,2.3-1.3,5.5-3.5,7.4c-1.2,1.1-2.6,1.9-2.5,3.4c0,0.1,0,0.2,0.1,0.3c0.1,0.2,0.4,0.2,0.6,0.3c2.5,0.6,4.2-0.7,5.8-1.8c0.2-0.1,0.4-0.3,0.7-0.4c0.3-0.1,0.6-0.1,0.8,0.1c0.6,0.4,0.1,1.5,0,2c-0.3,1.5-1.4,2.9-2.6,4.1c-2.1,2-4.8,3.6-6.5,5.8c-0.3,0.4-0.6,0.9-0.6,1.4c0.1,1,1.5,1.5,2.7,1.5c1.7,0.1,2.7-0.8,3.3-1.8c0.4-0.7,0.8-1.4,1.7-1.7c0.2-0.1,0.6-0.1,0.7,0c0.1,0.1,0.1,0.1,0.1,0.2c0.1,1.4-0.3,2.8-1.1,4.1c-0.9,1.3-2.3,2.2-3.9,3.2c-0.8,0.5-1.7,1.1-2.2,1.8c-0.4,0.5-0.7,1.1-0.6,1.6c0.1,0.6,0.6,1.1,1.4,1.3c1.1,0.3,2.3-0.1,3.1-0.7c0.4-0.3,2.6-2.8,3.5-1.8c0.3,0.3-0.3,1.7-0.5,2.1c-0.4,1.3-1,2.6-1.7,3.9c-1.3,2.1-3,4.1-5.2,5.9l-60.9,18.4h-64.9c-0.1-0.1-0.2-0.2-0.3-0.3c-1-1-2.2-1.8-3.4-2.7c-0.9-0.6-1.7-1.3-2.5-2c-0.9-0.7-4.4-5.3-1.7-5.9c0.6-0.1,1.3,0.1,1.8,0.4c0.5,0.3,0.8,0.7,1.3,1.1c1,0.8,2.6,1.3,4.2,1.2c0.4,0,0.8-0.1,1.1-0.2c0.5-0.3,0.7-0.7,0.7-1.2c0-1.4-1.1-2.6-2.3-3.8c-1.3-1.2-2.2-2.5-3.4-3.8c-1.3-1.5-2.8-2.7-3.1-4.5c2.3-1.5,4.6,3.4,7.7,2.7c2.2-0.5,1.1-2.7-0.2-4c-3-3-4.8-6.3-6-9.8c-0.6-1.7-1-3.5-1.3-5.3c-0.1-0.7,0-4.5-2.4-3.5c-0.7,0.3-0.9,0.9-1.1,1.5c-1,2.9-1.9,5.9-3,8.8c-0.9,2.3-1.3,5.5-3.5,7.4c-1.2,1.1-2.6,1.9-2.5,3.4c0,0.1,0,0.2,0.1,0.3c0.1,0.2,0.4,0.2,0.6,0.3c2.5,0.6,4.2-0.7,5.8-1.8c0.2-0.1,0.4-0.3,0.7-0.4c0.3-0.1,0.6-0.1,0.8,0.1c0.6,0.4,0.1,1.5,0,2c-0.3,1.5-1.4,2.9-2.6,4.1c-2.1,2-4.8,3.6-6.5,5.8c-0.3,0.4-0.6,0.9-0.6,1.4c0.1,1,1.5,1.5,2.7,1.5c1.7,0.1,2.7-0.8,3.3-1.8c0.4-0.7,0.8-1.4,1.7-1.7c0.2-0.1,0.6-0.1,0.7,0c0.1,0.1,0.1,0.1,0.1,0.2c0.1,1.4-0.3,2.8-1.1,4.1c-0.9,1.3-2.3,2.2-3.9,3.2c-0.8,0.5-1.7,1.1-2.2,1.8c-0.3,0.4-0.6,0.9-0.6,1.4h-20.9l-89.2,22.5l-67.3-7.6l-48.5,7.6h-34.7L0,599.6v84.5h1077v-179H1048.5z M809.1,538.7c0.1,0.2,0.1,0.5,0,0.9h-2.4C807.5,538.9,808.5,538.1,809.1,538.7z M1039.1,503.7c0.7-0.7,1.7,0.2,2,0.6c0.2,0.3,0.5,0.5,0.7,0.7h-2.5C1039.2,504.6,1038.9,503.9,1039.1,503.7z M1010.8,502.2c1.1,0.5,2,1.2,2.9,1.8c0.7,0.4,1.4,0.8,2.3,1.1h-5.3c-0.4-0.4-0.8-0.8-1.1-1.2C1008.9,503,1008.2,501,1010.8,502.2z"/></svg>