<?xml version="1.0" encoding="UTF-8"?>
<!DOCTYPE svg PUBLIC "-//W3C//DTD SVG 1.1//EN" "http://www.w3.org/Graphics/SVG/1.1/DTD/svg11.dtd">
<!-- Creator: CorelDRAW 2020 (64 Bit) -->
<svg xmlns="http://www.w3.org/2000/svg" xml:space="preserve" width="80mm" height="35mm" version="1.1" style="shape-rendering:geometricPrecision; text-rendering:geometricPrecision; image-rendering:optimizeQuality; fill-rule:evenodd; clip-rule:evenodd"
viewBox="0 0 8000 3500"
 xmlns:xlink="http://www.w3.org/1999/xlink"
 xmlns:xodm="http://www.corel.com/coreldraw/odm/2003">
 <defs>
  <style type="text/css">
   <![CDATA[
    .fil0 {fill:#32CB65}
   ]]>
  </style>
 </defs>
 <g id="Camada_x0020_1">
  <metadata id="CorelCorpID_0Corel-Layer"/>
  <g id="_1418315352608">
   <path class="fil0" d="M2237.42 1233.35l0 0zm-169.33 677.33c12.58,-54.03 148.44,-318.75 182.69,-376.11 142.41,-238.55 231.49,-404.4 420.32,-621.07 100.73,-115.57 191.72,-233.11 362.19,-272.82 0,121.77 37.47,105.42 -39.06,325.01 -93.81,269.18 -282.71,519.93 -506.47,695.8 -30.1,23.66 -45.99,35.37 -77.42,58.05 -55.56,40.09 -99.36,67.24 -159.53,102.93 -30.47,18.08 -59.89,30.98 -89.59,45.88 -31.17,15.63 -61.59,27.2 -93.13,42.33zm169.33 -677.33c0,-248.22 46.39,-461.18 -143.76,-711.38 -165.51,-217.77 -401.43,-191.61 -618.12,-84.37 -43.69,21.62 -102.26,42.54 -151.45,60.22 -283.53,101.88 -352.43,142.75 -672,208.53 -67.03,13.8 -124.93,13.23 -196.24,23.9 -250.21,37.45 -106.5,-133.55 -106.5,-241.97 -101.41,-67.91 -187.67,6.33 -207.17,97.63 -24.96,116.83 22.39,226.79 73.67,281.4 138.33,147.29 249.6,187.69 438.59,187.95 38.34,0.06 59.24,7.78 83.59,7.07 206.62,-6 419.23,-79.37 575.4,-143.37 40.6,-16.63 79.26,-34.43 124.55,-53.25 23.93,-9.94 34.77,-17.08 57.16,-27.51 24.74,-11.53 43,-17.19 65.07,-28.06 53.41,-26.31 196.02,-107.15 245.41,-118.66 58.62,122.17 30.64,474.94 -5.08,629.92l-118.7 414.71c-80.07,242.46 -142.59,414.56 -239.07,649.92 -79.07,192.89 -250.67,511.28 -366.94,691.39 -53.99,83.65 -113.94,151.53 -73.94,263.52 35.08,98.24 119.24,135.85 219.68,85.43 93.93,-47.16 128.52,-67.51 198.28,-157.33 185.51,-238.84 325.05,-526.5 437.87,-806.73 13.16,-32.7 31.38,-100.35 57.96,-119.83 7.54,28.23 97.1,146.62 119.73,176.61 44.21,58.6 85.8,106.99 132.33,164l101.04 119.09c15.58,18.54 16.03,23.36 34.08,42.12 176.46,183.32 273.76,271.9 501.79,387.21 99.46,50.3 111.54,41.62 254.09,42.36 132.8,0.69 258.19,-26.34 313.76,-134.98 54.65,-106.84 -4.16,-170.89 -77.05,-168.53 -48.04,1.55 -52.14,44.05 -82.62,68.13 -138.89,109.72 -322.39,-54.91 -408.2,-120.22 -44.92,-34.19 -97.55,-113.31 -134.19,-162.14l-382.22 -515.25c161.92,-77.69 139.89,-52.83 321.26,-161.34l195.28 -134.92c18.51,-14.31 22.46,-19.03 40.05,-36.15l127.11 -118.42c124.94,-123.82 226.66,-272.52 309.68,-426.92 152.17,-282.99 346.06,-832.76 0.34,-1004.98 -81.63,-40.66 -198.21,-26.97 -265.46,11.73 -140.69,80.95 -230.52,200.63 -340.91,311.02 -28.83,28.82 -52.04,51.41 -80.6,80.26 -70.71,71.45 -338.99,458.58 -357.55,472.19z"/>
   <path class="fil0" d="M5293.89 2503.35c3.84,-172.38 361.51,-835.41 558.8,-939.8 47.56,25.16 93.13,92.45 93.13,152.4l-142.57 213.02c-113.32,140.86 -187.38,248.27 -317.13,402.54 -14.96,17.79 -26.82,25.75 -41.09,43.58 -49.61,61.99 -85.77,84.48 -151.14,128.26zm-1811.87 -397.94c11.18,-48.01 81.96,-174.92 109.48,-220.72 90.96,-151.39 148.77,-196.43 288.45,-270.34 50.32,104.86 -109.81,279.32 -191.16,342.24 -43.22,33.43 -137.66,130.37 -206.77,148.82zm50.8 457.2c-39.79,0 -118.53,16.82 -118.53,-110.06 0,-163.57 -22.25,-129.21 127.06,-203.14 47.27,-23.4 93.58,-55.24 135.38,-84.75 168.25,-118.79 338.78,-288.42 382.32,-498.81 7.5,-36.21 6.4,-50.6 -7.19,-87.83 -54.77,-150.03 -108.91,-158.41 -239.64,-158.41 -213.55,0 -453.03,291.99 -553.34,488.06 -99.23,193.93 -233.21,613.11 -54.31,805.39 233.49,250.95 564.73,-5.77 744.38,-149.19 46.38,-37.03 77.18,-87.28 125.74,-119.79 14.52,174.5 126.54,364.07 304.8,364.07 146.11,0 208.52,-27.71 335.1,-105.17 107.44,-65.75 182.23,-152.13 215.23,-174.23 2.98,133.69 79.38,304.8 220.13,304.8 139.85,0 149.31,-23.18 275.87,-122.07 40.85,-31.93 126.56,-133.92 160.83,-177.84 115.12,-147.56 151.98,-188.27 252.48,-340.18l27.43 -40.31c11.83,-15.4 4.51,-5.8 11.53,-13.87 -0.62,27.88 -9.14,65.67 -13.55,96.52 -21.63,151.38 -16.12,324.54 79.81,446.82 91.88,117.11 366.82,150.78 266.03,-147.5 -71.98,-213.02 50.87,-645.07 126.08,-843.4 24.1,-63.57 167.97,-297.51 -18.1,-297.51 -88.33,0 -244.37,238.05 -254,279.4l-16.94 0c-0.62,-27.84 -17.77,-75.69 -28.05,-98.95 -100.31,-227.02 -281.06,-190.39 -463.23,-95.99 -98.45,51.01 -171.86,140.45 -247.53,218.13 -24.49,25.13 -50.05,60.1 -71.68,89.19l-123.79 197.94c-14.25,28.09 -34.7,80.95 -54.69,97.72 -39.37,33.02 -51,12.39 -90,70.86 -55.58,83.34 -57.88,96.65 -134.25,187.48 -72.34,86.04 -133.13,107.68 -172.86,140.41 -126.16,103.89 -141.39,72.71 -214.12,107.61 -14.23,-26.9 -33.87,-69.5 -33.87,-110.06 0,-456.37 402.02,-1519.06 592.59,-1998.22 17.61,-44.29 33.73,-88.52 52.09,-134.18 44.57,-110.86 41.12,-91.96 41.12,-212.87 0,-41.09 -30.95,-75.48 -77.87,-76.2l-1.99 0c-53.47,0.25 -127.02,43.87 -199.17,169.7l-130.19 242.34c-198.51,398.28 -357.16,836.7 -489.29,1263.31 -19.02,61.43 -36.14,124.07 -53.15,192.39 -9.27,37.23 -17.84,64.32 -25.53,101.46 -41.55,200.53 13.92,58.73 -134.36,238.18 -45.48,55.03 -238.41,203.37 -313.45,245.35 -37.4,20.92 -82.62,53.4 -141.33,53.4z"/>
   <path class="fil0" d="M7131.16 1800.61c-5.51,-66.13 -71.46,-188.7 -103.1,-235.57 -43.99,-65.15 -116.1,-128.59 -216.5,-124.12 -107.12,4.78 -163.61,68.19 -220.15,124.74 -38.88,38.88 -146.05,144 -146.05,201.09 0,33.16 31.5,59.26 67.73,59.26 53.01,0 77.5,-106.58 155.68,-166.05 31.64,-24.06 40.56,-21.62 72.92,-37.15 22.41,33.47 36.59,45.87 52.03,91.9 22.54,67.2 58.04,304.23 58.04,373.77 0,20.64 -9.08,25.87 -20.21,39.07 -1.59,1.88 -6.64,6.8 -8.24,8.68 -93.14,109.85 -369.49,488.82 -369.49,595.72 0,26.69 -7.23,76.2 67.74,76.2 29.29,0 160.39,-206.66 189.66,-250.61l140.63 -189.57c15.93,-20.93 28.4,-44.42 50.71,-59.36 6.28,75.55 84.82,251.21 136.49,320.71 81.85,110.1 169.26,161.89 329.17,161.89 200.41,0 357.02,-278.96 425.72,-437.88 157.72,-364.89 -34.95,-309.18 -67.88,-245.68 -12.97,25 -19.18,57.67 -26.64,83.43 -18.74,64.71 -32.81,103.48 -56.58,163.55 -38.26,96.71 -104.33,224.92 -223.82,224.92 -50.73,0 -140.45,-195.39 -159.69,-246.71l-77.37 -337.49 99.54 -95.19c116.62,-102.71 286.04,-236.38 419.83,-316.77 119.65,-71.89 51.69,-261.65 -189.21,-79.15l-254.02 194.72c-35.28,27.48 -94.34,84.4 -126.94,101.65z"/>
  </g>
 </g>
</svg>
